<svg width="43" height="41" viewBox="0 0 43 41" fill="none" xmlns="http://www.w3.org/2000/svg">
<g clip-path="url(#clip0)">
<path d="M34.7181 0C34.7181 2.72606 34.7181 5.45213 34.7181 8.17819C35.2665 8.17819 35.7602 8.17819 36.2538 8.17819C38.8864 8.17819 40.8609 9.32314 42.1773 11.613C42.7257 12.5399 43 13.5758 43 14.6662C43 17.992 43 21.2633 43 24.5891C43 25.1888 42.8903 25.8431 42.7257 26.4428C42.0676 28.8963 39.8188 30.859 37.241 31.1317C36.528 31.1862 35.8699 31.1862 35.1569 31.1862C35.0472 31.1862 34.8826 31.1862 34.7181 31.1862C34.7181 34.4575 34.7181 37.7287 34.7181 41C25.8877 41 17.1122 41 8.28185 41C8.28185 37.7287 8.28185 34.512 8.28185 31.1862C8.11731 31.1862 8.00761 31.1862 7.89792 31.1862C6.96552 31.1862 6.03312 31.1862 5.10073 31.0226C2.30353 30.4229 0.0548071 27.8059 0.0548071 24.9707C-3.98615e-05 21.4269 -3.98615e-05 17.9375 0.0548071 14.5027C0.109654 11.0678 3.01654 8.23271 6.41705 8.17819C7.02037 8.17819 7.62369 8.17819 8.28185 8.17819C8.28185 5.45213 8.28185 2.72606 8.28185 0C17.1122 0 25.8877 0 34.7181 0ZM34.7181 27.9149C35.2117 27.9149 35.7053 27.9149 36.1989 27.9149C36.912 27.9694 37.5701 27.8059 38.1734 27.3697C38.9961 26.8245 39.6543 26.0612 39.6543 25.0253C39.7092 21.4814 39.6543 17.883 39.6543 14.3391C39.6543 14.1755 39.6543 14.012 39.5995 13.9029C39.1058 12.4309 37.8444 11.4495 36.1989 11.4495C27.9171 11.504 19.5803 11.4495 11.2984 11.4495C9.65302 11.4495 8.06246 11.4495 6.41705 11.4495C4.82649 11.4495 3.34562 12.9215 3.34562 14.5027C3.34562 17.9375 3.34562 21.3723 3.34562 24.8072C3.34562 25.9521 4.00379 26.7699 4.93619 27.3697C5.5395 27.7513 6.14282 27.9149 6.85583 27.8604C7.34945 27.8604 7.78823 27.8604 8.3367 27.8604C8.3367 25.0798 8.3367 22.4082 8.3367 19.6822C17.1671 19.6822 25.9426 19.6822 34.7729 19.6822C34.7181 22.4628 34.7181 25.1343 34.7181 27.9149ZM31.3724 37.7287C31.3724 32.7673 31.3724 27.8604 31.3724 22.9535C24.7908 22.9535 18.2091 22.9535 11.5727 22.9535C11.5727 27.8604 11.5727 32.7673 11.5727 37.7287C18.2091 37.7287 24.7908 37.7287 31.3724 37.7287ZM31.4273 3.27128C24.7908 3.27128 18.2091 3.27128 11.6275 3.27128C11.6275 4.90692 11.6275 6.54255 11.6275 8.17819C18.2091 8.17819 24.7908 8.17819 31.4273 8.17819C31.4273 6.54255 31.4273 4.90692 31.4273 3.27128Z" fill="#828282"/>
<path d="M14.9182 29.4961C14.9182 28.4056 14.9182 27.3697 14.9182 26.2793C19.306 26.2793 23.6937 26.2793 28.0815 26.2793C28.0815 27.3697 28.0815 28.4056 28.0815 29.4961C23.6937 29.4961 19.306 29.4961 14.9182 29.4961Z" fill="#828282"/>
<path d="M28.0815 31.1865C28.0815 32.2769 28.0815 33.3129 28.0815 34.4033C23.6937 34.4033 19.306 34.4033 14.9182 34.4033C14.9182 33.3129 14.9182 32.2769 14.9182 31.1865C19.306 31.1865 23.6937 31.1865 28.0815 31.1865Z" fill="#828282"/>
</g>
<defs>
<clipPath id="clip0">
<rect width="43" height="41" fill="white"/>
</clipPath>
</defs>
</svg>