<?xml version="1.0" standalone="no"?>
<!DOCTYPE svg PUBLIC "-//W3C//DTD SVG 1.1//EN" "http://www.w3.org/Graphics/SVG/1.1/DTD/svg11.dtd" >
<svg xmlns="http://www.w3.org/2000/svg" xmlns:xlink="http://www.w3.org/1999/xlink" version="1.1">
<metadata>
Created by FontForge 20170731 at Sun Nov 29 18:59:42 2015
 By Aleksey,,,
Copyright (c) 2012 by Fontfabric LLC. All rights reserved.
</metadata>
<defs>
<font id="Nexa-HeavyItalic" horiz-adv-x="711" >
  <font-face 
    font-family="Nexa Heavy Italic"
    font-weight="900"
    font-style="italic"
    font-stretch="normal"
    units-per-em="1000"
    panose-1="2 0 0 0 0 0 0 0 0 0"
    ascent="750"
    descent="-250"
    x-height="493"
    cap-height="700"
    bbox="-224 -298 1141 984"
    underline-thickness="50"
    underline-position="-175"
    unicode-range="U+0020-FB02"
  />
<missing-glyph horiz-adv-x="665" 
d="M264 131q0 -25 16 -39t38 -14q28 0 52.5 21t24.5 56q0 25 -15 38.5t-37 13.5q-31 0 -55 -19.5t-24 -56.5zM220 443h108q3 24 27.5 42t53.5 18q65 0 65 -48q0 -21 -12 -31.5t-37.5 -20t-38.5 -17.5q-1 -1 -8 -5t-9.5 -6t-9 -7t-10 -8.5t-9.5 -10.5t-10 -13t-9 -15.5
t-8.5 -19.5t-7 -23t-5.5 -27l107 -1q7 38 17 48q12 10 42.5 24.5t54.5 27t44 44.5t20 77q0 63 -45 96t-114 33q-78 0 -135.5 -41t-70.5 -116zM52 0l123 700h538l-123 -700h-538z" />
    <glyph glyph-name=".notdef" horiz-adv-x="665" 
d="M264 131q0 -25 16 -39t38 -14q28 0 52.5 21t24.5 56q0 25 -15 38.5t-37 13.5q-31 0 -55 -19.5t-24 -56.5zM220 443h108q3 24 27.5 42t53.5 18q65 0 65 -48q0 -21 -12 -31.5t-37.5 -20t-38.5 -17.5q-1 -1 -8 -5t-9.5 -6t-9 -7t-10 -8.5t-9.5 -10.5t-10 -13t-9 -15.5
t-8.5 -19.5t-7 -23t-5.5 -27l107 -1q7 38 17 48q12 10 42.5 24.5t54.5 27t44 44.5t20 77q0 63 -45 96t-114 33q-78 0 -135.5 -41t-70.5 -116zM52 0l123 700h538l-123 -700h-538z" />
    <glyph glyph-name=".null" horiz-adv-x="0" 
 />
    <glyph glyph-name="nonmarkingreturn" horiz-adv-x="333" 
 />
    <glyph glyph-name="space" unicode=" " horiz-adv-x="241" 
 />
    <glyph glyph-name="exclam" unicode="!" horiz-adv-x="301" 
d="M145 701h155l-90 -488h-148q6 36 36 213.5t47 274.5zM24 68q0 48 32 75.5t73 27.5q33 0 53.5 -19t20.5 -53q0 -48 -32.5 -75.5t-73.5 -27.5q-31 0 -52 19t-21 53z" />
    <glyph glyph-name="quotedbl" unicode="&#x22;" horiz-adv-x="458" 
d="M134 699h131l-48 -271h-131zM332 699h133l-48 -271h-133z" />
    <glyph glyph-name="numbersign" unicode="#" horiz-adv-x="707" 
d="M327 700h134l-64 -150h109l65 150h133l-64 -150h72l-20 -116h-101l-79 -182h79l-21 -117h-106l-57 -135h-134l57 135h-110l-57 -135h-133l57 135h-76l21 117h106l78 183h-83l20 115h110zM469 443h-126l-85 -198h126z" />
    <glyph glyph-name="dollar" unicode="$" horiz-adv-x="717" 
d="M699 581l-133 -57q-9 32 -51 55.5t-98 23.5q-58 0 -103 -22t-53 -64q-7 -41 29 -57t104 -23q49 -5 87.5 -13t78.5 -25t64.5 -41.5t36 -64.5t2.5 -91q-17 -98 -89 -155.5t-192 -69.5l-16 -95h-137l16 94q-89 9 -153.5 57.5t-82.5 123.5l141 63q13 -47 65.5 -78t114.5 -31
q78 0 122 18.5t54 72.5q14 81 -148 96q-24 2 -43 4.5t-41.5 6.5t-39.5 9t-36 12t-31.5 16t-26.5 21.5t-20.5 27t-13 33t-4.5 40.5t5 49q17 93 94.5 145.5t179.5 60.5l14 83h132l-14 -83q149 -18 186 -142z" />
    <glyph glyph-name="percent" unicode="%" horiz-adv-x="819" 
d="M274 704q69 0 105 -39.5t36 -95.5q0 -72 -54 -129t-143 -57q-69 0 -105 39t-36 96q0 72 54 129t143 57zM631 699h157l-581 -700h-159zM621 314q68 0 104 -39.5t36 -95.5q0 -72 -54 -129t-143 -57q-69 0 -104.5 39.5t-35.5 96.5q0 72 54 128.5t143 56.5zM602 210
q-29 0 -48 -20.5t-19 -45.5q0 -20 12.5 -33.5t34.5 -13.5q31 0 48.5 19.5t17.5 46.5q0 20 -11.5 33.5t-34.5 13.5zM256 602q-31 0 -49.5 -20.5t-18.5 -46.5q0 -20 12.5 -34t35.5 -14q31 0 49 20t18 47q0 20 -12 34t-35 14z" />
    <glyph glyph-name="ampersand" unicode="&#x26;" horiz-adv-x="717" 
d="M327 300q-65 0 -102.5 -28t-37.5 -66q0 -44 35.5 -61.5t82.5 -17.5q23 0 52.5 8t60 32.5t36.5 59.5l13 73h-140zM605 300l-16 -90q-4 -27 11.5 -47.5t48.5 -13.5l-28 -154q-60 -8 -100.5 13t-45.5 78q-72 -97 -215 -97q-100 0 -166 41t-66 135q0 68 39 117.5t107 77.5
q-35 12 -53.5 48t-18.5 73q0 50 20.5 91t52.5 66.5t74.5 43t83.5 24.5t81 7q111 0 175.5 -49t53.5 -156h-143q1 38 -33 58.5t-79 19.5q-53 -1 -91.5 -28t-38.5 -73q0 -66 98 -66h326l-21 -119h-56z" />
    <glyph glyph-name="quotesingle" unicode="'" horiz-adv-x="258" 
d="M134 697h130l-48 -271h-130z" />
    <glyph glyph-name="parenleft" unicode="(" horiz-adv-x="363" 
d="M361 773l55 -99q-112 -81 -174.5 -202.5t-62.5 -256.5q0 -191 100 -287l-89 -97q-162 122 -162 369q0 189 91 337.5t242 235.5z" />
    <glyph glyph-name="parenright" unicode=")" horiz-adv-x="363" 
d="M81 674l89 99q78 -62 122 -161.5t44 -218.5q0 -336 -318 -566l-64 101q180 129 223 376q19 107 -4.5 206t-91.5 164z" />
    <glyph glyph-name="asterisk" unicode="*" horiz-adv-x="410" 
d="M370 464l-88 -58l-42 85l-71 -87l-71 60l75 73l-86 21l44 90l83 -33l11 93h103l-27 -93l100 35l11 -92l-94 -19z" />
    <glyph glyph-name="plus" unicode="+" horiz-adv-x="496" 
d="M59 391h138l26 144h132l-26 -144h141l-22 -126h-141l-25 -144h-132l25 144h-138z" />
    <glyph glyph-name="comma" unicode="," horiz-adv-x="262" 
d="M173 76q0 -23 -9.5 -48t-34 -69t-32.5 -60h-77l34 104q-53 8 -44 59q6 36 34 56t61 20q28 0 48 -16.5t20 -45.5z" />
    <glyph glyph-name="hyphen" unicode="-" horiz-adv-x="494" 
d="M48 230l22 125h375l-22 -125h-375z" />
    <glyph glyph-name="period" unicode="." horiz-adv-x="262" 
d="M11 61q0 45 29.5 70t68.5 25q29 0 49 -18t20 -50q0 -44 -30 -69t-68 -25q-29 0 -49 17.5t-20 49.5z" />
    <glyph glyph-name="slash" unicode="/" horiz-adv-x="522" 
d="M434 768h141l-472 -850h-140z" />
    <glyph glyph-name="zero" unicode="0" horiz-adv-x="723" 
d="M226 401l-21 -101q-17 -89 17 -135.5t104 -46.5t122.5 46.5t69.5 135.5l21 101q17 86 -17 132.5t-103 46.5q-71 0 -124 -45.5t-69 -133.5zM52 300l17 102q26 156 128.5 238t238.5 82q134 0 207.5 -83t47.5 -237l-17 -101q-26 -153 -128 -237t-232 -84q-133 0 -210.5 82
t-51.5 238z" />
    <glyph glyph-name="one" unicode="1" horiz-adv-x="457" 
d="M-2 0l23 128h125l66 378l-118 -35l24 136l275 93l-100 -572h110l-23 -128h-382z" />
    <glyph glyph-name="two" unicode="2" horiz-adv-x="675" 
d="M243 492h-150q26 113 115 165t205 52q107 0 176.5 -48t69.5 -139q0 -256 -323 -256q-28 0 -49 -3t-46.5 -11.5t-42.5 -29t-23 -51.5l-5 -27h419l-25 -144h-566q20 114 30 172q12 67 45.5 114.5t82 71.5t98 34t106.5 10q50 0 92 19t50 65q7 43 -22.5 66.5t-89.5 23.5
q-52 0 -94.5 -22t-52.5 -62z" />
    <glyph glyph-name="three" unicode="3" horiz-adv-x="679" 
d="M341 295h-107l23 127h97q127 0 140 69q6 30 -17.5 54.5t-92.5 24.5q-115 0 -140 -68h-155q19 74 72 123t115 68t134 19q99 0 171.5 -43.5t72.5 -133.5q0 -60 -32.5 -107.5t-87.5 -69.5q57 -25 75.5 -77.5t-2.5 -113.5q-60 -181 -331 -181q-72 0 -129.5 21.5t-93 74.5
t-26.5 131h157q-3 -46 30 -67t87 -21q22 0 44 3.5t49 13t43.5 31t16.5 52.5q0 27 -24.5 48.5t-88.5 21.5z" />
    <glyph glyph-name="four" unicode="4" horiz-adv-x="687" 
d="M480 699h155l-77 -438h80l-24 -135h-80l-22 -127h-153l22 127h-373l15 160zM179 261h226l44 249z" />
    <glyph glyph-name="five" unicode="5" horiz-adv-x="657" 
d="M647 699l-24 -140h-372l-19 -110h127q125 0 191 -51t53 -177q-6 -62 -39 -108.5t-81 -72t-98.5 -37.5t-102.5 -12q-131 0 -199 53.5t-48 171.5h152q-7 -49 28 -68t89 -19q19 0 40.5 4.5t47 15t42 33.5t16.5 56q0 43 -36 61t-79 18h-268q58 330 67 382h513z" />
    <glyph glyph-name="six" unicode="6" horiz-adv-x="697" 
d="M245 474l-14 -78q38 35 78.5 49.5t96.5 14.5q105 0 172 -51t67 -146q0 -71 -29.5 -125.5t-79 -86t-108.5 -47.5t-124 -16q-57 0 -106 13.5t-87 41t-55.5 75t-6.5 109.5l44 247q21 116 117 178t217 62q126 0 195 -50.5t54 -162.5h-146q-1 41 -37 60.5t-90 19.5
q-57 0 -103 -29.5t-55 -77.5zM325 126q67 0 114 31t48 83q1 41 -31 64.5t-89 23.5q-71 0 -118 -30.5t-48 -83.5q-1 -42 32.5 -65t91.5 -23z" />
    <glyph glyph-name="seven" unicode="7" horiz-adv-x="577" 
d="M206 0h-175l375 558h-330l25 142h531l-8 -77z" />
    <glyph glyph-name="eight" unicode="8" horiz-adv-x="710" 
d="M354 300q-63 0 -107.5 -23.5t-52.5 -63.5q-7 -35 21.5 -64t106.5 -29q79 0 117 28.5t43 64.5q6 40 -27.5 63.5t-100.5 23.5zM32 221q7 37 43 80.5t92 61.5q-42 25 -57 72t1 98q26 87 112.5 135.5t201.5 48.5q119 0 188 -46.5t69 -133.5q0 -55 -31.5 -99.5t-85.5 -66.5
q46 -18 65.5 -55.5t19.5 -75.5q0 -85 -50.5 -145t-129 -86.5t-174.5 -25.5q-62 0 -113.5 14t-91 41.5t-55.5 74.5t-4 108zM262 497q0 -35 29 -57.5t84 -22.5q58 0 95 25t46 62q8 33 -20.5 60.5t-92.5 27.5q-73 0 -107 -32t-34 -63z" />
    <glyph glyph-name="nine" unicode="9" horiz-adv-x="702" 
d="M478 228l13 78q-38 -35 -78.5 -49.5t-96.5 -14.5q-105 0 -172 51t-67 146q0 71 29.5 125.5t79.5 86t109 47.5t123 16q57 0 106 -13.5t87 -41t55.5 -75t6.5 -109.5l-43 -247q-22 -122 -120 -181t-223 -59q-127 0 -197.5 51t-55.5 162h146q1 -40 39 -58.5t93 -18.5
q61 0 108.5 26t57.5 78zM394 576q-67 0 -113 -31t-46 -83q0 -41 32.5 -64.5t89.5 -23.5q71 0 117.5 30.5t46.5 83.5q0 41 -34.5 64.5t-92.5 23.5z" />
    <glyph glyph-name="colon" unicode=":" horiz-adv-x="282" 
d="M20 60q0 43 29 67.5t68 24.5q28 0 47.5 -17t19.5 -48q0 -42 -29.5 -67.5t-63.5 -25.5q-30 0 -50.5 17t-20.5 49zM71 347q0 43 29.5 67.5t66.5 24.5q29 0 48.5 -17t19.5 -48q0 -43 -29.5 -68t-65.5 -25q-29 0 -49 17.5t-20 48.5z" />
    <glyph glyph-name="semicolon" unicode=";" horiz-adv-x="284" 
d="M182 77q0 -14 -3.5 -30t-14 -38t-16 -33t-22.5 -41t-20 -36h-77l36 99q-24 4 -37 21.5t-9 42.5q6 37 34.5 57.5t62.5 20.5q30 0 48 -16.5t18 -46.5zM72 347q0 43 29.5 67.5t66.5 24.5q29 0 48.5 -17t19.5 -48q0 -43 -29.5 -68t-65.5 -25q-29 0 -49 17.5t-20 48.5z" />
    <glyph glyph-name="less" unicode="&#x3c;" horiz-adv-x="420" 
d="M218 313l121 -145l-110 -99l-193 241l1 7l278 241l76 -99z" />
    <glyph glyph-name="equal" unicode="=" horiz-adv-x="571" 
d="M35 128l23 128h442l-23 -128h-442zM76 363l23 129h442l-23 -129h-442z" />
    <glyph glyph-name="greater" unicode="&#x3e;" horiz-adv-x="420" 
d="M35 160l174 153l-121 154l110 91l194 -241l-2 -7l-278 -241z" />
    <glyph glyph-name="question" unicode="?" horiz-adv-x="586" 
d="M231 -8q-60 0 -74 49q-13 46 21 88q33 41 87 40q63 -1 76 -51q12 -46 -24 -87q-33 -39 -86 -39zM225 495h-157q37 221 299 221q102 0 165 -48t61 -127q-1 -50 -20.5 -85.5t-40.5 -51t-65.5 -42t-67.5 -43.5q-29 -22 -38.5 -41.5t-11.5 -55.5h-155q7 124 114 185
q14 8 37.5 19.5t35.5 18.5t25.5 18t19.5 25t6 33q0 29 -24 45t-65 16q-97 0 -118 -87z" />
    <glyph glyph-name="at" unicode="@" horiz-adv-x="934" 
d="M515 561q-98 0 -185 -46t-142.5 -133.5t-55.5 -195.5q0 -124 76 -186t193 -62q80 0 154 39l26 -81q-95 -51 -200 -51q-146 0 -248.5 85.5t-102.5 244.5q0 109 44.5 201t116.5 151t160.5 91.5t179.5 32.5q164 0 264.5 -84.5t100.5 -243.5q0 -146 -70 -239.5t-176 -93.5
q-35 0 -62 18t-26 60q-28 -31 -74 -51t-77 -20q-94 0 -153.5 59t-59.5 151q0 112 84.5 198t201.5 86q99 -2 134 -66l14 43l91 -15l-60 -338q-3 -15 5 -23t16 -8q51 3 83.5 64.5t32.5 158.5q0 128 -67.5 191t-217.5 63zM475 378q-72 0 -113.5 -48t-41.5 -109q0 -47 27.5 -78
t81.5 -31q72 0 114 47.5t42 113.5q0 46 -28 75.5t-82 29.5z" />
    <glyph glyph-name="A" unicode="A" horiz-adv-x="791" 
d="M582 0l-30 120h-359l-72 -120h-174l437 700h170l191 -700h-163zM517 258l-69 287l-172 -287h241z" />
    <glyph glyph-name="B" unicode="B" horiz-adv-x="726" 
d="M233 298l-29 -162h192q58 0 88.5 25t30.5 68q0 32 -23.5 50.5t-68.5 18.5h-190zM280 565l-25 -137h190q45 0 71.5 25.5t26.5 56.5q0 24 -17.5 39.5t-53.5 15.5h-192zM150 700h345q94 0 151 -41t57 -120q0 -119 -122 -172q59 -23 80 -82t1 -121q-53 -164 -278 -164h-357z
" />
    <glyph glyph-name="C" unicode="C" horiz-adv-x="697" 
d="M567 193l78 -108q-122 -103 -287 -103q-157 0 -237 84t-80 213q0 80 29 156.5t83 140t141 102t194 38.5q147 0 238 -108l-114 -95q-47 57 -150 57q-110 0 -177.5 -69t-82.5 -157q-9 -38 -0.5 -77t27 -70.5t59 -51t96.5 -19.5q44 0 95.5 18.5t87.5 48.5z" />
    <glyph glyph-name="D" unicode="D" horiz-adv-x="757" 
d="M150 700h287q147 0 220.5 -79.5t73.5 -203.5q0 -78 -24 -150t-72 -133t-131 -97.5t-190 -36.5h-287zM280 559l-74 -415h133q54 0 96.5 17t68 44t42.5 61.5t23.5 67t6.5 64.5q0 70 -39 115.5t-124 45.5h-133z" />
    <glyph glyph-name="E" unicode="E" horiz-adv-x="656" 
d="M585 144l-25 -144h-533q21 116 62 349.5t61 350.5h519l-25 -143h-366l-24 -135h345l-24 -137h-345l-25 -141h380z" />
    <glyph glyph-name="F" unicode="F" horiz-adv-x="629" 
d="M183 0h-156l123 699h510l-25 -143h-354l-29 -166h332l-25 -139h-332z" />
    <glyph glyph-name="G" unicode="G" horiz-adv-x="744" 
d="M726 616l-109 -100q-26 30 -67.5 46t-85.5 16q-118 0 -193 -74.5t-76 -196.5q0 -34 7.5 -63.5t27 -58t59 -45t95.5 -16.5q84 0 157 49l20 112h-167l23 130h302l-54 -305q-113 -130 -308 -130q-83 0 -145.5 25t-98 68.5t-53 96t-17.5 113.5q0 67 16.5 129.5t52.5 119
t87 98.5t126 66.5t164 24.5q167 0 237 -105z" />
    <glyph glyph-name="H" unicode="H" horiz-adv-x="781" 
d="M650 -1h-154l49 277h-313l-49 -277h-156l123 700h156l-49 -280h313l49 280h154z" />
    <glyph glyph-name="I" unicode="I" horiz-adv-x="313" 
d="M182 0h-155l123 700h155z" />
    <glyph glyph-name="J" unicode="J" horiz-adv-x="716" 
d="M17 291h147q-12 -84 22.5 -121t112.5 -37q77 0 127.5 43.5t64.5 124.5l46 261h-193l24 138h350l-71 -400q-26 -146 -115 -229.5t-251 -83.5q-315 0 -264 304z" />
    <glyph glyph-name="K" unicode="K" horiz-adv-x="673" 
d="M728 700v-4l-347 -342l251 -345l-2 -9h-188l-206 299l-53 -299h-156l123 700h156l-51 -289l284 289h189z" />
    <glyph glyph-name="L" unicode="L" horiz-adv-x="598" 
d="M150 700h156l-98 -557h350l-25 -143h-506z" />
    <glyph glyph-name="M" unicode="M" horiz-adv-x="923" 
d="M636 -1l86 487l-264 -272h-28l-160 280l-87 -495h-156l123 700h179l157 -269l252 269h177l-123 -700h-156z" />
    <glyph glyph-name="N" unicode="N" horiz-adv-x="792" 
d="M284 700l273 -455l29 220l41 235h157l-123 -700h-134l-269 448l-35 -230l-38 -218h-158l123 700h134z" />
    <glyph glyph-name="O" unicode="O" horiz-adv-x="838" 
d="M814 415q0 -193 -128 -312.5t-322 -119.5q-148 0 -234.5 81t-86.5 221q0 194 128 313t322 119q148 0 234.5 -81t86.5 -221zM653 350q18 98 -33.5 162.5t-151.5 64.5q-111 0 -190 -78t-79 -186q0 -84 51 -136.5t138 -52.5q101 0 174.5 63.5t90.5 162.5z" />
    <glyph glyph-name="P" unicode="P" horiz-adv-x="702" 
d="M280 552l-37 -211h174q61 0 97 36.5t36 85.5q0 38 -25 63.5t-71 25.5h-174zM392 198h-174l-35 -198h-156l123 700h330q112 0 170.5 -59t58.5 -151q0 -122 -85 -207t-232 -85z" />
    <glyph glyph-name="Q" unicode="Q" horiz-adv-x="836" 
d="M812 418q0 -159 -107 -285l67 -82l-129 -108l-69 87q-95 -46 -210 -46q-149 0 -235 80t-86 221q0 196 127 314.5t323 118.5q148 0 233.5 -80t85.5 -220zM651 351q18 99 -32 162t-151 63q-113 0 -191 -76.5t-78 -187.5q0 -84 51.5 -135t138.5 -51q101 0 175 65t87 160z
" />
    <glyph glyph-name="R" unicode="R" horiz-adv-x="728" 
d="M650 12l-2 -12h-170l-138 230h-116l-41 -230h-156l123 700h332q107 0 164.5 -57.5t57.5 -143.5q0 -95 -49.5 -157t-155.5 -98zM459 566h-176l-36 -204h178q56 0 89 35.5t33 77.5q0 37 -22 64t-66 27z" />
    <glyph glyph-name="S" unicode="S" horiz-adv-x="646" 
d="M629 628l-105 -94q-23 28 -64 42t-85 14q-58 0 -99 -24.5t-41 -64.5q0 -37 33.5 -51.5t103.5 -20.5q66 -6 115.5 -25t83.5 -62.5t34 -106.5q0 -90 -49 -149.5t-122 -83.5t-167 -25q-87 -1 -160 30t-109 90l100 117q30 -47 84 -70.5t111 -23.5q69 0 112.5 26t43.5 71
q0 35 -30 52t-96 25q-58 7 -101 19.5t-80 37t-52 67t-6 100.5q18 99 108 153t206 54q80 0 133.5 -21.5t97.5 -75.5z" />
    <glyph glyph-name="T" unicode="T" horiz-adv-x="614" 
d="M177 0l99 561h-213l25 139h581l-25 -139h-213l-99 -561h-155z" />
    <glyph glyph-name="U" unicode="U" horiz-adv-x="775" 
d="M622 699h155l-69 -391q-28 -155 -123.5 -240t-240.5 -85q-71 0 -126.5 19.5t-94.5 58t-53.5 102t0.5 145.5l69 391h155l-69 -391q-17 -94 19.5 -141.5t122.5 -43.5q78 4 124.5 53.5t61.5 131.5z" />
    <glyph glyph-name="V" unicode="V" horiz-adv-x="742" 
d="M811 700l-409 -703h-167l-168 703h175l106 -517l288 517h175z" />
    <glyph glyph-name="W" unicode="W" horiz-adv-x="1074" 
d="M1138 700l-377 -699h-128l-81 391l-214 -391h-128l-138 699h175l45 -239l23 -226l239 465h102l82 -465l100 225l125 240h175z" />
    <glyph glyph-name="X" unicode="X" horiz-adv-x="693" 
d="M375 459l203 241h180l-1 -7l-307 -349l184 -339l-1 -5h-173l-122 232l-196 -232h-190l1 5l307 350l-178 338l1 7h171z" />
    <glyph glyph-name="Y" unicode="Y" horiz-adv-x="705" 
d="M247 700l119 -278l226 278h183l-1 -8l-353 -414l-49 -278h-156l49 278l-195 414l1 8h176z" />
    <glyph glyph-name="Z" unicode="Z" horiz-adv-x="628" 
d="M97 566l23 134h535l-12 -68l-421 -486h344l-26 -146h-560l14 81l428 485h-325z" />
    <glyph glyph-name="bracketleft" unicode="[" horiz-adv-x="364" 
d="M245 -178h-256l156 882h256l-22 -123h-114l-112 -635h114z" />
    <glyph glyph-name="backslash" unicode="\" horiz-adv-x="507" 
d="M105 768h143l171 -850h-142z" />
    <glyph glyph-name="bracketright" unicode="]" horiz-adv-x="364" 
d="M208 -178h-256l22 124h114l112 635h-114l22 123h256z" />
    <glyph glyph-name="asciicircum" unicode="^" horiz-adv-x="651" 
d="M47 328l2 6l305 369h83l184 -367v-8h-153l-103 210l-171 -210h-147z" />
    <glyph glyph-name="underscore" unicode="_" horiz-adv-x="497" 
d="M-56 -121l22 125h473l-22 -125h-473z" />
    <glyph glyph-name="grave" unicode="`" horiz-adv-x="264" 
d="M119 692l1 6h168l49 -140l-1 -7h-126z" />
    <glyph glyph-name="a" unicode="a" horiz-adv-x="641" 
d="M465 437l15 57h135q-15 -82 -44 -247t-43 -247h-130l3 62q-29 -36 -76 -54t-89 -19q-98 -1 -156.5 55.5t-58.5 155.5q0 138 90.5 222.5t219.5 82.5q46 0 83.5 -19t50.5 -49zM323 378q-63 0 -109 -42.5t-46 -111.5q0 -50 30 -78.5t79 -28.5q65 0 110.5 45.5t45.5 102.5
q0 48 -28.5 80.5t-81.5 32.5z" />
    <glyph glyph-name="b" unicode="b" horiz-adv-x="641" 
d="M355 374q-61 0 -109.5 -40.5t-48.5 -110.5q0 -53 32.5 -78t80.5 -25q64 0 105 44t41 106q0 47 -27 75.5t-74 28.5zM132 699h145l-46 -265q69 70 167 70q95 0 150.5 -56t55.5 -153q0 -132 -84.5 -218.5t-210.5 -86.5q-106 0 -151 73l-20 -63h-129z" />
    <glyph glyph-name="c" unicode="c" horiz-adv-x="508" 
d="M382 159l74 -94q-90 -76 -206 -76q-102 0 -166 53.5t-64 156.5q0 94 46.5 165t118.5 106t155 35q113 0 167 -68l-96 -91q-33 29 -88 29q-63 0 -109 -41t-46 -108q0 -48 30.5 -76t76.5 -28q26 0 56.5 10t50.5 27z" />
    <glyph glyph-name="d" unicode="d" horiz-adv-x="642" 
d="M315 374q-63 0 -104.5 -43t-41.5 -107q0 -46 26 -75t75 -29q63 0 110 36.5t47 110.5q0 50 -32.5 78.5t-79.5 28.5zM507 699h145l-123 -699h-129l2 63q-70 -72 -177 -72q-94 0 -149 57t-55 152q0 135 85 219.5t212 84.5q98 0 142 -70z" />
    <glyph glyph-name="e" unicode="e" horiz-adv-x="576" 
d="M526 200h-363q-1 -38 30 -62.5t89 -24.5q83 0 135 39l65 -90q-87 -73 -225 -73q-114 0 -175 58t-61 157q0 132 87.5 217.5t224.5 85.5q131 0 186.5 -80t6.5 -227zM182 305h234q4 38 -26 58.5t-78 20.5q-44 0 -79 -21t-51 -58z" />
    <glyph glyph-name="f" unicode="f" horiz-adv-x="407" 
d="M503 679l-55 -109q-29 20 -70 20q-70 0 -84 -76l-5 -29h137l-21 -121h-137l-64 -364h-144l64 364h-87l21 121h87l5 29q34 199 236 199q64 0 117 -34z" />
    <glyph glyph-name="g" unicode="g" horiz-adv-x="644" 
d="M323 379q-64 0 -109.5 -42.5t-45.5 -113.5q0 -50 30 -77.5t78 -27.5q81 0 126 70q38 61 21 121q-18 64 -88 70h-12zM-11 -60h143q-1 -33 29.5 -48.5t76.5 -15.5q53 0 96 27.5t53 86.5l12 69q-59 -71 -164 -73q-97 -1 -155.5 57t-58.5 157q0 140 90.5 224t219.5 82
q46 0 82 -19.5t49 -49.5l15 56h139l-85 -506q-22 -122 -104.5 -182t-208.5 -60q-109 0 -174.5 50.5t-54.5 144.5z" />
    <glyph glyph-name="h" unicode="h" horiz-adv-x="608" 
d="M132 700h145l-47 -267q66 69 163 69q197 0 155 -237l-47 -265h-144l47 264q9 51 -12 79t-64 28q-47 0 -84 -32t-47 -89l-44 -250h-144z" />
    <glyph glyph-name="i" unicode="i" horiz-adv-x="266" 
d="M240 495h-144l-87 -495h144zM108 611q0 44 29.5 69.5t67.5 25.5q29 0 49.5 -17.5t20.5 -49.5q0 -43 -29.5 -68.5t-66.5 -26.5q-30 -1 -50.5 17t-20.5 50z" />
    <glyph glyph-name="j" unicode="j" horiz-adv-x="266" 
d="M-101 -84l-37 -118q41 -21 87.5 -18t86.5 21t71 64t41 111l92 519h-144l-92 -523q-9 -49 -38 -62.5t-67 6.5zM109 611q0 44 29 69.5t68 25.5q29 0 49 -18t20 -49q0 -44 -30 -69.5t-68 -25.5q-29 0 -48.5 17.5t-19.5 49.5z" />
    <glyph glyph-name="k" unicode="k" horiz-adv-x="546" 
d="M132 699h144l-70 -399l180 193h170l-2 -9l-222 -227l167 -246l-2 -11h-169l-137 217l-38 -217h-144z" />
    <glyph glyph-name="l" unicode="l" horiz-adv-x="269" 
d="M134 699h143l-123 -699h-143z" />
    <glyph glyph-name="m" unicode="m" horiz-adv-x="887" 
d="M469 0h-142l47 265q18 108 -66 108q-41 0 -70.5 -32t-37.5 -77l-47 -264h-144l87 494h126v-56q51 67 142 67q104 0 128 -92q42 50 83.5 71.5t96.5 21.5q41 0 72.5 -11t56.5 -38t31 -72.5t-4 -114.5l-48 -270h-145l47 267q9 50 -3.5 76.5t-53.5 26.5t-71 -30.5t-38 -74.5z
" />
    <glyph glyph-name="n" unicode="n" horiz-adv-x="616" 
d="M510 0h-145l46 261q20 115 -82 115q-49 1 -86.5 -35t-46.5 -86l-45 -255h-142l87 494h130l-6 -63q73 77 173 75q206 0 163 -244z" />
    <glyph glyph-name="o" unicode="o" horiz-adv-x="607" 
d="M249 -11q-107 0 -168 59t-61 155q0 128 91 215t229 87q107 0 168.5 -60.5t61.5 -156.5q0 -128 -90 -213.5t-231 -85.5zM272 117q71 0 110.5 46t39.5 105q0 45 -26 76.5t-78 31.5q-69 0 -109.5 -47.5t-40.5 -104.5q0 -45 26 -76t78 -31z" />
    <glyph glyph-name="p" unicode="p" horiz-adv-x="642" 
d="M310 119q63 0 104.5 43t41.5 107q0 46 -26 75t-75 29q-63 0 -110 -36.5t-47 -110.5q0 -50 32.5 -78.5t79.5 -28.5zM116 -218h-145l125 711h129l-2 -63q70 72 177 72q94 0 149 -57t55 -152q0 -135 -85 -219.5t-212 -84.5q-98 0 -142 70z" />
    <glyph glyph-name="q" unicode="q" horiz-adv-x="642" 
d="M270 119q61 0 109.5 40.5t48.5 110.5q0 53 -32.5 78t-80.5 25q-64 0 -105 -44t-41 -106q0 -47 27 -75.5t74 -28.5zM491 -218h-145l48 277q-69 -70 -167 -70q-95 0 -150.5 56t-55.5 153q0 132 84.5 218t210.5 86q107 0 151 -72l20 63h129z" />
    <glyph glyph-name="r" unicode="r" horiz-adv-x="456" 
d="M96 493h134l1 -54q60 66 144 66q71 0 113 -45l-80 -114q-31 25 -75 25q-49 0 -87.5 -30.5t-47.5 -83.5l-45 -257h-144z" />
    <glyph glyph-name="s" unicode="s" horiz-adv-x="496" 
d="M470 444l-87 -90q-44 36 -111 36q-38 0 -58.5 -13t-20.5 -34q0 -35 66 -37q42 -1 74 -8t63 -23.5t44 -50t5 -81.5q-11 -67 -72.5 -114.5t-171.5 -47.5q-131 0 -217 84l80 102q63 -60 161 -62q34 -1 58 12t24 36q0 35 -77 38q-74 3 -127.5 35.5t-53.5 100.5q0 60 37 102.5
t90.5 60.5t115.5 18q115 0 178 -64z" />
    <glyph glyph-name="t" unicode="t" horiz-adv-x="412" 
d="M163 613l146 16l-24 -138h125l-21 -120h-126l-33 -186q-11 -66 45 -66q35 0 62 12l12 -120q-53 -19 -108 -22q-88 -4 -130.5 41.5t-23.5 154.5l33 186h-88l21 120h88z" />
    <glyph glyph-name="u" unicode="u" horiz-adv-x="617" 
d="M90 494h145l-46 -261q-20 -115 82 -115q49 -1 86.5 35t46.5 86l45 255h142l-87 -494h-130l6 65q-70 -77 -173 -75q-206 0 -163 242z" />
    <glyph glyph-name="v" unicode="v" horiz-adv-x="591" 
d="M236 313l29 -163l87 163l103 181h165l-300 -497h-158l-124 497h159z" />
    <glyph glyph-name="w" unicode="w" horiz-adv-x="846" 
d="M400 494h113l39 -315l52 112l105 203h161l-271 -497h-143l-44 247l-131 -247h-144l-94 497h161l33 -203l12 -112z" />
    <glyph glyph-name="x" unicode="x" horiz-adv-x="542" 
d="M283 351l105 142h172l-1 -5l-202 -242l126 -243l-1 -3h-168l-72 146l-113 -146h-173l1 3l213 250l-119 235l1 5h166z" />
    <glyph glyph-name="y" unicode="y" horiz-adv-x="614" 
d="M88 494h144l-44 -252q-9 -53 7.5 -86.5t65.5 -33.5q50 0 90.5 37t49.5 88l44 247h143l-90 -508q-21 -121 -100 -182.5t-183 -61.5q-101 0 -160 49.5t-55 148.5h135q-1 -39 27 -52.5t73 -13.5q41 0 79 30t47 81l13 74q-41 -44 -78 -55.5t-98 -11.5q-88 0 -132 66.5
t-23 182.5z" />
    <glyph glyph-name="z" unicode="z" horiz-adv-x="477" 
d="M85 494h383l-12 -70l-259 -291h217l-23 -133h-417l11 61l271 308h-193z" />
    <glyph glyph-name="braceleft" unicode="{" horiz-adv-x="372" 
d="M273 -45l-20 -113q-115 -21 -169.5 24t-37.5 139l26 149q2 17 2 33.5t-14 28.5t-43 12l19 106q29 0 47 12.5t24 26.5t10 35l25 142q18 101 86.5 147.5t179.5 25.5l-19 -109q-43 9 -65.5 -7.5t-30.5 -64.5l-23 -134q-11 -62 -21 -79q-19 -33 -72 -49q11 -3 19.5 -7.5
t15 -8t10.5 -10.5t7 -10t3.5 -13t1.5 -12.5t-0.5 -15t-2 -14.5t-3.5 -17.5t-3 -17.5l-23 -130q-8 -48 5 -60.5t66 -8.5z" />
    <glyph glyph-name="bar" unicode="|" horiz-adv-x="284" 
d="M294 766l-148 -840h-138l148 840h138z" />
    <glyph glyph-name="braceright" unicode="}" horiz-adv-x="373" 
d="M-41 -160l20 112q52 -4 69.5 9t25.5 61l23 130q1 4 3.5 19.5t3.5 19t4 16t5.5 16.5t7.5 13t11 13.5l14 10.5t19 10t24 8q-12 4 -21.5 8t-15.5 10.5t-10.5 10.5t-6 14t-2.5 13.5t0.5 16.5t1.5 16t3 19.5t4 19.5l23 134q8 46 -8 60t-63 8l20 113q119 21 171.5 -25.5
t34.5 -147.5l-25 -142q-2 -17 -2 -33.5t14 -28.5t43 -12l-19 -106q-29 0 -47 -12.5t-24 -26.5t-10 -35l-26 -149q-17 -94 -87.5 -139t-177.5 -24z" />
    <glyph glyph-name="asciitilde" unicode="~" horiz-adv-x="626" 
d="M478 387l104 -31q-29 -69 -76 -106.5t-102 -39.5q-41 -1 -96.5 36t-91.5 36q-41 -2 -72 -55l-94 34q26 61 74 100t111 41q43 1 96 -32t75 -38q38 -8 72 55z" />
    <glyph glyph-name="exclamdown" unicode="&#xa1;" horiz-adv-x="283" 
d="M-20 -181h155q14 80 41 242t42 246h-148zM256 452q0 -47 -32.5 -75t-73.5 -28q-31 0 -52.5 19t-21.5 54q0 49 33 75.5t76 26.5q30 0 50.5 -19.5t20.5 -52.5z" />
    <glyph glyph-name="cent" unicode="&#xa2;" horiz-adv-x="551" 
d="M400 149l71 -102q-57 -51 -148 -70l-14 -76h-132l14 78q-74 22 -117 75.5t-43 134.5q0 110 68 189t182 109l13 77h132l-13 -76q69 -16 114 -69l-98 -89q-29 36 -97 36q-57 0 -106 -45t-49 -108q0 -49 32 -80t77 -31q66 0 114 47z" />
    <glyph glyph-name="sterling" unicode="&#xa3;" horiz-adv-x="660" 
d="M287 434q0 -18 2 -44h198l-22 -125h-170q-7 -37 -28.5 -77t-55.5 -47h377l-25 -141h-561l25 142q51 1 76.5 33.5t38.5 89.5h-93l22 125h69q-3 22 -3 50q0 117 81.5 194.5t216.5 77.5q112 0 167 -57.5t34 -162.5h-135q7 45 -18.5 65t-71.5 20q-50 0 -87 -37t-37 -106z" />
    <glyph glyph-name="currency" unicode="&#xa4;" horiz-adv-x="622" 
d="M295 213q54 0 85.5 33.5t31.5 86.5q0 37 -21 58.5t-61 21.5q-49 0 -83 -33t-34 -85q0 -37 22.5 -59.5t59.5 -22.5zM189 118l-67 -59l-90 108l67 56q-19 87 37 177l-53 59l129 109l47 -58q45 13 93 13q44 0 84 -15l71 60l88 -109l-68 -57q21 -91 -29 -179l46 -56
l-125 -106l-49 57q-40 -13 -94 -13q-45 0 -87 13z" />
    <glyph glyph-name="yen" unicode="&#xa5;" horiz-adv-x="764" 
d="M113 102l19 107h150l10 58h-150l19 107h94l-157 318l1 8h176l63 -142l57 -145l111 144l118 143h179l-1 -8l-279 -318h92l-19 -107h-151l-10 -58h151l-19 -107h-151l-18 -102h-153l18 102h-150z" />
    <glyph glyph-name="brokenbar" unicode="&#xa6;" horiz-adv-x="293" 
d="M227 341h-146l66 370h146zM70 279h146l-65 -371h-146z" />
    <glyph glyph-name="section" unicode="&#xa7;" horiz-adv-x="616" 
d="M12 81l91 90q36 -41 75.5 -57t91.5 -16q130 2 130 53q0 37 -110 35q-48 -1 -90.5 7.5t-77.5 26t-51 49t-6 73.5q7 29 30.5 56.5t62.5 40.5q-52 19 -52 89q0 51 29.5 88t76.5 56t93.5 27t92.5 8q62 0 121.5 -20t89.5 -63l-99 -71q-49 41 -135 42q-54 1 -92 -11.5
t-38 -39.5q0 -40 106 -40q31 0 58 -2.5t57.5 -8.5t51 -17t38.5 -28.5t20.5 -42.5t-3.5 -58q-9 -29 -33.5 -56t-58.5 -40q68 -32 56 -104q-9 -49 -42.5 -84t-80 -51.5t-88 -23.5t-81.5 -7q-76 0 -138 25.5t-95 74.5zM437 352q0 23 -30.5 35t-74.5 13q-51 1 -90.5 -14
t-39.5 -42q0 -22 29 -34.5t73 -13.5t88.5 12t44.5 44z" />
    <glyph glyph-name="dieresis" unicode="&#xa8;" horiz-adv-x="526" 
d="M172 634q0 44 29.5 68.5t67.5 24.5q28 0 46.5 -17.5t18.5 -48.5q0 -43 -29.5 -67t-67.5 -24q-28 0 -46.5 17t-18.5 47zM432 636q0 43 30 67t68 24q27 0 45.5 -17.5t18.5 -48.5q0 -37 -27.5 -64t-65.5 -27q-30 0 -49.5 17.5t-19.5 48.5z" />
    <glyph glyph-name="copyright" unicode="&#xa9;" horiz-adv-x="832" 
d="M495 721q148 0 228 -83t80 -217q0 -183 -120.5 -306.5t-316.5 -123.5q-148 0 -232 84.5t-84 219.5q0 176 127 301t318 125zM239 321q0 -73 47.5 -115.5t118.5 -42.5q91 0 168 65l-56 68q-39 -33 -86 -33q-36 0 -60.5 19.5t-24.5 55.5q0 53 35 81.5t83 28.5q45 0 73 -30
l78 66q-53 63 -139 63q-97 0 -167 -63.5t-70 -162.5zM161 308q0 -99 60 -159.5t163 -60.5q139 0 224 89.5t85 230.5q0 99 -56 157t-159 58q-136 0 -226.5 -90t-90.5 -225z" />
    <glyph glyph-name="ordfeminine" unicode="&#xaa;" horiz-adv-x="438" 
d="M350 661l14 39h101l-57 -323h-104l4 47q-18 -27 -48.5 -41.5t-60.5 -14.5q-60 0 -100 35.5t-40 101.5q0 97 58 150.5t146 53.5q31 0 55 -13t32 -35zM258 612q-35 0 -61 -23.5t-27 -63.5q-1 -28 16 -43.5t43 -15.5q51 0 75 48q23 43 2 75q-15 23 -48 23zM23 217l17 98h364
l-17 -98h-364z" />
    <glyph glyph-name="guillemotleft" unicode="&#xab;" horiz-adv-x="564" 
d="M31 297l178 222h153v1l-178 -223q73 -169 100 -223h-153zM237 297l178 222h154v1l-178 -223l100 -223h-154z" />
    <glyph glyph-name="logicalnot" unicode="&#xac;" horiz-adv-x="542" 
d="M487 388l-43 -244h-121l22 124h-288l21 120h409z" />
    <glyph glyph-name="registered" unicode="&#xae;" horiz-adv-x="833" 
d="M568 170l-60 129q36 10 61.5 37t32 59.5t-0.5 63.5t-38.5 52t-80.5 21h-166l-64 -362h103l19 108h42l41 -108h111zM401 443h69q28 0 31 -28q4 -30 -20 -46q-12 -7 -24 -7h-70zM495 721q148 0 228 -83t80 -217q0 -185 -118 -307.5t-319 -122.5q-148 0 -232 84.5t-84 219.5
q0 178 124.5 302t320.5 124zM159 308q-3 -99 55 -159.5t161 -60.5q139 0 226.5 89.5t92.5 230.5q3 99 -51 157t-157 58q-146 0 -234.5 -88.5t-92.5 -226.5z" />
    <glyph glyph-name="macron" unicode="&#xaf;" horiz-adv-x="453" 
d="M153 583l21 119h359l-21 -119h-359z" />
    <glyph glyph-name="degree" unicode="&#xb0;" horiz-adv-x="366" 
d="M242 633q-34 0 -54 -21t-20 -47q0 -20 13.5 -34.5t38.5 -14.5q33 0 53.5 20.5t20.5 46.5q0 21 -13.5 35.5t-38.5 14.5zM255 710q59 0 90 -33t31 -82q0 -60 -47 -107.5t-123 -47.5q-58 0 -89 32.5t-31 80.5q0 61 46 109t123 48z" />
    <glyph glyph-name="plusminus" unicode="&#xb1;" horiz-adv-x="544" 
d="M65 312l24 135h140l25 143h140l-25 -143h140l-24 -135h-140l-25 -142h-140l25 142h-140zM10 11l22 126h424l-22 -126h-424z" />
    <glyph glyph-name="twosuperior" unicode="&#xb2;" horiz-adv-x="377" 
d="M197 649h-98q11 54 60.5 85.5t108.5 31.5q62 0 99 -26.5t37 -76.5q0 -48 -23.5 -78t-58 -41.5t-69.5 -18.5t-61 -16.5t-29 -26.5h207l-17 -96h-302l17 96q7 41 33.5 66.5t59.5 35t64.5 16t53 17.5t21.5 30q0 20 -21.5 28t-46.5 0t-35 -26z" />
    <glyph glyph-name="threesuperior" unicode="&#xb3;" horiz-adv-x="384" 
d="M231 538h-58l14 75h54q62 0 62 39q0 27 -50 29q-55 2 -65 -28h-89q10 55 60.5 84t110.5 29q54 0 94 -27t40 -76q0 -63 -62 -88q21 -7 33 -26t12 -43q0 -37 -17.5 -63.5t-46.5 -40t-58.5 -19.5t-62.5 -6q-61 0 -104.5 30t-33.5 87h105q-1 -15 12.5 -21.5t35.5 -6.5
q25 0 44.5 10.5t19.5 30.5q0 31 -50 31z" />
    <glyph glyph-name="acute" unicode="&#xb4;" horiz-adv-x="278" 
d="M380 698l-1 -6l-141 -141h-126l1 7l99 140h168z" />
    <glyph glyph-name="paragraph" unicode="&#xb6;" horiz-adv-x="860" 
d="M472 552l-135 -764h-157l70 400q-135 10 -180 111q-40 89 6 197q46 109 150 165q73 39 160 39h500l-26 -148h-85l-135 -764h-157l135 764h-146z" />
    <glyph glyph-name="periodcentered" unicode="&#xb7;" horiz-adv-x="278" 
d="M50 283q0 46 32 73t73 27q31 0 51.5 -18.5t20.5 -52.5q0 -48 -32 -74t-74 -26q-30 0 -50.5 18.5t-20.5 52.5z" />
    <glyph glyph-name="cedilla" unicode="&#xb8;" horiz-adv-x="364" 
d="M20 -179l70 56q20 -32 65 -34q37 -2 49 28q8 18 -5 31.5t-34.5 14t-42.5 -11.5l-28 24l52 96h103l-26 -49q63 -3 82 -41.5t5 -84.5q-17 -54 -65.5 -78.5t-105.5 -21.5q-40 2 -72.5 21t-46.5 50z" />
    <glyph glyph-name="onesuperior" unicode="&#xb9;" horiz-adv-x="283" 
d="M51 387l15 87h62l31 172l-54 -11l15 84l159 40l-51 -285h64l-15 -87h-226z" />
    <glyph glyph-name="ordmasculine" unicode="&#xba;" horiz-adv-x="425" 
d="M20 218l17 99h356l-17 -99h-356zM223 365q-71 0 -114 36.5t-43 104.5q0 96 62 149.5t156 53.5q72 0 114 -35.5t42 -103.5q0 -96 -61.5 -150.5t-155.5 -54.5zM241 466q35 0 61 23t26 63q0 28 -17.5 44t-44.5 16q-34 0 -61 -24t-27 -62q0 -29 18 -44.5t45 -15.5z" />
    <glyph glyph-name="guillemotright" unicode="&#xbb;" horiz-adv-x="564" 
d="M433 521l100 -222l-178 -222h-154l178 222l-100 223v-1h154zM228 521l100 -222l-178 -222h-153l178 222l-100 223v-1h153z" />
    <glyph glyph-name="onequarter" unicode="&#xbc;" horiz-adv-x="805" 
d="M608 370h130l-39 -222h45l-15 -87h-45l-11 -61h-96l11 61h-197l11 86zM603 148l22 125l-121 -125h99zM202 -1h-120l515 709h122zM50 330l16 88h62l30 171l-55 -11l15 84l160 40l-50 -284h63l-16 -88h-225z" />
    <glyph glyph-name="onehalf" unicode="&#xbd;" horiz-adv-x="822" 
d="M201 -2h-120l515 710h122zM48 329l16 88h62l30 172l-54 -12l15 85l159 40l-50 -285h64l-16 -88h-226zM571 258h-98q11 54 60.5 85.5t108.5 31.5q62 0 99 -26.5t37 -76.5q0 -48 -23.5 -78t-58 -41.5t-69 -18.5t-61 -16.5t-29.5 -26.5h207l-17 -96h-302l17 96
q7 41 33.5 66.5t59.5 35t64.5 16t53 17.5t21.5 30q0 20 -22.5 27t-48 -0.5t-32.5 -24.5z" />
    <glyph glyph-name="threequarters" unicode="&#xbe;" horiz-adv-x="842" 
d="M225 495h-55l12 72h51q31 0 42.5 5t16.5 27v5.5t-3 8t-7 8.5t-14 7t-23 3q-25 0 -38.5 -5t-22.5 -21h-87q9 53 58.5 80.5t106.5 27.5q52 0 90.5 -26t38.5 -74q0 -25 -16 -50t-41 -32q19 -6 29.5 -24t10.5 -38q0 -64 -56.5 -96t-124.5 -32q-58 0 -98 28.5t-31 83.5h100
q13 -25 49 -25q24 0 41.5 9.5t17.5 26.5q0 31 -47 31zM244 -6h-121l519 714h122zM646 370h130l-39 -222h45l-15 -87h-45l-11 -61h-96l11 61h-197l11 86zM641 148l22 125l-121 -125h99z" />
    <glyph glyph-name="questiondown" unicode="&#xbf;" horiz-adv-x="578" 
d="M337 520q60 0 74 -49q13 -46 -21 -88q-33 -41 -87 -40q-63 1 -76 51q-12 46 24 87q33 39 86 39zM500 17h-157q-21 -87 -118 -87q-40 0 -62 17t-21 44q1 18 6 31.5t18.5 25.5t23 18t34.5 19t36 20q107 61 114 185h-155q-2 -36 -11.5 -55.5t-38.5 -41.5q-21 -15 -55.5 -37
t-54 -36.5t-41.5 -36t-32 -49t-11 -63.5q-1 -79 61.5 -127t164.5 -48q262 0 299 221z" />
    <glyph glyph-name="Agrave" unicode="&#xc0;" horiz-adv-x="791" 
d="M582 0l-30 120h-359l-72 -120h-174l437 700h170l191 -700h-163zM517 258l-69 287l-172 -287h241zM330 898l1 6h168l49 -140l-1 -7h-126z" />
    <glyph glyph-name="Aacute" unicode="&#xc1;" horiz-adv-x="791" 
d="M552 120l30 -120h163l-191 700h-170l-437 -700h174l72 120h359zM448 545l69 -287h-241zM672 904l-1 -6l-141 -141h-126l1 7l99 140h168z" />
    <glyph glyph-name="Acircumflex" unicode="&#xc2;" horiz-adv-x="791" 
d="M552 120l30 -120h163l-191 700h-170l-437 -700h174l72 120h359zM448 545l69 -287h-241zM468 907h75l124 -140l-1 -5h-140l-40 42l-53 -42h-141l1 5z" />
    <glyph glyph-name="Atilde" unicode="&#xc3;" horiz-adv-x="791" 
d="M582 0l-30 120h-359l-72 -120h-174l437 700h170l191 -700h-163zM517 258l-69 287l-172 -287h241zM374 754l-76 50q72 113 161 90q10 -3 41 -19t48.5 -12.5t33.5 32.5l81 -44q-73 -120 -155 -90q-12 4 -30 13t-28.5 13t-24.5 5.5t-26.5 -8.5t-24.5 -30z" />
    <glyph glyph-name="Adieresis" unicode="&#xc4;" horiz-adv-x="791" 
d="M552 120l30 -120h163l-191 700h-170l-437 -700h174l72 120h359zM448 545l69 -287h-241zM288 822q0 44 29.5 68.5t67.5 24.5q28 0 46.5 -17.5t18.5 -48.5q0 -43 -29.5 -67t-67.5 -24q-28 0 -46.5 17t-18.5 47zM548 824q0 43 30 67t68 24q27 0 45.5 -17.5t18.5 -48.5
q0 -37 -27.5 -64t-65.5 -27q-30 0 -49.5 17.5t-19.5 48.5z" />
    <glyph glyph-name="Aring" unicode="&#xc5;" horiz-adv-x="791" 
d="M343 781q0 68 51.5 108t115.5 40q49 0 83.5 -28.5t34.5 -79.5q0 -78 -74 -124l191 -697h-166l-32 120h-351l-76 -120h-173l436 697q-40 28 -40 84zM285 265h225l-30 122q-22 80 -30 182q-47 -107 -95 -186zM493 851q-45 0 -61 -36q-15 -32 9 -51q14 -10 35 -10
q46 0 61 36q14 30 -9 50q-13 11 -35 11z" />
    <glyph glyph-name="AE" unicode="&#xc6;" horiz-adv-x="898" 
d="M827 138l-24 -138h-409l19 109h-222l-82 -109h-182l546 700h437l-24 -136h-253l-25 -144h236l-23 -132h-236l-27 -150h269zM295 246h142l51 254z" />
    <glyph glyph-name="Ccedilla" unicode="&#xc7;" horiz-adv-x="698" 
d="M156 -203l70 51q16 -24 57 -30t57 24q8 18 -5 31.5t-34.5 14t-42.5 -11.5l-27 24l47 88q-120 19 -178 98.5t-58 192.5q0 79 30 156t84.5 140t141 102t191.5 39q147 0 237 -108l-115 -97q-48 58 -148 58q-64 0 -116 -25t-83.5 -64t-48 -84.5t-16.5 -89.5
q0 -75 44.5 -127.5t140.5 -52.5q44 0 96.5 18.5t87.5 48.5l78 -108q-115 -97 -268 -103l-18 -35q63 -3 81 -38.5t4 -81.5q-20 -64 -82 -88.5t-123.5 -6t-83.5 64.5z" />
    <glyph glyph-name="Egrave" unicode="&#xc8;" horiz-adv-x="656" 
d="M585 144l-25 -144h-533q21 116 62 349.5t61 350.5h519l-25 -143h-366l-24 -135h345l-24 -137h-345l-25 -141h380zM284 909l1 6h168l49 -140l-1 -7h-126z" />
    <glyph glyph-name="Eacute" unicode="&#xc9;" horiz-adv-x="656" 
d="M560 0l25 144h-380l25 141h345l24 137h-345l24 135h366l25 143h-519q-20 -117 -61 -350.5t-62 -349.5h533zM617 915l-1 -6l-141 -141h-126l1 7l99 140h168z" />
    <glyph glyph-name="Ecircumflex" unicode="&#xca;" horiz-adv-x="656" 
d="M560 0l25 144h-380l25 141h345l24 137h-345l24 135h366l25 143h-519q-20 -117 -61 -350.5t-62 -349.5h533zM419 913h75l124 -140l-1 -5h-140l-40 42l-53 -42h-141l1 5z" />
    <glyph glyph-name="Edieresis" unicode="&#xcb;" horiz-adv-x="656" 
d="M560 0l25 144h-380l25 141h345l24 137h-345l24 135h366l25 143h-519q-20 -117 -61 -350.5t-62 -349.5h533zM240 825q0 42 29 65.5t67 23.5q28 0 46.5 -16.5t18.5 -46.5q0 -41 -29.5 -64t-67.5 -23q-28 0 -46 16t-18 45zM499 827q0 41 30 64t68 23q27 0 45.5 -17t18.5 -46
q0 -35 -27.5 -61t-65.5 -26q-30 0 -49.5 17t-19.5 46z" />
    <glyph glyph-name="Igrave" unicode="&#xcc;" horiz-adv-x="313" 
d="M182 0h-155l123 700h155zM93 903l1 6h168l49 -140l-1 -7h-126z" />
    <glyph glyph-name="Iacute" unicode="&#xcd;" horiz-adv-x="313" 
d="M27 0h155l123 700h-155zM434 905l-1 -6l-141 -141h-126l1 7l99 140h168z" />
    <glyph glyph-name="Icircumflex" unicode="&#xce;" horiz-adv-x="313" 
d="M27 0h155l123 700h-155zM229 910h75l124 -140l-1 -5h-140l-40 42l-53 -42h-141l1 5z" />
    <glyph glyph-name="Idieresis" unicode="&#xcf;" horiz-adv-x="313" 
d="M54 825q0 44 30 68.5t68 24.5q27 0 45.5 -17.5t18.5 -48.5q0 -43 -29.5 -67t-67.5 -24q-28 0 -46.5 17t-18.5 47zM297 827q0 43 30 67t68 24q27 0 45 -17.5t18 -48.5q0 -37 -27.5 -64t-65.5 -27q-29 0 -48.5 17.5t-19.5 48.5zM27 0h155l123 700h-155z" />
    <glyph glyph-name="Eth" unicode="&#xd0;" horiz-adv-x="764" 
d="M11 286l22 125h78l51 289h265q150 0 231.5 -78.5t81.5 -204.5q0 -81 -28 -155t-81 -133t-137.5 -94t-189.5 -35h-265l50 286h-78zM238 286l-26 -148h116q106 0 169.5 58.5t82.5 164.5q19 102 -27 153.5t-150 51.5h-116l-27 -155h126l-22 -125h-126z" />
    <glyph glyph-name="Ntilde" unicode="&#xd1;" horiz-adv-x="792" 
d="M284 700l273 -455l29 220l41 235h157l-123 -700h-134l-269 448l-35 -230l-38 -218h-158l123 700h134zM366 760l-81 53q78 119 171 95q12 -3 28.5 -11.5t28.5 -14t25.5 -7.5t25 6t22.5 28l86 -47q-77 -127 -164 -95q-13 4 -32 14t-30.5 14t-26 5.5t-27.5 -8.5t-26 -32z
" />
    <glyph glyph-name="Ograve" unicode="&#xd2;" horiz-adv-x="838" 
d="M814 415q0 -193 -128 -312.5t-322 -119.5q-148 0 -234.5 81t-86.5 221q0 194 128 313t322 119q148 0 234.5 -81t86.5 -221zM653 350q18 98 -33.5 162.5t-151.5 64.5q-111 0 -190 -78t-79 -186q0 -84 51 -136.5t138 -52.5q101 0 174.5 63.5t90.5 162.5zM360 919l1 6h168
l49 -140l-1 -7h-126z" />
    <glyph glyph-name="Oacute" unicode="&#xd3;" horiz-adv-x="838" 
d="M814 415q0 140 -86.5 221t-234.5 81q-194 0 -322 -119t-128 -313q0 -140 86.5 -221t234.5 -81q194 0 322 119.5t128 312.5zM653 350q-17 -99 -90.5 -162.5t-174.5 -63.5q-87 0 -138 52.5t-51 136.5q0 108 79 186t190 78q100 0 151.5 -64.5t33.5 -162.5zM711 922l-1 -6
l-141 -141h-126l1 7l99 140h168z" />
    <glyph glyph-name="Ocircumflex" unicode="&#xd4;" horiz-adv-x="838" 
d="M814 415q0 140 -86.5 221t-234.5 81q-194 0 -322 -119t-128 -313q0 -140 86.5 -221t234.5 -81q194 0 322 119.5t128 312.5zM653 350q-17 -99 -90.5 -162.5t-174.5 -63.5q-87 0 -138 52.5t-51 136.5q0 108 79 186t190 78q100 0 151.5 -64.5t33.5 -162.5zM502 920h80
l131 -142l-1 -5h-148l-43 42l-56 -42h-150l1 5z" />
    <glyph glyph-name="Otilde" unicode="&#xd5;" horiz-adv-x="838" 
d="M814 415q0 -193 -128 -312.5t-322 -119.5q-148 0 -234.5 81t-86.5 221q0 194 128 313t322 119q148 0 234.5 -81t86.5 -221zM653 350q18 98 -33.5 162.5t-151.5 64.5q-111 0 -190 -78t-79 -186q0 -84 51 -136.5t138 -52.5q101 0 174.5 63.5t90.5 162.5zM404 771l-80 52
q76 118 169 95q12 -3 28.5 -11.5t28 -14t24.5 -7.5t25 6t22 28l85 -47q-76 -126 -162 -94q-13 4 -31.5 13.5t-30 14t-25.5 5.5t-27 -9t-26 -31z" />
    <glyph glyph-name="Odieresis" unicode="&#xd6;" horiz-adv-x="838" 
d="M814 415q0 140 -86.5 221t-234.5 81q-194 0 -322 -119t-128 -313q0 -140 86.5 -221t234.5 -81q194 0 322 119.5t128 312.5zM653 350q-17 -99 -90.5 -162.5t-174.5 -63.5q-87 0 -138 52.5t-51 136.5q0 108 79 186t190 78q100 0 151.5 -64.5t33.5 -162.5zM308 832
q0 44 29.5 68.5t67.5 24.5q28 0 46.5 -17.5t18.5 -48.5q0 -43 -29.5 -67t-67.5 -24q-28 0 -46.5 17t-18.5 47zM568 834q0 43 30 67t68 24q27 0 45.5 -17.5t18.5 -48.5q0 -37 -27.5 -64t-65.5 -27q-30 0 -49.5 17.5t-19.5 48.5z" />
    <glyph glyph-name="multiply" unicode="&#xd7;" horiz-adv-x="461" 
d="M184 495l68 -89l105 89l73 -89l-109 -94l76 -91l-104 -85l-74 90l-103 -90l-77 92l104 87l-71 88z" />
    <glyph glyph-name="Oslash" unicode="&#xd8;" horiz-adv-x="802" 
d="M476 715q61 0 123 -19l57 71h150l-106 -135q51 -53 69 -129t3 -158q-13 -70 -46 -133t-84.5 -115t-128 -83t-166.5 -31q-81 0 -140 24l-61 -77h-149l112 142q-67 77 -67 210q0 77 29.5 153.5t83 139t138 101.5t183.5 39zM372 125q106 0 167 63.5t79 153.5q19 97 -20 162
l-293 -372q33 -7 67 -7zM452 574q-62 0 -112 -25.5t-80 -66.5t-46 -88.5t-16 -94.5q0 -56 13 -94l290 365q-32 4 -49 4z" />
    <glyph glyph-name="Ugrave" unicode="&#xd9;" horiz-adv-x="775" 
d="M622 699h155l-69 -391q-28 -155 -123.5 -240t-240.5 -85q-71 0 -126.5 19.5t-94.5 58t-53.5 102t0.5 145.5l69 391h155l-69 -391q-17 -94 19.5 -141.5t122.5 -43.5q78 4 124.5 53.5t61.5 131.5zM324 906l1 6h168l49 -140l-1 -7h-126z" />
    <glyph glyph-name="Uacute" unicode="&#xda;" horiz-adv-x="775" 
d="M777 699h-155l-69 -391q-15 -82 -61.5 -131.5t-124.5 -53.5q-86 -4 -122.5 43.5t-19.5 141.5l69 391h-155l-69 -391q-15 -82 -0.5 -145.5t53.5 -102t94.5 -58t126.5 -19.5q145 0 240.5 85t123.5 240zM668 909l-1 -6l-141 -141h-126l1 7l99 140h168z" />
    <glyph glyph-name="Ucircumflex" unicode="&#xdb;" horiz-adv-x="775" 
d="M777 699h-155l-69 -391q-15 -82 -61.5 -131.5t-124.5 -53.5q-86 -4 -122.5 43.5t-19.5 141.5l69 391h-155l-69 -391q-15 -82 -0.5 -145.5t53.5 -102t94.5 -58t126.5 -19.5q145 0 240.5 85t123.5 240zM460 913h79l130 -141l-1 -5h-147l-42 42l-56 -42h-148l1 5z" />
    <glyph glyph-name="Udieresis" unicode="&#xdc;" horiz-adv-x="775" 
d="M777 699h-155l-69 -391q-15 -82 -61.5 -131.5t-124.5 -53.5q-86 -4 -122.5 43.5t-19.5 141.5l69 391h-155l-69 -391q-15 -82 -0.5 -145.5t53.5 -102t94.5 -58t126.5 -19.5q145 0 240.5 85t123.5 240zM279 833q0 44 29.5 68.5t67.5 24.5q28 0 46.5 -17.5t18.5 -48.5
q0 -43 -29.5 -67t-67.5 -24q-28 0 -46.5 17t-18.5 47zM539 835q0 43 30 67t68 24q27 0 45.5 -17.5t18.5 -48.5q0 -37 -27.5 -64t-65.5 -27q-30 0 -49.5 17.5t-19.5 48.5z" />
    <glyph glyph-name="Yacute" unicode="&#xdd;" horiz-adv-x="705" 
d="M366 422l-119 278h-176l-1 -8l195 -414l-49 -278h156l49 278l353 414l1 8h-183zM625 913l-1 -6l-141 -141h-126l1 7l99 140h168z" />
    <glyph glyph-name="Thorn" unicode="&#xde;" horiz-adv-x="687" 
d="M27 0l124 699h154l-19 -112h166q145 0 202 -96q47 -80 11 -181q-36 -102 -135 -156q-72 -39 -162 -39h-165l-20 -115h-156zM261 445l-33 -191h165q77 0 113 57q31 47 8 90q-23 44 -88 44h-165z" />
    <glyph glyph-name="germandbls" unicode="&#xdf;" horiz-adv-x="636" 
d="M218 -1q4 21 10 59t10 60q35 -7 63.5 -7.5t48.5 5.5t35.5 14.5t24.5 21.5t15 24t8 24.5t3 21t1 14.5q0 47 -33 68.5t-84 21.5h-44l25 137h33q95 0 104 55q8 43 -41 57q-50 16 -99 -10q-37 -20 -45 -54q-32 -181 -59.5 -338.5t-30.5 -172.5h-154l90 513q19 108 130 164
q99 51 208 32q106 -18 143 -95q14 -30 14 -67q0 -52 -33.5 -95.5t-95.5 -57.5q61 -13 93 -54t32 -94q0 -64 -20 -113t-55 -78.5t-82.5 -47t-101.5 -17.5t-113 9z" />
    <glyph glyph-name="agrave" unicode="&#xe0;" horiz-adv-x="641" 
d="M465 437l15 57h135q-15 -82 -44 -247t-43 -247h-130l3 62q-29 -36 -76 -54t-89 -19q-98 -1 -156.5 55.5t-58.5 155.5q0 138 90.5 222.5t219.5 82.5q46 0 83.5 -19t50.5 -49zM323 378q-63 0 -109 -42.5t-46 -111.5q0 -50 30 -78.5t79 -28.5q65 0 110.5 45.5t45.5 102.5
q0 48 -28.5 80.5t-81.5 32.5zM224 709l1 6h168l49 -140l-1 -7h-126z" />
    <glyph glyph-name="aacute" unicode="&#xe1;" horiz-adv-x="641" 
d="M465 437q-13 30 -50.5 49t-83.5 19q-129 2 -219.5 -82.5t-90.5 -222.5q0 -99 58.5 -155.5t156.5 -55.5q42 1 89 19t76 54l-3 -62h130q14 82 43 247t44 247h-135zM323 378q53 0 81.5 -32.5t28.5 -80.5q0 -57 -45.5 -102.5t-110.5 -45.5q-49 0 -79 28.5t-30 78.5
q0 69 46 111.5t109 42.5zM550 715l-1 -6l-141 -141h-126l1 7l99 140h168z" />
    <glyph glyph-name="acircumflex" unicode="&#xe2;" horiz-adv-x="641" 
d="M465 437q-13 30 -50.5 49t-83.5 19q-129 2 -219.5 -82.5t-90.5 -222.5q0 -99 58.5 -155.5t156.5 -55.5q42 1 89 19t76 54l-3 -62h130q14 82 43 247t44 247h-135zM323 378q53 0 81.5 -32.5t28.5 -80.5q0 -57 -45.5 -102.5t-110.5 -45.5q-49 0 -79 28.5t-30 78.5
q0 69 46 111.5t109 42.5zM352 714h75l124 -140l-1 -5h-140l-40 42l-53 -42h-141l1 5z" />
    <glyph glyph-name="atilde" unicode="&#xe3;" horiz-adv-x="641" 
d="M262 575l-75 54q78 118 166 91q12 -4 33 -15.5t33.5 -17t29 0.5t29.5 30l80 -48q-75 -124 -158 -90q-12 4 -30.5 14t-29.5 14.5t-25 5.5t-27 -8.5t-26 -30.5zM465 437l15 57h135q-15 -82 -44 -247t-43 -247h-130l3 62q-29 -36 -76 -54t-89 -19q-98 -1 -156.5 55.5
t-58.5 155.5q0 138 90.5 222.5t219.5 82.5q46 0 83.5 -19t50.5 -49zM323 378q-63 0 -109 -42.5t-46 -111.5q0 -50 30 -78.5t79 -28.5q65 0 110.5 45.5t45.5 102.5q0 48 -28.5 80.5t-81.5 32.5z" />
    <glyph glyph-name="adieresis" unicode="&#xe4;" horiz-adv-x="641" 
d="M465 437q-13 30 -50.5 49t-83.5 19q-129 2 -219.5 -82.5t-90.5 -222.5q0 -99 58.5 -155.5t156.5 -55.5q42 1 89 19t76 54l-3 -62h130q14 82 43 247t44 247h-135zM323 378q53 0 81.5 -32.5t28.5 -80.5q0 -57 -45.5 -102.5t-110.5 -45.5q-49 0 -79 28.5t-30 78.5
q0 69 46 111.5t109 42.5zM199 633q0 42 28.5 65.5t65.5 23.5q26 0 44 -17t18 -46q0 -41 -28.5 -64.5t-64.5 -23.5q-27 0 -45 16t-18 46zM450 635q0 41 29 64t65 23q25 0 43 -17t18 -46q0 -35 -26.5 -61.5t-62.5 -26.5q-29 0 -47.5 17t-18.5 47z" />
    <glyph glyph-name="aring" unicode="&#xe5;" horiz-adv-x="641" 
d="M465 437l15 57h135q-15 -82 -44 -247t-43 -247h-130l3 62q-29 -36 -76 -54t-89 -19q-98 -1 -156.5 55.5t-58.5 155.5q0 138 90.5 222.5t219.5 82.5q46 0 83.5 -19t50.5 -49zM323 378q-63 0 -109 -42.5t-46 -111.5q0 -50 30 -78.5t79 -28.5q65 0 110.5 45.5t45.5 102.5
q0 48 -28.5 80.5t-81.5 32.5zM258 647q0 66 49 99.5t113 33.5q48 0 80.5 -23.5t32.5 -70.5q0 -62 -48 -97t-107 -35q-50 0 -85 22.5t-35 70.5zM405 713q-29 0 -46 -16t-17 -37q0 -16 12 -27.5t33 -11.5q29 0 46 16t17 36q0 17 -12 28.5t-33 11.5z" />
    <glyph glyph-name="ae" unicode="&#xe6;" horiz-adv-x="964" 
d="M916 205h-366q3 -45 37 -70t83 -25q75 0 129 41l61 -92q-82 -75 -212 -75q-105 0 -142 69l-15 -53h-105l10 62q-21 -35 -70 -54t-92 -19q-100 -1 -157 50t-57 153q0 74 26.5 134.5t70 99t97 59t109.5 20.5q100 0 138 -68l15 56h108l-9 -50q66 65 173 65q70 0 120 -36.5
t66.5 -103.5t-18.5 -163zM323 379q-64 0 -109.5 -42.5t-45.5 -113.5q0 -51 30 -80t78 -29q85 0 132 71q39 61 22 122q-18 64 -91 71zM572 311h230q1 36 -22.5 54.5t-59.5 18.5q-102 0 -148 -73z" />
    <glyph glyph-name="ccedilla" unicode="&#xe7;" horiz-adv-x="510" 
d="M59 -190l70 58q14 -22 55.5 -27.5t56.5 22.5q7 17 -5 30.5t-33 15t-46 -10.5l-25 19l45 79q-71 16 -113.5 67.5t-42.5 135.5q0 139 95.5 223t224.5 84q113 0 167 -68l-96 -91q-33 29 -88 29q-63 0 -109 -41.5t-46 -108.5q0 -48 30.5 -76.5t76.5 -28.5q26 0 56.5 10
t50.5 27l74 -94q-79 -66 -181 -75l-17 -28q46 -4 69 -24.5t21.5 -43.5t-5.5 -44q-20 -62 -78.5 -88.5t-119 -11t-87.5 60.5z" />
    <glyph glyph-name="egrave" unicode="&#xe8;" horiz-adv-x="576" 
d="M526 200h-363q-1 -38 30 -62.5t89 -24.5q83 0 135 39l65 -90q-87 -73 -225 -73q-114 0 -175 58t-61 157q0 132 87.5 217.5t224.5 85.5q131 0 186.5 -80t6.5 -227zM182 305h234q4 38 -26 58.5t-78 20.5q-44 0 -79 -21t-51 -58zM213 711l1 6h168l49 -140l-1 -7h-126z" />
    <glyph glyph-name="eacute" unicode="&#xe9;" horiz-adv-x="576" 
d="M526 200h-363q-1 -38 30 -62.5t89 -24.5q83 0 135 39l65 -90q-87 -73 -225 -73q-114 0 -175 58t-61 157q0 132 87.5 217.5t224.5 85.5q131 0 186.5 -80t6.5 -227zM182 305h234q4 38 -26 58.5t-78 20.5q-44 0 -79 -21t-51 -58zM545 712l-1 -6l-141 -141h-126l1 7l99 140
h168z" />
    <glyph glyph-name="ecircumflex" unicode="&#xea;" horiz-adv-x="576" 
d="M526 200h-363q-1 -38 30 -62.5t89 -24.5q83 0 135 39l65 -90q-87 -73 -225 -73q-114 0 -175 58t-61 157q0 132 87.5 217.5t224.5 85.5q131 0 186.5 -80t6.5 -227zM182 305h234q4 38 -26 58.5t-78 20.5q-44 0 -79 -21t-51 -58zM346 713h75l124 -140l-1 -5h-140l-40 42
l-53 -42h-141l1 5z" />
    <glyph glyph-name="edieresis" unicode="&#xeb;" horiz-adv-x="576" 
d="M169 625q0 40 28.5 63.5t64.5 23.5q26 0 45 -16.5t19 -45.5q0 -36 -27.5 -61.5t-66.5 -25.5q-27 0 -45 16.5t-18 45.5zM402 624q0 41 29 64.5t66 23.5q26 0 44 -16.5t18 -45.5q0 -40 -28.5 -63.5t-63.5 -23.5q-28 0 -46.5 16t-18.5 45zM526 200h-363q-1 -38 30 -62.5
t89 -24.5q83 0 135 39l65 -90q-87 -73 -225 -73q-114 0 -175 58t-61 157q0 132 87.5 217.5t224.5 85.5q131 0 186.5 -80t6.5 -227zM182 305h234q4 38 -26 58.5t-78 20.5q-44 0 -79 -21t-51 -58z" />
    <glyph glyph-name="igrave" unicode="&#xec;" horiz-adv-x="267" 
d="M72 693l1 6h157l24 -141l-1 -7h-124zM154 0h-145l87 494h145z" />
    <glyph glyph-name="iacute" unicode="&#xed;" horiz-adv-x="267" 
d="M337 699l-1 -6l-107 -142h-124l1 7l74 141h157zM9 0h145l87 494h-145z" />
    <glyph glyph-name="icircumflex" unicode="&#xee;" horiz-adv-x="267" 
d="M9 0h145l87 494h-145zM173 712h66l109 -150l-1 -5h-123l-36 44l-46 -44h-125l1 5z" />
    <glyph glyph-name="idieresis" unicode="&#xef;" horiz-adv-x="267" 
d="M19 620q0 40 27 63t61 23q27 0 45.5 -16t18.5 -45q0 -39 -27.5 -62t-61.5 -23q-28 0 -45.5 15.5t-17.5 44.5zM225 620q0 40 27 63t61 23q27 0 45.5 -16t18.5 -45q0 -39 -27.5 -62t-61.5 -23q-28 0 -45.5 15.5t-17.5 44.5zM9 0h145l87 494h-145z" />
    <glyph glyph-name="eth" unicode="&#xf0;" horiz-adv-x="581" 
d="M368 660l61 57l72 -67l-50 -47q66 -63 86.5 -159.5t-1.5 -193.5q-23 -119 -99.5 -188.5t-199.5 -69.5q-106 0 -161.5 60t-55.5 148q0 94 57 170.5t160 102.5q112 20 160 -20q-25 60 -87.5 95t-130.5 45l43 109q82 -12 146 -42zM259 119q51 0 86.5 33.5t48.5 86.5
q13 50 -13.5 84t-79.5 34q-58 0 -96.5 -42.5t-38.5 -94.5q0 -42 24.5 -71.5t68.5 -29.5z" />
    <glyph glyph-name="ntilde" unicode="&#xf1;" horiz-adv-x="616" 
d="M510 0h-145l46 261q20 115 -82 115q-49 1 -86.5 -35t-46.5 -86l-45 -255h-142l87 494h130l-6 -63q73 77 173 75q206 0 163 -244zM266 580l-73 49q69 110 155 88q11 -3 26 -11t26 -13t23 -7t23 6t20 26l78 -43q-70 -118 -149 -88q-11 4 -28.5 12.5t-28 12.5t-24 5t-25 -8
t-23.5 -29z" />
    <glyph glyph-name="ograve" unicode="&#xf2;" horiz-adv-x="607" 
d="M249 -11q-107 0 -168 59t-61 155q0 128 91 215t229 87q107 0 168.5 -60.5t61.5 -156.5q0 -128 -90 -213.5t-231 -85.5zM272 117q71 0 110.5 46t39.5 105q0 45 -26 76.5t-78 31.5q-69 0 -109.5 -47.5t-40.5 -104.5q0 -45 26 -76t78 -31zM203 704l1 6h168l49 -140l-1 -7
h-126z" />
    <glyph glyph-name="oacute" unicode="&#xf3;" horiz-adv-x="607" 
d="M249 -11q141 0 231 85.5t90 213.5q0 96 -61.5 156.5t-168.5 60.5q-138 0 -229 -87t-91 -215q0 -96 61 -155t168 -59zM272 117q-52 0 -78 31t-26 76q0 57 40.5 104.5t109.5 47.5q52 0 78 -31.5t26 -76.5q0 -59 -39.5 -105t-110.5 -46zM550 712l-1 -6l-141 -141h-126l1 7
l99 140h168z" />
    <glyph glyph-name="ocircumflex" unicode="&#xf4;" horiz-adv-x="607" 
d="M249 -11q141 0 231 85.5t90 213.5q0 96 -61.5 156.5t-168.5 60.5q-138 0 -229 -87t-91 -215q0 -96 61 -155t168 -59zM272 117q-52 0 -78 31t-26 76q0 57 40.5 104.5t109.5 47.5q52 0 78 -31.5t26 -76.5q0 -59 -39.5 -105t-110.5 -46zM339 714h75l124 -140l-1 -5h-140
l-40 42l-53 -42h-141l1 5z" />
    <glyph glyph-name="otilde" unicode="&#xf5;" horiz-adv-x="607" 
d="M249 -11q-107 0 -168 59t-61 155q0 128 91 215t229 87q107 0 168.5 -60.5t61.5 -156.5q0 -128 -90 -213.5t-231 -85.5zM272 117q71 0 110.5 46t39.5 105q0 45 -26 76.5t-78 31.5q-69 0 -109.5 -47.5t-40.5 -104.5q0 -45 26 -76t78 -31zM254 575l-76 50q72 113 161 90
q10 -3 41 -19t48.5 -12.5t33.5 32.5l81 -44q-73 -120 -155 -90q-12 4 -30 13t-28.5 13t-24.5 5.5t-26.5 -8.5t-24.5 -30z" />
    <glyph glyph-name="odieresis" unicode="&#xf6;" horiz-adv-x="607" 
d="M166 627q0 43 30 67.5t68 24.5q27 0 45.5 -17.5t18.5 -47.5q0 -43 -29 -67.5t-66 -24.5q-28 0 -47.5 17t-19.5 48zM404 627q0 43 30 67.5t67 24.5q27 0 46 -17.5t19 -48.5q0 -43 -29.5 -67t-67.5 -24q-28 0 -46.5 17.5t-18.5 47.5zM249 -11q141 0 231 85.5t90 213.5
q0 96 -61.5 156.5t-168.5 60.5q-138 0 -229 -87t-91 -215q0 -96 61 -155t168 -59zM272 117q-52 0 -78 31t-26 76q0 57 40.5 104.5t109.5 47.5q52 0 78 -31.5t26 -76.5q0 -59 -39.5 -105t-110.5 -46z" />
    <glyph glyph-name="divide" unicode="&#xf7;" horiz-adv-x="551" 
d="M61 382l-23 -129h460l23 129h-460zM166 119q0 44 29.5 68t68.5 24q27 0 45 -17.5t18 -48.5q0 -42 -28.5 -66.5t-64.5 -24.5q-29 0 -48.5 17t-19.5 48zM232 494q0 43 30 67.5t68 24.5q27 0 45 -17.5t18 -47.5q0 -43 -28.5 -67.5t-65.5 -24.5q-28 0 -47.5 17t-19.5 48z" />
    <glyph glyph-name="oslash" unicode="&#xf8;" horiz-adv-x="607" 
d="M250 -11q-47 0 -80 10l-41 -54h-126l77 101q-60 55 -60 157q0 128 91.5 215.5t229.5 87.5q43 0 82 -11l43 56h126l-81 -105q60 -57 60 -159q0 -127 -90 -212.5t-231 -85.5zM318 376q-69 0 -109 -47t-40 -105q0 -32 8 -51l155 202q-5 1 -14 1zM260 117h12q71 0 110.5 45.5
t39.5 104.5q0 32 -8 51z" />
    <glyph glyph-name="ugrave" unicode="&#xf9;" horiz-adv-x="617" 
d="M90 494h145l-46 -261q-20 -115 82 -115q49 -1 86.5 35t46.5 86l45 255h142l-87 -494h-130l6 65q-70 -77 -173 -75q-206 0 -163 242zM213 700l1 6h168l49 -140l-1 -7h-126z" />
    <glyph glyph-name="uacute" unicode="&#xfa;" horiz-adv-x="617" 
d="M235 494h-145l-46 -262q-43 -242 163 -242q103 -2 173 75l-6 -65h130l87 494h-142l-45 -255q-9 -50 -46.5 -86t-86.5 -35q-102 0 -82 115zM542 710l-1 -6l-141 -141h-126l1 7l99 140h168z" />
    <glyph glyph-name="ucircumflex" unicode="&#xfb;" horiz-adv-x="617" 
d="M235 494h-145l-46 -262q-43 -242 163 -242q103 -2 173 75l-6 -65h130l87 494h-142l-45 -255q-9 -50 -46.5 -86t-86.5 -35q-102 0 -82 115zM340 712h75l124 -140l-1 -5h-140l-40 42l-53 -42h-141l1 5z" />
    <glyph glyph-name="udieresis" unicode="&#xfc;" horiz-adv-x="617" 
d="M235 494h-145l-46 -262q-43 -242 163 -242q103 -2 173 75l-6 -65h130l87 494h-142l-45 -255q-9 -50 -46.5 -86t-86.5 -35q-102 0 -82 115zM167 624q0 42 30 65t68 23q28 0 46.5 -16.5t18.5 -46.5q0 -41 -29.5 -63.5t-67.5 -22.5q-29 0 -47.5 16t-18.5 45zM428 626
q0 41 30 63.5t68 22.5q27 0 45.5 -17t18.5 -46q0 -35 -27.5 -60.5t-65.5 -25.5q-30 0 -49.5 17t-19.5 46z" />
    <glyph glyph-name="yacute" unicode="&#xfd;" horiz-adv-x="614" 
d="M232 494h-144l-45 -253q-21 -116 23 -182.5t132 -66.5q61 0 98 11.5t78 55.5l-13 -74q-9 -51 -47 -81t-79 -30q-45 0 -73 13.5t-27 52.5h-135q-4 -99 55 -148.5t160 -49.5q104 0 183 61.5t100 182.5l90 508h-143l-44 -247q-9 -51 -49.5 -88t-90.5 -37q-49 0 -65.5 33.5
t-7.5 86.5zM547 708l-1 -6l-141 -141h-126l1 7l99 140h168z" />
    <glyph glyph-name="thorn" unicode="&#xfe;" horiz-adv-x="642" 
d="M311 126q59 0 102 39t43 101q0 45 -29 72.5t-74 27.5q-54 0 -99.5 -41.5t-45.5 -94.5q0 -43 29.5 -73.5t73.5 -30.5zM117 -206h-144l160 906h144l-46 -259q27 31 72.5 47.5t83.5 16.5q99 1 157.5 -53t58.5 -155q0 -145 -85 -227.5t-216 -82.5q-40 0 -80 15.5t-59 50.5z
" />
    <glyph glyph-name="ydieresis" unicode="&#xff;" horiz-adv-x="614" 
d="M232 494h-144l-45 -253q-21 -116 23 -182.5t132 -66.5q61 0 98 11.5t78 55.5l-13 -74q-9 -51 -47 -81t-79 -30q-45 0 -73 13.5t-27 52.5h-135q-4 -99 55 -148.5t160 -49.5q104 0 183 61.5t100 182.5l90 508h-143l-44 -247q-9 -51 -49.5 -88t-90.5 -37q-49 0 -65.5 33.5
t-7.5 86.5zM158 623q0 44 29.5 68.5t67.5 24.5q28 0 46.5 -17.5t18.5 -48.5q0 -43 -29.5 -67t-67.5 -24q-28 0 -46.5 17t-18.5 47zM418 625q0 43 30 67t68 24q27 0 45.5 -17.5t18.5 -48.5q0 -37 -27.5 -64t-65.5 -27q-30 0 -49.5 17.5t-19.5 48.5z" />
    <glyph glyph-name="Amacron" unicode="&#x100;" horiz-adv-x="791" 
d="M582 0l-30 120h-359l-72 -120h-174l437 700h170l191 -700h-163zM517 258l-69 287l-172 -287h241zM302 763l21 119h359l-21 -119h-359z" />
    <glyph glyph-name="amacron" unicode="&#x101;" horiz-adv-x="641" 
d="M465 437l15 57h135q-15 -82 -44 -247t-43 -247h-130l3 62q-29 -36 -76 -54t-89 -19q-98 -1 -156.5 55.5t-58.5 155.5q0 138 90.5 222.5t219.5 82.5q46 0 83.5 -19t50.5 -49zM323 378q-63 0 -109 -42.5t-46 -111.5q0 -50 30 -78.5t79 -28.5q65 0 110.5 45.5t45.5 102.5
q0 48 -28.5 80.5t-81.5 32.5zM195 586l21 119h359l-21 -119h-359z" />
    <glyph glyph-name="Abreve" unicode="&#x102;" horiz-adv-x="791" 
d="M582 0l-30 120h-359l-72 -120h-174l437 700h170l191 -700h-163zM517 258l-69 287l-172 -287h241zM565 905h120q-10 -67 -64 -107.5t-129 -40.5q-79 0 -119.5 38t-18.5 110h121q-5 -23 8 -32.5t30 -9.5q44 0 52 42z" />
    <glyph glyph-name="abreve" unicode="&#x103;" horiz-adv-x="641" 
d="M465 437l15 57h135q-15 -82 -44 -247t-43 -247h-130l3 62q-29 -36 -76 -54t-89 -19q-98 -1 -156.5 55.5t-58.5 155.5q0 138 90.5 222.5t219.5 82.5q46 0 83.5 -19t50.5 -49zM323 378q-63 0 -109 -42.5t-46 -111.5q0 -50 30 -78.5t79 -28.5q65 0 110.5 45.5t45.5 102.5
q0 48 -28.5 80.5t-81.5 32.5zM461 714h118q-10 -65 -63 -104t-127 -39q-78 0 -118.5 37t-18.5 106h119q-5 -22 8 -31t30 -9q44 0 52 40z" />
    <glyph glyph-name="Aogonek" unicode="&#x104;" horiz-adv-x="793" 
d="M506 265l-68 259l-157 -259h225zM668 -69l61 -56q-47 -51 -116 -59q-49 -7 -87 8.5t-53.5 45t-14.5 63t28.5 66t75.5 51.5l-19 70h-351l-76 -120h-169l437 700h170l194 -700q-64 3 -114 -2q-41 -4 -53 -37q-10 -28 14 -41q11 -5 27 -4q20 2 46 15z" />
    <glyph glyph-name="aogonek" unicode="&#x105;" horiz-adv-x="642" 
d="M490 -120l61 -55q-41 -50 -118 -61q-57 -7 -101 18t-45 78q0 95 113 141l-2 61q-22 -36 -71.5 -58t-90.5 -22q-100 0 -157.5 53.5t-57.5 156.5q0 152 88.5 233t222.5 81q46 0 82.5 -19.5t49.5 -49.5l15 56h137l-97 -546q-29 7 -77 -5.5t-48 -51.5q0 -25 26.5 -30.5
t69.5 20.5zM325 379q-64 0 -110 -42.5t-46 -113.5q0 -51 30.5 -80t78.5 -29q80 0 125 71q39 61 22 123q-18 64 -87 70q-6 1 -13 1z" />
    <glyph glyph-name="Cacute" unicode="&#x106;" horiz-adv-x="697" 
d="M645 85l-78 108q-36 -30 -87.5 -48.5t-95.5 -18.5q-56 0 -96.5 19.5t-59 51t-27 70.5t0.5 77q15 88 82.5 157t177.5 69q103 0 150 -57l114 95q-91 108 -238 108q-107 0 -194 -38.5t-141 -102t-83 -140t-29 -156.5q0 -129 80 -213t237 -84q165 0 287 103zM669 912l-1 -6
l-140 -133h-125l1 7l98 132h167z" />
    <glyph glyph-name="cacute" unicode="&#x107;" horiz-adv-x="508" 
d="M456 65l-74 94q-20 -17 -50.5 -27t-56.5 -10q-46 0 -76.5 28t-30.5 76q0 67 46 108t109 41q55 0 88 -29l96 91q-54 68 -167 68q-83 0 -155 -35t-118.5 -106t-46.5 -165q0 -103 64 -156.5t166 -53.5q116 0 206 76zM499 699l-1 -5l-128 -125h-115l1 6l90 124h153z" />
    <glyph glyph-name="Ccircumflex" unicode="&#x108;" horiz-adv-x="697" 
d="M463 922h80l135 -141l-1 -5h-150l-43 42l-60 -42h-152l1 5zM645 85l-78 108q-36 -30 -87.5 -48.5t-95.5 -18.5q-56 0 -96.5 19.5t-59 51t-27 70.5t0.5 77q15 88 82.5 157t177.5 69q103 0 150 -57l114 95q-91 108 -238 108q-107 0 -194 -38.5t-141 -102t-83 -140
t-29 -156.5q0 -129 80 -213t237 -84q165 0 287 103z" />
    <glyph glyph-name="ccircumflex" unicode="&#x109;" horiz-adv-x="508" 
d="M456 65l-74 94q-20 -17 -50.5 -27t-56.5 -10q-46 0 -76.5 28t-30.5 76q0 67 46 108t109 41q55 0 88 -29l96 91q-54 68 -167 68q-83 0 -155 -35t-118.5 -106t-46.5 -165q0 -103 64 -156.5t166 -53.5q116 0 206 76zM325 705h72l118 -140l-1 -5h-134l-38 42l-50 -42h-134
l1 5z" />
    <glyph glyph-name="Cdotaccent" unicode="&#x10a;" horiz-adv-x="697" 
d="M645 85l-78 108q-36 -30 -87.5 -48.5t-95.5 -18.5q-56 0 -96.5 19.5t-59 51t-27 70.5t0.5 77q15 88 82.5 157t177.5 69q103 0 150 -57l114 95q-91 108 -238 108q-107 0 -194 -38.5t-141 -102t-83 -140t-29 -156.5q0 -129 80 -213t237 -84q165 0 287 103zM419 839
q0 42 30 65.5t69 23.5q31 0 52 -17t21 -47q0 -41 -31 -64.5t-70 -23.5q-31 0 -51 16.5t-20 46.5z" />
    <glyph glyph-name="cdotaccent" unicode="&#x10b;" horiz-adv-x="508" 
d="M456 65l-74 94q-20 -17 -50.5 -27t-56.5 -10q-46 0 -76.5 28t-30.5 76q0 67 46 108t109 41q55 0 88 -29l96 91q-54 68 -167 68q-83 0 -155 -35t-118.5 -106t-46.5 -165q0 -103 64 -156.5t166 -53.5q116 0 206 76zM268 629q0 38 28.5 59.5t65.5 21.5q30 0 49.5 -15
t19.5 -43q0 -37 -30 -58.5t-66 -21.5q-29 0 -48 15t-19 42z" />
    <glyph glyph-name="Ccaron" unicode="&#x10c;" horiz-adv-x="697" 
d="M645 85l-78 108q-36 -30 -87.5 -48.5t-95.5 -18.5q-56 0 -96.5 19.5t-59 51t-27 70.5t0.5 77q15 88 82.5 157t177.5 69q103 0 150 -57l114 95q-91 108 -238 108q-107 0 -194 -38.5t-141 -102t-83 -140t-29 -156.5q0 -129 80 -213t237 -84q165 0 287 103zM300 908l1 6h152
l41 -43l62 43h157l-1 -6l-195 -139h-81z" />
    <glyph glyph-name="ccaron" unicode="&#x10d;" horiz-adv-x="508" 
d="M456 65l-74 94q-20 -17 -50.5 -27t-56.5 -10q-46 0 -76.5 28t-30.5 76q0 67 46 108t109 41q55 0 88 -29l96 91q-54 68 -167 68q-83 0 -155 -35t-118.5 -106t-46.5 -165q0 -103 64 -156.5t166 -53.5q116 0 206 76zM185 690l1 6h128l35 -40l52 40h133l-1 -6l-165 -129h-69z
" />
    <glyph glyph-name="Dcaron" unicode="&#x10e;" horiz-adv-x="757" 
d="M437 700h-287l-123 -700h287q107 0 190 36.5t131 97.5t72 133t24 150q0 124 -73.5 203.5t-220.5 79.5zM206 144l74 415h133q85 0 124 -45.5t39 -115.5q0 -32 -6.5 -64.5t-23.5 -67t-42.5 -61.5t-68 -44t-96.5 -17h-133zM245 891l1 6h154l42 -40l62 40h160l-1 -6
l-198 -130h-83z" />
    <glyph glyph-name="dcaron" unicode="&#x10f;" horiz-adv-x="707" 
d="M315 374q-63 0 -104.5 -43t-41.5 -107q0 -46 26 -75t75 -29q63 0 110 36.5t47 110.5q0 50 -32.5 78.5t-79.5 28.5zM507 699h145l-123 -699h-129l2 63q-70 -72 -177 -72q-94 0 -149 57t-55 152q0 135 85 219.5t212 84.5q98 0 142 -70zM646 487l81 213h130l-112 -213h-99z
" />
    <glyph glyph-name="Dcroat" unicode="&#x110;" horiz-adv-x="763" 
d="M16 288l22 126h70l51 286h287q76 0 133.5 -24t91.5 -66t50.5 -93t16.5 -109q0 -59 -16.5 -117t-50.5 -111t-82.5 -93t-117.5 -63.5t-149 -23.5h-287l51 288h-70zM237 288l-25 -144h136q59 0 105.5 22t73.5 58t41 77.5t14 84.5q0 72 -39.5 121t-122.5 49h-136l-25 -142
h100l-22 -126h-100z" />
    <glyph glyph-name="dcroat" unicode="&#x111;" horiz-adv-x="639" 
d="M508 699h141l-10 -55h63l-17 -98h-63l-96 -546h-131l-1 56q-57 -68 -157 -68q-98 0 -156.5 57.5t-58.5 155.5q0 143 86 224t217 81q36 0 80 -19.5t57 -48.5l19 108h-99l17 98h99zM314 372q-59 0 -102 -41.5t-43 -103.5q0 -46 28 -76t73 -30q59 0 104.5 40.5t45.5 104.5
q0 47 -30.5 76.5t-75.5 29.5z" />
    <glyph glyph-name="Emacron" unicode="&#x112;" horiz-adv-x="656" 
d="M585 144l-25 -144h-533q21 116 62 349.5t61 350.5h519l-25 -143h-366l-24 -135h345l-24 -137h-345l-25 -141h380zM247 776l20 116h349l-21 -116h-348z" />
    <glyph glyph-name="emacron" unicode="&#x113;" horiz-adv-x="576" 
d="M526 200h-363q-1 -38 30 -62.5t89 -24.5q83 0 135 39l65 -90q-87 -73 -225 -73q-114 0 -175 58t-61 157q0 132 87.5 217.5t224.5 85.5q131 0 186.5 -80t6.5 -227zM182 305h234q4 38 -26 58.5t-78 20.5q-44 0 -79 -21t-51 -58zM182 584l19 110h320l-19 -110h-320z" />
    <glyph glyph-name="Ebreve" unicode="&#x114;" horiz-adv-x="656" 
d="M585 144l-25 -144h-533q21 116 62 349.5t61 350.5h519l-25 -143h-366l-24 -135h345l-24 -137h-345l-25 -141h380zM501 906h120q-10 -63 -64 -101.5t-129 -38.5q-79 0 -120 36.5t-19 103.5h121q-5 -22 8.5 -30.5t30.5 -8.5q44 0 52 39z" />
    <glyph glyph-name="ebreve" unicode="&#x115;" horiz-adv-x="576" 
d="M526 200h-363q-1 -38 30 -62.5t89 -24.5q83 0 135 39l65 -90q-87 -73 -225 -73q-114 0 -175 58t-61 157q0 132 87.5 217.5t224.5 85.5q131 0 186.5 -80t6.5 -227zM182 305h234q4 38 -26 58.5t-78 20.5q-44 0 -79 -21t-51 -58zM409 711h118q-10 -65 -63 -104.5t-126 -39.5
q-77 0 -117 37.5t-18 106.5h118q-5 -22 8 -31t30 -9q42 0 50 40z" />
    <glyph glyph-name="Edotaccent" unicode="&#x116;" horiz-adv-x="656" 
d="M560 0l25 144h-380l25 141h345l24 137h-345l24 135h366l25 143h-519q-20 -117 -61 -350.5t-62 -349.5h533zM366 831q0 41 30 64.5t70 23.5q32 0 53 -16.5t21 -46.5q0 -40 -31.5 -63.5t-70.5 -23.5q-31 0 -51.5 16.5t-20.5 45.5z" />
    <glyph glyph-name="edotaccent" unicode="&#x117;" horiz-adv-x="576" 
d="M526 200h-363q-1 -38 30 -62.5t89 -24.5q83 0 135 39l65 -90q-87 -73 -225 -73q-114 0 -175 58t-61 157q0 132 87.5 217.5t224.5 85.5q131 0 186.5 -80t6.5 -227zM182 305h234q4 38 -26 58.5t-78 20.5q-44 0 -79 -21t-51 -58zM288 633q0 40 27.5 62.5t63.5 22.5
q29 0 48.5 -16t19.5 -45q0 -39 -29 -61.5t-65 -22.5q-28 0 -46.5 15.5t-18.5 44.5z" />
    <glyph glyph-name="Eogonek" unicode="&#x118;" horiz-adv-x="670" 
d="M587 153l-27 -153q-133 19 -155 -45q-13 -37 37 -37q42 0 70 16l60 -56q-32 -41 -89.5 -60.5t-110 -12.5t-74.5 37q-16 26 -14 57t25 60.5t58 40.5h-340l123 700h536l-26 -151h-382l-23 -128h370l-25 -145h-370l-22 -123h379z" />
    <glyph glyph-name="eogonek" unicode="&#x119;" horiz-adv-x="580" 
d="M533 197h-367q-1 -36 28.5 -59t87.5 -23q31 0 67.5 10.5t57.5 26.5l75 -91q-46 -38 -110 -58q-29 -2 -46 -24t-11 -40t32.5 -19t65.5 23l61 -56q-64 -59 -155.5 -66t-117.5 46q-15 27 -5.5 62.5t41.5 58.5q-40 3 -73 13q-70 23 -106.5 76.5t-36.5 127.5q0 130 88.5 217.5
t228.5 87.5q131 0 183.5 -80.5t11.5 -232.5zM189 314h225q-2 74 -93 74q-86 0 -132 -74z" />
    <glyph glyph-name="Ecaron" unicode="&#x11a;" horiz-adv-x="656" 
d="M560 0l25 144h-380l25 141h345l24 137h-345l24 135h366l25 143h-519q-20 -117 -61 -350.5t-62 -349.5h533zM271 896l1 6h141l39 -40l57 40h146l-1 -6l-181 -127h-76z" />
    <glyph glyph-name="ecaron" unicode="&#x11b;" horiz-adv-x="576" 
d="M526 200h-363q-1 -38 30 -62.5t89 -24.5q83 0 135 39l65 -90q-87 -73 -225 -73q-114 0 -175 58t-61 157q0 132 87.5 217.5t224.5 85.5q131 0 186.5 -80t6.5 -227zM182 305h234q4 38 -26 58.5t-78 20.5q-44 0 -79 -21t-51 -58zM178 694l1 6h139l38 -39l57 39h145l-1 -6
l-180 -126h-75z" />
    <glyph glyph-name="Gcircumflex" unicode="&#x11c;" horiz-adv-x="744" 
d="M617 516l109 100q-70 105 -237 105q-89 0 -164 -24.5t-126 -66.5t-87 -98.5t-52.5 -119t-16.5 -129.5q0 -61 17.5 -113.5t53 -96t98 -68.5t145.5 -25q195 0 308 130l54 305h-302l-23 -130h167l-20 -112q-73 -49 -157 -49q-56 0 -95.5 16.5t-59 45t-27 58t-7.5 63.5
q1 122 76 196.5t193 74.5q44 0 85.5 -16t67.5 -46zM475 922h82l136 -138l-1 -5h-154l-44 42l-58 -42h-154l1 5z" />
    <glyph glyph-name="gcircumflex" unicode="&#x11d;" horiz-adv-x="644" 
d="M323 379q77 0 99 -64q20 -58 -17 -121q-40 -70 -118 -76h-11q-48 0 -78 27.5t-30 77.5q0 71 45.5 113.5t109.5 42.5zM132 -60h-143q-11 -94 54.5 -144.5t174.5 -50.5q126 0 208.5 60t104.5 182l85 506h-139l-15 -56q-13 30 -49 49.5t-82 19.5q-129 2 -219.5 -82
t-90.5 -224q0 -99 58.5 -157t155.5 -57q105 2 164 73l-12 -69q-10 -59 -53 -86.5t-96 -27.5q-46 0 -76.5 15.5t-29.5 48.5zM374 718h79l129 -147l-1 -5h-146l-42 44l-56 -44h-148l1 5z" />
    <glyph glyph-name="Gbreve" unicode="&#x11e;" horiz-adv-x="744" 
d="M726 616l-109 -100q-26 30 -67.5 46t-85.5 16q-118 0 -193 -74.5t-76 -196.5q0 -34 7.5 -63.5t27 -58t59 -45t95.5 -16.5q84 0 157 49l20 112h-167l23 130h302l-54 -305q-113 -130 -308 -130q-83 0 -145.5 25t-98 68.5t-53 96t-17.5 113.5q0 67 16.5 129.5t52.5 119
t87 98.5t126 66.5t164 24.5q167 0 237 -105zM560 923h122q-10 -67 -64.5 -107t-130.5 -40q-80 0 -121.5 38t-18.5 109h122q-5 -23 8.5 -32.5t30.5 -9.5q44 0 52 42z" />
    <glyph glyph-name="gbreve" unicode="&#x11f;" horiz-adv-x="644" 
d="M323 379q-64 0 -109.5 -42.5t-45.5 -113.5q0 -50 30 -77.5t78 -27.5q81 0 126 70q38 61 21 121q-18 64 -88 70h-12zM-11 -60h143q-1 -33 29.5 -48.5t76.5 -15.5q53 0 96 27.5t53 86.5l12 69q-59 -71 -164 -73q-97 -1 -155.5 57t-58.5 157q0 140 90.5 224t219.5 82
q46 0 82 -19.5t49 -49.5l15 56h139l-85 -506q-22 -122 -104.5 -182t-208.5 -60q-109 0 -174.5 50.5t-54.5 144.5zM450 716h122q-10 -66 -64.5 -106t-130.5 -40q-80 0 -121.5 37.5t-18.5 108.5h122q-5 -23 8.5 -32.5t30.5 -9.5q44 0 52 42z" />
    <glyph glyph-name="Gdotaccent" unicode="&#x120;" horiz-adv-x="744" 
d="M617 516l109 100q-70 105 -237 105q-89 0 -164 -24.5t-126 -66.5t-87 -98.5t-52.5 -119t-16.5 -129.5q0 -61 17.5 -113.5t53 -96t98 -68.5t145.5 -25q195 0 308 130l54 305h-302l-23 -130h167l-20 -112q-73 -49 -157 -49q-56 0 -95.5 16.5t-59 45t-27 58t-7.5 63.5
q1 122 76 196.5t193 74.5q44 0 85.5 -16t67.5 -46zM418 844q0 42 30 65.5t69 23.5q32 0 52.5 -16.5t20.5 -47.5q0 -41 -31 -64t-70 -23q-31 0 -51 16t-20 46z" />
    <glyph glyph-name="gdotaccent" unicode="&#x121;" horiz-adv-x="644" 
d="M323 379q77 0 99 -64q20 -58 -17 -121q-40 -70 -118 -76h-11q-48 0 -78 27.5t-30 77.5q0 71 45.5 113.5t109.5 42.5zM132 -60h-143q-11 -94 54.5 -144.5t174.5 -50.5q126 0 208.5 60t104.5 182l85 506h-139l-15 -56q-13 30 -49 49.5t-82 19.5q-129 2 -219.5 -82
t-90.5 -224q0 -99 58.5 -157t155.5 -57q105 2 164 73l-12 -69q-10 -59 -53 -86.5t-96 -27.5q-46 0 -76.5 15.5t-29.5 48.5zM305 637q0 39 29.5 62t68.5 23q32 0 52 -15.5t20 -45.5q0 -39 -31 -62t-69 -23q-30 0 -50 16t-20 45z" />
    <glyph glyph-name="Gcommaaccent" unicode="&#x122;" horiz-adv-x="744" 
d="M726 616l-109 -100q-26 30 -67.5 46t-85.5 16q-118 0 -193 -74.5t-76 -196.5q0 -34 7.5 -63.5t27 -58t59 -45t95.5 -16.5q84 0 157 49l20 112h-167l23 130h302l-54 -305q-113 -130 -308 -130q-83 0 -145.5 25t-98 68.5t-53 96t-17.5 113.5q0 67 16.5 129.5t52.5 119
t87 98.5t126 66.5t164 24.5q167 0 237 -105zM419 -126q0 -22 -9.5 -46.5t-34 -67t-32.5 -58.5h-78l34 101q-53 8 -44 57q6 35 34 54.5t62 19.5q29 0 48.5 -16t19.5 -44z" />
    <glyph glyph-name="gcommaaccent" unicode="&#x123;" horiz-adv-x="644" 
d="M298 649q4 21 15.5 44.5t32 58t29.5 50.5h81l-35 -97q28 0 40 -15.5t8 -38.5q-6 -39 -36 -59t-66 -20q-35 0 -55.5 21t-13.5 56zM323 379q77 0 99 -64q20 -58 -17 -121q-40 -70 -118 -76h-11q-48 0 -78 27.5t-30 77.5q0 71 45.5 113.5t109.5 42.5zM132 -60h-143
q-11 -94 54.5 -144.5t174.5 -50.5q126 0 208.5 60t104.5 182l85 506h-139l-15 -56q-13 30 -49 49.5t-82 19.5q-129 2 -219.5 -82t-90.5 -224q0 -99 58.5 -157t155.5 -57q105 2 164 73l-12 -69q-10 -59 -53 -86.5t-96 -27.5q-46 0 -76.5 15.5t-29.5 48.5z" />
    <glyph glyph-name="Hcircumflex" unicode="&#x124;" horiz-adv-x="781" 
d="M496 -1h154l123 700h-154l-49 -280h-313l49 280h-156l-123 -700h156l49 277h313zM459 916h73l121 -136l-1 -5h-136l-39 41l-52 -41h-137l1 5z" />
    <glyph glyph-name="hcircumflex" unicode="&#x125;" horiz-adv-x="608" 
d="M277 700h-145l-123 -700h144l44 250q10 57 47 89t84 32q43 0 64 -28t12 -79l-47 -264h144l47 265q42 237 -155 237q-97 0 -163 -69zM371 916h72l119 -135l-1 -5h-135l-38 41l-51 -41h-135l1 5z" />
    <glyph glyph-name="Hbar" unicode="&#x126;" horiz-adv-x="791" 
d="M655 -1h-154l48 272h-313l-48 -272h-156l91 516h-62l17 96h62l15 88h156l-15 -88h313l15 88h154l-15 -88h65l-17 -96h-65zM261 415h313l18 100h-313z" />
    <glyph glyph-name="hbar" unicode="&#x127;" horiz-adv-x="607" 
d="M48 548l17 96h58l9 56h145l-9 -56h102l-17 -96h-102l-21 -115q70 67 159 67q102 0 140 -65t17 -182l-45 -253h-144l44 252q10 60 -12 87.5t-65 27.5q-46 0 -82.5 -35.5t-45.5 -85.5l-43 -246h-144l97 548h-58z" />
    <glyph glyph-name="Itilde" unicode="&#x128;" horiz-adv-x="313" 
d="M182 0h-155l123 700h155zM145 775l-75 49q71 110 158 87q12 -3 32 -13t32.5 -15t28 1t27.5 28l79 -43q-72 -117 -152 -87q-11 4 -28.5 12.5t-28 12.5t-24 5t-25.5 -8t-24 -29z" />
    <glyph glyph-name="itilde" unicode="&#x129;" horiz-adv-x="267" 
d="M154 0h-145l87 494h145zM99 575l-63 48q60 108 133 86q9 -3 22 -10.5t22 -12.5t19.5 -7t20 5.5t17.5 25.5l66 -42q-60 -116 -127 -86q-10 4 -24.5 12.5t-23.5 12.5t-20.5 5t-21.5 -8t-20 -29z" />
    <glyph glyph-name="Imacron" unicode="&#x12a;" horiz-adv-x="313" 
d="M182 0h-155l123 700h155zM102 772l15 117h269l-16 -117h-268z" />
    <glyph glyph-name="imacron" unicode="&#x12b;" horiz-adv-x="267" 
d="M154 0h-145l87 494h145zM71 589l14 109h238l-13 -109h-239z" />
    <glyph glyph-name="Ibreve" unicode="&#x12c;" horiz-adv-x="313" 
d="M182 0h-155l123 700h155zM318 922h115q-10 -70 -61.5 -113t-123.5 -43q-76 0 -115 40.5t-18 115.5h116q-5 -24 8 -34t29 -10q42 0 50 44z" />
    <glyph glyph-name="ibreve" unicode="&#x12d;" horiz-adv-x="267" 
d="M154 0h-145l87 494h145zM239 699h102q-9 -66 -54.5 -106.5t-108.5 -40.5q-67 0 -102 38t-16 109h103q-5 -23 6.5 -32t25.5 -9q37 0 44 41z" />
    <glyph glyph-name="Iogonek" unicode="&#x12e;" horiz-adv-x="314" 
d="M170 -68l61 -56q-42 -42 -104 -57.5t-111.5 6.5t-54.5 79q-3 28 14 64t57 56l119 676h155l-123 -700q-50 4 -82.5 -17t-29.5 -44q2 -14 13.5 -22t34.5 -5.5t51 20.5z" />
    <glyph glyph-name="iogonek" unicode="&#x12f;" horiz-adv-x="269" 
d="M243 494h-144l-82 -467q-53 -23 -74.5 -62.5t-14.5 -80.5q6 -41 38.5 -57t84.5 -18q42 -2 83.5 16t68.5 52l-62 56q-29 -20 -57 -20q-17 1 -27 10t-10 21q0 34 36 47.5t73 8.5zM112 615q0 45 30.5 70t69.5 25q28 0 47.5 -18t19.5 -49q0 -44 -30 -69.5t-68 -25.5
q-29 0 -49 17.5t-20 49.5z" />
    <glyph glyph-name="Idotaccent" unicode="&#x130;" horiz-adv-x="313" 
d="M27 0h155l123 700h-155zM159 838q0 43 31.5 67t72.5 24q33 0 55 -17t22 -48q0 -41 -33 -65.5t-73 -24.5q-32 0 -53.5 17t-21.5 47z" />
    <glyph glyph-name="dotlessi" unicode="&#x131;" horiz-adv-x="267" 
d="M154 0h-145l87 494h145z" />
    <glyph glyph-name="IJ" unicode="&#x132;" horiz-adv-x="1029" 
d="M182 0h-155l123 700h155zM330 291h147q-12 -84 22.5 -121t112.5 -37q77 0 127.5 43.5t64.5 124.5l46 261h-193l24 138h350l-71 -400q-26 -146 -115 -229.5t-251 -83.5q-315 0 -264 304z" />
    <glyph glyph-name="ij" unicode="&#x133;" horiz-adv-x="532" 
d="M240 495h-144l-87 -495h144zM108 611q0 44 29.5 69.5t67.5 25.5q29 0 49.5 -17.5t20.5 -49.5q0 -43 -29.5 -68.5t-66.5 -26.5q-30 -1 -50.5 17t-20.5 50zM165 -84l-37 -118q41 -21 87.5 -18t86.5 21t71 64t41 111l92 519h-144l-92 -523q-9 -49 -38 -62.5t-67 6.5z
M375 611q0 44 29 69.5t68 25.5q29 0 49 -18t20 -49q0 -44 -30 -69.5t-68 -25.5q-29 0 -48.5 17.5t-19.5 49.5z" />
    <glyph glyph-name="Jcircumflex" unicode="&#x134;" horiz-adv-x="716" 
d="M164 291h-147q-51 -304 264 -304q162 0 251 83.5t115 229.5l71 400h-350l-24 -138h193l-46 -261q-14 -81 -64.5 -124.5t-127.5 -43.5q-78 0 -112.5 37t-22.5 121zM531 924h78l129 -147l-1 -5h-145l-42 44l-55 -44h-147l1 5z" />
    <glyph glyph-name="jcircumflex" unicode="&#x135;" horiz-adv-x="265" 
d="M167 718h62l102 -146l-1 -5h-115l-33 43l-43 -43h-116l1 5zM239 495h-143l-95 -540q-13 -73 -56 -77q-23 -1 -53 12l-67 -104q46 -35 110 -35q86 0 138 48.5t71 155.5z" />
    <glyph glyph-name="Kcommaaccent" unicode="&#x136;" horiz-adv-x="673" 
d="M728 700v-4l-347 -342l251 -345l-2 -9h-188l-206 299l-53 -299h-156l123 700h156l-51 -289l284 289h189zM380 -102q0 -22 -10 -45.5t-36 -67t-34 -57.5h-81l36 100q-56 8 -47 56q7 35 36 54t64 19q30 0 51 -16t21 -43z" />
    <glyph glyph-name="kcommaaccent" unicode="&#x137;" horiz-adv-x="546" 
d="M132 699h144l-70 -399l180 193h170l-2 -9l-222 -227l167 -246l-2 -11h-169l-137 217l-38 -217h-144zM304 -103q0 -22 -9.5 -46.5t-34 -67t-32.5 -58.5h-77l34 101q-53 8 -44 57q6 35 34 54.5t61 19.5q29 0 48.5 -16t19.5 -44z" />
    <glyph glyph-name="kgreenlandic" unicode="&#x138;" horiz-adv-x="546" 
d="M96 492h144l-34 -192l180 193h170l-2 -9l-225 -223l170 -250l-2 -11h-173l-133 217l-38 -217h-144z" />
    <glyph glyph-name="Lacute" unicode="&#x139;" horiz-adv-x="598" 
d="M306 700h-156l-123 -700h506l25 143h-350zM440 907l-1 -5l-138 -129h-123l1 7l97 127h164z" />
    <glyph glyph-name="lacute" unicode="&#x13a;" horiz-adv-x="269" 
d="M277 699h-143l-123 -699h143zM414 891l-1 -5l-135 -126h-120l1 6l94 125h161z" />
    <glyph glyph-name="Lcommaaccent" unicode="&#x13b;" horiz-adv-x="598" 
d="M150 700h156l-98 -557h350l-25 -143h-506zM348 -112q0 -23 -9.5 -48t-34 -69t-32.5 -60h-77l34 104q-53 8 -44 59q6 36 34 56t61 20q28 0 48 -16.5t20 -45.5z" />
    <glyph glyph-name="lcommaaccent" unicode="&#x13c;" horiz-adv-x="269" 
d="M134 699h143l-123 -699h-143zM143 -117q0 -23 -9.5 -48t-34 -69t-32.5 -60h-77l34 104q-53 8 -44 59q6 36 34 56t61 20q28 0 48 -16.5t20 -45.5z" />
    <glyph glyph-name="Lcaron" unicode="&#x13d;" horiz-adv-x="600" 
d="M150 700h156l-98 -557h350l-25 -143h-506zM406 478l84 219h134l-116 -219h-102z" />
    <glyph glyph-name="lcaron" unicode="&#x13e;" horiz-adv-x="337" 
d="M134 699h143l-123 -699h-143zM269 479l84 221h134l-116 -221h-102z" />
    <glyph glyph-name="Ldot" unicode="&#x13f;" horiz-adv-x="598" 
d="M150 700h156l-98 -557h350l-25 -143h-506zM346 359q0 46 32 73t73 27q31 0 51.5 -18.5t20.5 -52.5q0 -48 -32 -74t-74 -26q-30 0 -50.5 18.5t-20.5 52.5z" />
    <glyph glyph-name="ldot" unicode="&#x140;" horiz-adv-x="426" 
d="M134 699h143l-123 -699h-143zM266 313q0 46 32 73t73 27q31 0 51.5 -18.5t20.5 -52.5q0 -48 -32 -74t-74 -26q-30 0 -50.5 18.5t-20.5 52.5z" />
    <glyph glyph-name="Lslash" unicode="&#x141;" horiz-adv-x="609" 
d="M269 426l112 53l-20 -117l-112 -51l-30 -168h350l-25 -143h-505l41 234l-87 -41l20 114l87 41l62 352h155z" />
    <glyph glyph-name="lslash" unicode="&#x142;" horiz-adv-x="303" 
d="M315 453l-17 -102l-75 -36l-55 -315h-143l43 244l-67 -32l18 104l67 32l62 351h143l-50 -281z" />
    <glyph glyph-name="Nacute" unicode="&#x143;" horiz-adv-x="792" 
d="M557 245l-273 455h-134l-123 -700h158l38 218l35 230l269 -448h134l123 700h-157l-41 -235zM686 909l-1 -6l-148 -137h-133l1 7l104 136h177z" />
    <glyph glyph-name="nacute" unicode="&#x144;" horiz-adv-x="616" 
d="M365 0h145l46 262q43 244 -163 244q-100 2 -173 -75l6 63h-130l-87 -494h142l45 255q9 50 46.5 86t86.5 35q102 0 82 -115zM547 710l-1 -6l-133 -133h-118l1 6l93 133h158z" />
    <glyph glyph-name="Ncommaaccent" unicode="&#x145;" horiz-adv-x="792" 
d="M284 700l273 -455l29 220l41 235h157l-123 -700h-134l-269 448l-35 -230l-38 -218h-158l123 700h134zM426 -100q0 -23 -9.5 -48t-34 -69t-32.5 -60h-77l34 104q-53 8 -44 59q6 36 34 56t61 20q28 0 48 -16.5t20 -45.5z" />
    <glyph glyph-name="ncommaaccent" unicode="&#x146;" horiz-adv-x="616" 
d="M510 0h-145l46 261q20 115 -82 115q-49 1 -86.5 -35t-46.5 -86l-45 -255h-142l87 494h130l-6 -63q73 77 173 75q206 0 163 -244zM319 -106q0 -23 -9.5 -48t-34 -69t-32.5 -60h-77l34 104q-53 8 -44 59q6 36 34 56t61 20q28 0 48 -16.5t20 -45.5z" />
    <glyph glyph-name="Ncaron" unicode="&#x147;" horiz-adv-x="792" 
d="M557 245l-273 455h-134l-123 -700h158l38 218l35 230l269 -448h134l123 700h-157l-41 -235zM327 901l1 5h136l37 -40l55 40h141l-1 -5l-175 -130h-73z" />
    <glyph glyph-name="ncaron" unicode="&#x148;" horiz-adv-x="616" 
d="M365 0h145l46 262q43 244 -163 244q-100 2 -173 -75l6 63h-130l-87 -494h142l45 255q9 50 46.5 86t86.5 35q102 0 82 -115zM216 699l1 6h131l36 -41l53 41h136l-1 -6l-168 -131h-71z" />
    <glyph glyph-name="napostrophe" unicode="&#x149;" horiz-adv-x="616" 
d="M510 0h-145l46 261q20 115 -82 115q-49 1 -86.5 -35t-46.5 -86l-45 -255h-142l87 494h130l-6 -63q73 77 173 75q206 0 163 -244z" />
    <glyph glyph-name="Eng" unicode="&#x14a;" horiz-adv-x="788" 
d="M282 700l266 -437l77 437h155l-126 -719q-13 -74 -46 -124.5t-77 -70t-95.5 -13.5t-101.5 40l73 111q46 -21 70 -7.5t33 64.5l6 35l-257 416l-76 -432h-156l123 700h132z" />
    <glyph glyph-name="eng" unicode="&#x14b;" horiz-adv-x="614" 
d="M360 -29l49 279q9 51 -11.5 85.5t-69.5 34.5t-87 -36.5t-47 -88.5l-43 -245h-142l87 494h127l-1 -61q50 35 88.5 51.5t81.5 15.5q87 0 134.5 -66.5t26.5 -182.5l-49 -280q-18 -102 -70.5 -149t-128.5 -47q-64 0 -118 35l63 101q25 -13 50 -13q47 0 60 73z" />
    <glyph glyph-name="Omacron" unicode="&#x14c;" horiz-adv-x="837" 
d="M814 415q0 -193 -128 -312.5t-322 -119.5q-148 0 -234.5 81t-86.5 221q0 194 128 313t322 119q148 0 234.5 -81t86.5 -221zM653 350q18 98 -33.5 162.5t-151.5 64.5q-111 0 -190 -78t-79 -186q0 -84 51 -136.5t138 -52.5q101 0 174.5 63.5t90.5 162.5zM332 786l21 119
h359l-21 -119h-359z" />
    <glyph glyph-name="omacron" unicode="&#x14d;" horiz-adv-x="607" 
d="M249 -11q-107 0 -168 59t-61 155q0 128 91 215t229 87q107 0 168.5 -60.5t61.5 -156.5q0 -128 -90 -213.5t-231 -85.5zM272 117q71 0 110.5 46t39.5 105q0 45 -26 76.5t-78 31.5q-69 0 -109.5 -47.5t-40.5 -104.5q0 -45 26 -76t78 -31zM188 578l19 121h313l-19 -121h-313
z" />
    <glyph glyph-name="Obreve" unicode="&#x14e;" horiz-adv-x="838" 
d="M814 415q0 -193 -128 -312.5t-322 -119.5q-148 0 -234.5 81t-86.5 221q0 194 128 313t322 119q148 0 234.5 -81t86.5 -221zM653 350q18 98 -33.5 162.5t-151.5 64.5q-111 0 -190 -78t-79 -186q0 -84 51 -136.5t138 -52.5q101 0 174.5 63.5t90.5 162.5zM597 911h122
q-10 -66 -65 -106t-132 -40q-80 0 -122 37.5t-19 108.5h123q-5 -23 9 -32.5t31 -9.5q44 0 53 42z" />
    <glyph glyph-name="obreve" unicode="&#x14f;" horiz-adv-x="607" 
d="M249 -11q-107 0 -168 59t-61 155q0 128 91 215t229 87q107 0 168.5 -60.5t61.5 -156.5q0 -128 -90 -213.5t-231 -85.5zM272 117q71 0 110.5 46t39.5 105q0 45 -26 76.5t-78 31.5q-69 0 -109.5 -47.5t-40.5 -104.5q0 -45 26 -76t78 -31zM437 706h114q-10 -65 -61 -103.5
t-123 -38.5q-75 0 -113.5 36.5t-17.5 105.5h115q-5 -22 7.5 -31t28.5 -9q42 0 50 40z" />
    <glyph glyph-name="Ohungarumlaut" unicode="&#x150;" horiz-adv-x="838" 
d="M814 415q0 140 -86.5 221t-234.5 81q-194 0 -322 -119t-128 -313q0 -140 86.5 -221t234.5 -81q194 0 322 119.5t128 312.5zM653 350q-17 -99 -90.5 -162.5t-174.5 -63.5q-87 0 -138 52.5t-51 136.5q0 108 79 186t190 78q100 0 151.5 -64.5t33.5 -162.5zM657 913h159
l-1 -5l-155 -139h-139zM446 914h159l-1 -5l-140 -139h-146z" />
    <glyph glyph-name="ohungarumlaut" unicode="&#x151;" horiz-adv-x="607" 
d="M249 -11q141 0 231 85.5t90 213.5q0 96 -61.5 156.5t-168.5 60.5q-138 0 -229 -87t-91 -215q0 -96 61 -155t168 -59zM272 117q-52 0 -78 31t-26 76q0 57 40.5 104.5t109.5 47.5q52 0 78 -31.5t26 -76.5q0 -59 -39.5 -105t-110.5 -46zM477 681h143l-1 -4l-139 -123h-125z
M287 682h143l-1 -4l-125 -123h-131z" />
    <glyph glyph-name="OE" unicode="&#x152;" horiz-adv-x="1033" 
d="M965 138l-23 -136h-463q-66 -19 -133 -19q-150 0 -226 80.5t-76 215.5q0 191 114.5 314.5t317.5 123.5q37 0 125 -16h443l-24 -134h-302l-25 -142h283l-24 -135h-283l-27 -152h323zM208 352q-18 -99 24.5 -169.5t148.5 -70.5q67 0 120 19l76 436q-55 22 -117 22
q-98 0 -165 -64t-87 -173z" />
    <glyph glyph-name="oe" unicode="&#x153;" horiz-adv-x="956" 
d="M249 -11q-107 0 -168 59t-61 155q0 128 91.5 215.5t229.5 87.5q123 0 172 -91q79 92 201 92q131 0 186 -80.5t6 -227.5h-366q-1 -38 31 -62.5t91 -24.5q83 0 135 39l65 -90q-88 -74 -225 -74q-129 0 -181 94q-37 -43 -91.5 -67.5t-115.5 -24.5zM272 118q70 0 111.5 46
t41.5 102q0 46 -27 78t-80 32q-69 0 -109 -47t-40 -104q0 -44 25.5 -75.5t77.5 -31.5zM559 304h240q4 39 -26 59.5t-78 20.5q-44 0 -81.5 -22t-54.5 -58z" />
    <glyph glyph-name="Racute" unicode="&#x154;" horiz-adv-x="728" 
d="M648 0l2 12l-151 232q106 36 155.5 98t49.5 157q0 86 -57.5 143.5t-164.5 57.5h-332l-123 -700h156l41 230h116l138 -230h170zM283 566h176q44 0 66 -27t22 -64q0 -42 -33 -77.5t-89 -35.5h-178zM613 913l-1 -6l-147 -134h-131l1 6l103 134h175z" />
    <glyph glyph-name="racute" unicode="&#x155;" horiz-adv-x="456" 
d="M230 493h-134l-87 -493h144l45 257q9 53 47.5 83.5t87.5 30.5q44 0 75 -25l80 114q-42 45 -113 45q-84 0 -144 -66zM461 704v-5l-132 -122h-118l1 6l93 121h156z" />
    <glyph glyph-name="Rcommaaccent" unicode="&#x156;" horiz-adv-x="728" 
d="M650 12l-2 -12h-170l-138 230h-116l-41 -230h-156l123 700h332q107 0 164.5 -57.5t57.5 -143.5q0 -95 -49.5 -157t-155.5 -98zM459 566h-176l-36 -204h178q56 0 89 35.5t33 77.5q0 37 -22 64t-66 27zM389 -108q0 -23 -9.5 -48t-34 -69t-32.5 -60h-77l34 104q-53 8 -44 59
q6 36 34 56t61 20q28 0 48 -16.5t20 -45.5z" />
    <glyph glyph-name="rcommaaccent" unicode="&#x157;" horiz-adv-x="456" 
d="M96 493h134l1 -54q60 66 144 66q71 0 113 -45l-80 -114q-31 25 -75 25q-49 0 -87.5 -30.5t-47.5 -83.5l-45 -257h-144zM137 -112q0 -22 -9.5 -46.5t-33 -67t-31.5 -58.5h-75l33 101q-51 8 -42 57q6 35 32.5 54.5t59.5 19.5q28 0 47 -16t19 -44z" />
    <glyph glyph-name="Rcaron" unicode="&#x158;" horiz-adv-x="728" 
d="M648 0l2 12l-151 232q106 36 155.5 98t49.5 157q0 86 -57.5 143.5t-164.5 57.5h-332l-123 -700h156l41 230h116l138 -230h170zM283 566h176q44 0 66 -27t22 -64q0 -42 -33 -77.5t-89 -35.5h-178zM251 901l1 5h144l39 -41l59 41h150l-1 -5l-186 -134h-77z" />
    <glyph glyph-name="rcaron" unicode="&#x159;" horiz-adv-x="456" 
d="M230 493h-134l-87 -493h144l45 257q9 53 47.5 83.5t87.5 30.5q44 0 75 -25l80 114q-42 45 -113 45q-84 0 -144 -66zM140 698l1 5h137l37 -40l56 40h142l-1 -5l-176 -130h-74z" />
    <glyph glyph-name="Sacute" unicode="&#x15a;" horiz-adv-x="646" 
d="M524 534l105 94q-44 54 -97.5 75.5t-133.5 21.5q-116 0 -206 -54t-108 -153q-9 -58 6 -100.5t52 -67t80 -37t101 -19.5q66 -8 96 -25t30 -52q0 -45 -43.5 -71t-112.5 -26q-57 0 -111 23.5t-84 70.5l-100 -117q36 -59 109 -90t160 -30q94 1 167 25t122 83.5t49 149.5
q0 63 -34 106.5t-83.5 62.5t-115.5 25q-70 6 -103.5 20.5t-33.5 51.5q0 40 41 64.5t99 24.5q44 0 85 -14t64 -42zM583 930l-1 -6l-140 -139h-125l1 6l98 139h167z" />
    <glyph glyph-name="sacute" unicode="&#x15b;" horiz-adv-x="496" 
d="M470 444l-87 -90q-44 36 -111 36q-38 0 -58.5 -13t-20.5 -34q0 -35 66 -37q42 -1 74 -8t63 -23.5t44 -50t5 -81.5q-11 -67 -72.5 -114.5t-171.5 -47.5q-131 0 -217 84l80 102q63 -60 161 -62q34 -1 58 12t24 36q0 35 -77 38q-74 3 -127.5 35.5t-53.5 100.5q0 60 37 102.5
t90.5 60.5t115.5 18q115 0 178 -64zM459 707l-1 -6l-130 -129h-116l1 6l91 129h155z" />
    <glyph glyph-name="Scircumflex" unicode="&#x15c;" horiz-adv-x="646" 
d="M524 534l105 94q-44 54 -97.5 75.5t-133.5 21.5q-116 0 -206 -54t-108 -153q-9 -58 6 -100.5t52 -67t80 -37t101 -19.5q66 -8 96 -25t30 -52q0 -45 -43.5 -71t-112.5 -26q-57 0 -111 23.5t-84 70.5l-100 -117q36 -59 109 -90t160 -30q94 1 167 25t122 83.5t49 149.5
q0 63 -34 106.5t-83.5 62.5t-115.5 25q-70 6 -103.5 20.5t-33.5 51.5q0 40 41 64.5t99 24.5q44 0 85 -14t64 -42zM397 929h80l132 -141l-1 -5h-149l-43 42l-57 -42h-150l1 5z" />
    <glyph glyph-name="scircumflex" unicode="&#x15d;" horiz-adv-x="496" 
d="M470 444l-87 -90q-44 36 -111 36q-38 0 -58.5 -13t-20.5 -34q0 -35 66 -37q42 -1 74 -8t63 -23.5t44 -50t5 -81.5q-11 -67 -72.5 -114.5t-171.5 -47.5q-131 0 -217 84l80 102q63 -60 161 -62q34 -1 58 12t24 36q0 35 -77 38q-74 3 -127.5 35.5t-53.5 100.5q0 60 37 102.5
t90.5 60.5t115.5 18q115 0 178 -64zM289 712h70l116 -136l-1 -5h-131l-37 41l-50 -41h-132l1 5z" />
    <glyph glyph-name="Scedilla" unicode="&#x15e;" horiz-adv-x="661" 
d="M102 -196l72 49q12 -16 28 -23q23 -11 51 -6t37 24q8 17 -5 29t-36 11.5t-39 -13.5l-32 27l46 83q-91 8 -146.5 48t-81.5 120l140 67q17 -56 59 -79.5t110 -23.5q64 0 107 24.5t51 69.5q14 76 -125 89q-60 5 -104 17t-81 36t-51.5 66.5t-4.5 101.5q22 99 113.5 154.5
t202.5 55.5q83 0 147.5 -28t89.5 -81l-121 -83q-34 59 -138 57q-60 -1 -101.5 -25.5t-41.5 -63.5q0 -57 125 -70q48 -5 85 -13.5t72 -25t56 -40.5t30 -61.5t1 -85.5q-17 -98 -95 -156t-191 -70l-20 -38q34 -2 57 -13.5t30.5 -28t9 -35.5t-6.5 -37q-24 -63 -101 -88
q-56 -20 -115.5 -3.5t-82.5 62.5z" />
    <glyph glyph-name="scedilla" unicode="&#x15f;" horiz-adv-x="498" 
d="M30 -190l66 45q15 -23 54.5 -27.5t58.5 24.5q9 17 -4.5 30t-33.5 13t-37 -12l-30 26l43 74q-99 9 -163 82l76 98q58 -63 164 -63q34 0 58 15.5t24 36.5q0 36 -76 39q-82 3 -137.5 41.5t-41.5 117.5q10 56 52.5 93.5t90 51t96.5 13.5q63 0 105 -13.5t79 -50.5l-87 -85
q-30 33 -110 33q-36 0 -60 -11t-24 -32q0 -15 16 -24t40.5 -12.5t54 -7.5t57.5 -13t49.5 -24t31.5 -45.5t3 -73.5q-10 -62 -62.5 -110t-143.5 -56l-17 -32q53 -1 79 -31t7 -80q-18 -46 -66.5 -71.5t-101.5 -23.5q-79 3 -110 65z" />
    <glyph glyph-name="Scaron" unicode="&#x160;" horiz-adv-x="646" 
d="M524 534l105 94q-44 54 -97.5 75.5t-133.5 21.5q-116 0 -206 -54t-108 -153q-9 -58 6 -100.5t52 -67t80 -37t101 -19.5q66 -8 96 -25t30 -52q0 -45 -43.5 -71t-112.5 -26q-57 0 -111 23.5t-84 70.5l-100 -117q36 -59 109 -90t160 -30q94 1 167 25t122 83.5t49 149.5
q0 63 -34 106.5t-83.5 62.5t-115.5 25q-70 6 -103.5 20.5t-33.5 51.5q0 40 41 64.5t99 24.5q44 0 85 -14t64 -42zM215 913l1 6h152l41 -42l62 42h158l-1 -6l-196 -136h-81z" />
    <glyph glyph-name="scaron" unicode="&#x161;" horiz-adv-x="496" 
d="M470 444l-87 -90q-44 36 -111 36q-38 0 -58.5 -13t-20.5 -34q0 -35 66 -37q42 -1 74 -8t63 -23.5t44 -50t5 -81.5q-11 -67 -72.5 -114.5t-171.5 -47.5q-131 0 -217 84l80 102q63 -60 161 -62q34 -1 58 12t24 36q0 35 -77 38q-74 3 -127.5 35.5t-53.5 100.5q0 60 37 102.5
t90.5 60.5t115.5 18q115 0 178 -64zM143 698l1 5h130l36 -41l53 41h135l-1 -5l-168 -134h-70z" />
    <glyph glyph-name="Tcommaaccent" unicode="&#x162;" horiz-adv-x="615" 
d="M177 0l99 559h-213l25 141h581l-25 -141h-213l-99 -559h-52l-24 -49q56 -7 82.5 -36.5t15.5 -69.5q-17 -62 -78.5 -94.5t-128 -19.5t-96.5 68l73 55q27 -36 71 -34q44 3 53 30q5 15 -4.5 28t-33 19t-61.5 -3l-20 16z" />
    <glyph glyph-name="tcommaaccent" unicode="&#x163;" horiz-adv-x="414" 
d="M164 613l147 16l-24 -138h127l-22 -124h-128l-35 -199q-4 -23 11.5 -33.5t36.5 -10.5q28 0 56 13l17 -123q-56 -20 -110 -20l-19 -35q63 -4 82.5 -39t4.5 -74q-23 -61 -85.5 -86.5t-122.5 -10.5t-82 58l65 56q24 -27 67.5 -28.5t53.5 24.5q12 28 -22 42.5t-69 1.5l-18 11
l53 97q-81 48 -62 157l35 199h-88l22 124h88z" />
    <glyph glyph-name="Tcaron" unicode="&#x164;" horiz-adv-x="614" 
d="M276 561l-99 -561h155l99 561h213l25 139h-581l-25 -139h213zM221 900l1 6h140l38 -43l57 43h145l-1 -6l-180 -140h-75z" />
    <glyph glyph-name="tcaron" unicode="&#x165;" horiz-adv-x="490" 
d="M158 613l146 16l-24 -138h95l-21 -120h-96l-33 -186q-6 -35 9.5 -50.5t40.5 -15.5q35 0 62 12l12 -120q-53 -19 -108 -22q-89 -4 -133.5 41.5t-25.5 154.5l33 186h-83l21 120h83zM394 418l82 216h131l-113 -216h-100z" />
    <glyph glyph-name="Tbar" unicode="&#x166;" horiz-adv-x="624" 
d="M121 284l20 117h111l28 158h-213l25 141h581l-25 -141h-213l-28 -158h124l-20 -117h-124l-51 -284h-155l51 284h-111z" />
    <glyph glyph-name="tbar" unicode="&#x167;" horiz-adv-x="414" 
d="M23 204l16 91h69l14 78h-88l21 118h88l21 122l147 16l-24 -138h127l-21 -118h-128l-14 -78h96l-16 -91h-96l-7 -37q-6 -29 8.5 -44t37.5 -15q34 0 57 11l18 -112q-46 -17 -107 -20q-86 -4 -130 41t-27 139l7 37h-69z" />
    <glyph glyph-name="Utilde" unicode="&#x168;" horiz-adv-x="775" 
d="M622 699h155l-69 -391q-28 -155 -123.5 -240t-240.5 -85q-71 0 -126.5 19.5t-94.5 58t-53.5 102t0.5 145.5l69 391h155l-69 -391q-17 -94 19.5 -141.5t122.5 -43.5q78 4 124.5 53.5t61.5 131.5zM369 770l-80 53q76 120 171 96q12 -3 29 -11.5t28.5 -14t25 -7.5t25.5 6
t23 28l86 -47q-77 -128 -165 -95q-12 4 -31.5 14t-31 14t-26 5t-28 -9t-26.5 -32z" />
    <glyph glyph-name="utilde" unicode="&#x169;" horiz-adv-x="617" 
d="M90 494h145l-46 -261q-20 -115 82 -115q49 -1 86.5 35t46.5 86l45 255h142l-87 -494h-130l6 65q-70 -77 -173 -75q-206 0 -163 242zM252 569l-74 51q70 116 157 93q11 -3 26.5 -11.5t26.5 -13.5t23 -7t23 6t21 27l79 -45q-71 -125 -151 -93q-12 4 -29.5 13.5t-28 13.5
t-24 5t-25.5 -8.5t-24 -30.5z" />
    <glyph glyph-name="Umacron" unicode="&#x16a;" horiz-adv-x="775" 
d="M622 699h155l-69 -391q-28 -155 -123.5 -240t-240.5 -85q-71 0 -126.5 19.5t-94.5 58t-53.5 102t0.5 145.5l69 391h155l-69 -391q-17 -94 19.5 -141.5t122.5 -43.5q78 4 124.5 53.5t61.5 131.5zM293 771l20 125h342l-20 -125h-342z" />
    <glyph glyph-name="umacron" unicode="&#x16b;" horiz-adv-x="617" 
d="M90 494h145l-46 -261q-20 -115 82 -115q49 -1 86.5 35t46.5 86l45 255h142l-87 -494h-130l6 65q-70 -77 -173 -75q-206 0 -163 242zM188 592l19 118h319l-19 -118h-319z" />
    <glyph glyph-name="Ubreve" unicode="&#x16c;" horiz-adv-x="775" 
d="M622 699h155l-69 -391q-28 -155 -123.5 -240t-240.5 -85q-71 0 -126.5 19.5t-94.5 58t-53.5 102t0.5 145.5l69 391h155l-69 -391q-17 -94 19.5 -141.5t122.5 -43.5q78 4 124.5 53.5t61.5 131.5zM557 905h120q-10 -66 -64 -106t-129 -40q-79 0 -119.5 37.5t-18.5 108.5
h121q-5 -23 8 -32.5t30 -9.5q44 0 52 42z" />
    <glyph glyph-name="ubreve" unicode="&#x16d;" horiz-adv-x="617" 
d="M90 494h145l-46 -261q-20 -115 82 -115q49 -1 86.5 35t46.5 86l45 255h142l-87 -494h-130l6 65q-70 -77 -173 -75q-206 0 -163 242zM443 707h115q-10 -64 -61.5 -102.5t-123.5 -38.5q-76 0 -115 36.5t-18 104.5h116q-5 -22 8 -31t29 -9q42 0 50 40z" />
    <glyph glyph-name="Uring" unicode="&#x16e;" horiz-adv-x="775" 
d="M622 699h155l-69 -391q-28 -155 -123.5 -240t-240.5 -85q-71 0 -126.5 19.5t-94.5 58t-53.5 102t0.5 145.5l69 391h155l-69 -391q-17 -94 19.5 -141.5t122.5 -43.5q78 4 124.5 53.5t61.5 131.5zM360 849q0 68 48.5 101.5t111.5 33.5q47 0 79.5 -23.5t32.5 -71.5
q0 -63 -48 -98.5t-106 -35.5q-49 0 -83.5 23t-34.5 71zM505 916q-28 0 -45.5 -16.5t-17.5 -36.5q0 -17 12 -28.5t33 -11.5q29 0 46 16t17 37q0 17 -12 28.5t-33 11.5z" />
    <glyph glyph-name="uring" unicode="&#x16f;" horiz-adv-x="617" 
d="M90 494h145l-46 -261q-20 -115 82 -115q49 -1 86.5 35t46.5 86l45 255h142l-87 -494h-130l6 65q-70 -77 -173 -75q-206 0 -163 242zM255 643q0 61 46 91.5t107 30.5q45 0 75 -21t30 -65q0 -57 -45 -89.5t-100 -32.5q-47 0 -80 21t-33 65zM393 704q-27 0 -43 -15t-16 -34
q0 -15 11 -25.5t31 -10.5q27 0 43.5 15t16.5 34q0 15 -11 25.5t-32 10.5z" />
    <glyph glyph-name="Uhungarumlaut" unicode="&#x170;" horiz-adv-x="775" 
d="M777 699h-155l-69 -391q-15 -82 -61.5 -131.5t-124.5 -53.5q-86 -4 -122.5 43.5t-19.5 141.5l69 391h-155l-69 -391q-15 -82 -0.5 -145.5t53.5 -102t94.5 -58t126.5 -19.5q145 0 240.5 85t123.5 240zM611 907h146l-1 -5l-142 -141h-128zM417 908h147l-1 -5l-129 -141
h-133z" />
    <glyph glyph-name="uhungarumlaut" unicode="&#x171;" horiz-adv-x="617" 
d="M235 494h-145l-46 -262q-43 -242 163 -242q103 -2 173 75l-6 -65h130l87 494h-142l-45 -255q-9 -50 -46.5 -86t-86.5 -35q-102 0 -82 115zM493 701h141l-1 -4l-137 -127h-123zM307 702h141l-1 -5l-124 -126h-128z" />
    <glyph glyph-name="Uogonek" unicode="&#x172;" horiz-adv-x="777" 
d="M622 699h155l-73 -413q-17 -101 -77 -173t-143 -104h1q-50 -16 -54 -48q-3 -25 21 -34q32 -12 69 21l69 -70q-44 -57 -116 -73t-121 16q-38 23 -44.5 72t22.5 93q-146 3 -217 85.5t-44 236.5l69 391h155l-69 -391q-15 -86 17.5 -133t110.5 -51q82 -4 133.5 45t66.5 139z
" />
    <glyph glyph-name="uogonek" unicode="&#x173;" horiz-adv-x="614" 
d="M588 492l-99 -561q-28 7 -70 -12.5t-37 -53.5q3 -16 18.5 -25t42.5 -3t56 30l34 -61q-38 -42 -96.5 -58t-108.5 2.5t-63 67.5q-13 47 17 97t89 70l3 74q-51 -36 -89 -51.5t-87 -15.5q-82 0 -129 62.5t-28 169.5l47 268h144l-47 -267q-8 -41 16.5 -72t66.5 -31
q49 0 87 36.5t47 88.5l43 245h143z" />
    <glyph glyph-name="Wcircumflex" unicode="&#x174;" horiz-adv-x="1074" 
d="M761 1l377 699h-175l-125 -240l-100 -225l-82 465h-102l-239 -465l-23 226l-45 239h-175l138 -699h128l214 391l81 -391h128zM607 932h82l135 -152l-1 -5h-153l-43 45l-58 -45h-153l1 5z" />
    <glyph glyph-name="wcircumflex" unicode="&#x175;" horiz-adv-x="846" 
d="M513 494h-113l-151 -315l-12 112l-33 203h-161l94 -497h144l131 247l44 -247h143l271 497h-161l-105 -203l-52 -112zM465 718h76l126 -139l-1 -5h-142l-41 42l-54 -42h-143l1 5z" />
    <glyph glyph-name="Ycircumflex" unicode="&#x176;" horiz-adv-x="705" 
d="M366 422l-119 278h-176l-1 -8l195 -414l-49 -278h156l49 278l353 414l1 8h-183zM428 920h77l129 -138l-1 -5h-145l-42 42l-54 -42h-146l1 5z" />
    <glyph glyph-name="ycircumflex" unicode="&#x177;" horiz-adv-x="614" 
d="M232 494h-144l-45 -253q-21 -116 23 -182.5t132 -66.5q61 0 98 11.5t78 55.5l-13 -74q-9 -51 -47 -81t-79 -30q-45 0 -73 13.5t-27 52.5h-135q-4 -99 55 -148.5t160 -49.5q104 0 183 61.5t100 182.5l90 508h-143l-44 -247q-9 -51 -49.5 -88t-90.5 -37q-49 0 -65.5 33.5
t-7.5 86.5zM349 723h83l138 -146l-1 -5h-156l-44 43l-59 -43h-157l1 5z" />
    <glyph glyph-name="Ydieresis" unicode="&#x178;" horiz-adv-x="705" 
d="M366 422l-119 278h-176l-1 -8l195 -414l-49 -278h156l49 278l353 414l1 8h-183zM236 825q0 42 29 65.5t66 23.5q27 0 45.5 -16.5t18.5 -46.5q0 -41 -29 -64.5t-66 -23.5q-28 0 -46 16t-18 46zM492 827q0 41 29.5 64t66.5 23q27 0 45.5 -17t18.5 -46q0 -35 -27.5 -61.5
t-64.5 -26.5q-30 0 -49 17t-19 47z" />
    <glyph glyph-name="Zacute" unicode="&#x179;" horiz-adv-x="628" 
d="M120 700l-23 -134h325l-428 -485l-14 -81h560l26 146h-344l421 486l12 68h-535zM582 914l-1 -6l-141 -141h-126l1 7l99 140h168z" />
    <glyph glyph-name="zacute" unicode="&#x17a;" horiz-adv-x="477" 
d="M468 494h-383l-22 -125h193l-271 -308l-11 -61h417l23 133h-217l259 291zM466 690l-1 -5l-131 -123h-117l1 6l92 122h156z" />
    <glyph glyph-name="Zdotaccent" unicode="&#x17b;" horiz-adv-x="628" 
d="M120 700l-23 -134h325l-428 -485l-14 -81h560l26 146h-344l421 486l12 68h-535zM341 836q0 43 32.5 67t74.5 24q35 0 57.5 -16.5t22.5 -48.5q0 -41 -34 -65.5t-76 -24.5q-34 0 -55.5 17t-21.5 47z" />
    <glyph glyph-name="zdotaccent" unicode="&#x17c;" horiz-adv-x="477" 
d="M468 494h-383l-22 -125h193l-271 -308l-11 -61h417l23 133h-217l259 291zM237 633q0 40 28.5 62.5t66.5 22.5q30 0 50 -16t20 -45q0 -39 -30 -62t-67 -23q-29 0 -48.5 16t-19.5 45z" />
    <glyph glyph-name="Zcaron" unicode="&#x17d;" horiz-adv-x="628" 
d="M120 700l-23 -134h325l-428 -485l-14 -81h560l26 146h-344l421 486l12 68h-535zM225 901l1 6h149l41 -43l60 43h154l-1 -6l-191 -139h-80z" />
    <glyph glyph-name="zcaron" unicode="&#x17e;" horiz-adv-x="477" 
d="M468 494h-383l-22 -125h193l-271 -308l-11 -61h417l23 133h-217l259 291zM146 691l1 6h132l35 -39l54 39h136l-1 -6l-169 -126h-70z" />
    <glyph glyph-name="longs" unicode="&#x17f;" horiz-adv-x="339" 
d="M206 0h-143l63 359h-89l22 126h89l5 29q12 68 51 115t86.5 66.5t98.5 19.5q75 0 123 -34l-70 -108q-24 19 -64 19q-29 0 -52 -20t-29 -58z" />
    <glyph glyph-name="florin" unicode="&#x192;" horiz-adv-x="520" 
d="M462 354h-137l-63 -359q-12 -70 -50.5 -118t-88 -65.5t-104 -11.5t-99.5 38l67 101q48 -30 84.5 -15t46.5 71l63 359h-123l21 121h123l7 39q10 58 34.5 99t58.5 61.5t68 29.5t74 9q71 0 130 -42l-67 -101q-29 20 -67 20q-34 0 -57 -19t-30 -57l-7 -39h137z" />
    <glyph glyph-name="Aringacute" unicode="&#x1fa;" horiz-adv-x="791" 
d="M442 542l69 -284h-241zM483 781q23 0 35.5 -13.5t12.5 -32.5q0 -23 -18.5 -41.5t-48.5 -18.5q-23 0 -35 13t-12 32q0 24 18 42.5t48 18.5zM330 712q0 -40 21 -64l-404 -648h168l72 120h359l30 -120h169l-177 651q51 42 51 102q0 52 -36 77t-84 25q-62 0 -115.5 -35
t-53.5 -108zM711 980l-1 -4l-147 -96h-131l1 5l103 95h175z" />
    <glyph glyph-name="aringacute" unicode="&#x1fb;" horiz-adv-x="641" 
d="M465 437q-13 30 -50.5 49t-83.5 19q-129 2 -219.5 -82.5t-90.5 -222.5q0 -99 58.5 -155.5t156.5 -55.5q42 1 89 19t76 54l-3 -62h130q14 82 43 247t44 247h-135zM323 378q53 0 81.5 -32.5t28.5 -80.5q0 -57 -45.5 -102.5t-110.5 -45.5q-49 0 -79 28.5t-30 78.5
q0 69 46 111.5t109 42.5zM259 623q0 -44 32.5 -65t78.5 -21q55 0 100 32t45 90q0 44 -30 65t-75 21q-60 0 -105.5 -30.5t-45.5 -91.5zM396 684q20 0 31 -11t11 -26q0 -18 -16 -33t-43 -15q-20 0 -31 10.5t-11 25.5q0 19 16 34t43 15zM600 883l-1 -5l-135 -96h-120l1 4l94 97
h161z" />
    <glyph glyph-name="AEacute" unicode="&#x1fc;" horiz-adv-x="898" 
d="M803 0l24 138h-269l27 150h236l23 132h-236l25 144h253l24 136h-437l-546 -700h182l82 109h222l-19 -109h409zM437 246h-142l193 254zM817 904l-1 -5l-145 -133h-130l1 7l102 131h173z" />
    <glyph glyph-name="aeacute" unicode="&#x1fd;" horiz-adv-x="964" 
d="M550 205h366q35 96 18.5 163t-66.5 103.5t-120 36.5q-107 0 -173 -65l9 50h-108l-15 -56q-38 68 -138 68q-56 0 -109.5 -20.5t-97 -59t-70 -99t-26.5 -134.5q0 -102 57 -153t157 -50q43 0 92 19t70 54l-10 -62h105l15 53q37 -69 142 -69q130 0 212 75l-61 92
q-54 -41 -129 -41q-49 0 -83 25t-37 70zM323 379q81 0 105 -66q21 -58 -16 -121q-42 -71 -122 -77q-7 -1 -14 -1q-48 0 -78 29t-30 80q0 71 45.5 113.5t109.5 42.5zM572 311q46 73 148 73q36 0 59.5 -18.5t22.5 -54.5h-230zM728 700l-1 -6l-130 -129h-116l1 6l91 129h155z
" />
    <glyph glyph-name="Oslashacute" unicode="&#x1fe;" horiz-adv-x="802" 
d="M699 932l-1 -6l-141 -141h-126l1 7l99 140h168zM476 715q-99 0 -183.5 -39t-138 -101.5t-83 -139t-29.5 -153.5q0 -133 67 -210l-112 -142h149l61 77q59 -24 140 -24q90 0 166.5 31t128 83t84.5 115t46 133q15 82 -3 158t-69 129l106 135h-150l-57 -71q-62 19 -123 19z
M372 125q-34 0 -67 7l293 372q39 -65 20 -162q-18 -90 -79 -153.5t-167 -63.5zM452 574q17 0 49 -4l-290 -365q-13 38 -13 94q0 47 16 94.5t46 88.5t80 66.5t112 25.5z" />
    <glyph glyph-name="oslashacute" unicode="&#x1ff;" horiz-adv-x="607" 
d="M528 709l-1 -5l-127 -127h-113l1 6l89 126h151zM250 -11q141 0 231 85.5t90 212.5q0 102 -60 159l81 105h-126l-43 -56q-39 11 -82 11q-138 0 -229.5 -87.5t-91.5 -215.5q0 -102 60 -157l-77 -101h126l41 54q33 -10 80 -10zM318 376q9 0 14 -1l-155 -202q-8 19 -8 51
q0 58 40 105t109 47zM272 117h-12l154 201q8 -19 8 -51q0 -59 -39.5 -104.5t-110.5 -45.5z" />
    <glyph glyph-name="Scommaaccent" unicode="&#x218;" horiz-adv-x="646" 
d="M629 628l-105 -94q-23 28 -64 42t-85 14q-58 0 -99 -24.5t-41 -64.5q0 -37 33.5 -51.5t103.5 -20.5q66 -6 115.5 -25t83.5 -62.5t34 -106.5q0 -90 -49 -149.5t-122 -83.5t-167 -25q-87 -1 -160 30t-109 90l100 117q30 -47 84 -70.5t111 -23.5q69 0 112.5 26t43.5 71
q0 35 -30 52t-96 25q-58 7 -101 19.5t-80 37t-52 67t-6 100.5q18 99 108 153t206 54q80 0 133.5 -21.5t97.5 -75.5zM363 -125q0 -22 -10 -45.5t-37 -67.5t-35 -57h-83l36 100q-57 8 -47 57q7 35 36.5 54t65.5 19q31 0 52.5 -16t21.5 -44z" />
    <glyph glyph-name="scommaaccent" unicode="&#x219;" horiz-adv-x="496" 
d="M470 444l-87 -90q-44 36 -111 36q-38 0 -58.5 -13t-20.5 -34q0 -35 66 -37q42 -1 74 -8t63 -23.5t44 -50t5 -81.5q-11 -67 -72.5 -114.5t-171.5 -47.5q-131 0 -217 84l80 102q63 -60 161 -62q34 -1 58 12t24 36q0 35 -77 38q-74 3 -127.5 35.5t-53.5 100.5q0 60 37 102.5
t90.5 60.5t115.5 18q115 0 178 -64zM277 -119q0 -20 -9 -42t-32 -61t-30 -53h-72l32 92q-50 7 -42 52q6 31 32 48.5t57 17.5q27 0 45.5 -14.5t18.5 -39.5z" />
    <glyph glyph-name="uni021A" unicode="&#x21a;" horiz-adv-x="614" 
d="M177 0l99 561h-213l25 139h581l-25 -139h-213l-99 -561h-155zM312 -110q0 -17 -7.5 -39.5t-17 -40t-25.5 -47t-25 -48.5h-76l33 103q-24 4 -35.5 19t-7.5 39q6 36 33.5 55.5t60.5 19.5q28 0 47.5 -16t19.5 -45z" />
    <glyph glyph-name="uni021B" unicode="&#x21b;" horiz-adv-x="412" 
d="M163 613l146 16l-24 -138h125l-21 -120h-126l-33 -186q-11 -66 45 -66q35 0 62 12l12 -120q-53 -19 -108 -22q-88 -4 -130.5 41.5t-23.5 154.5l33 186h-88l21 120h88zM246 -117q0 -17 -7.5 -39.5t-17 -40t-25.5 -47t-25 -48.5h-76l33 103q-24 4 -35.5 19t-7.5 39
q6 36 33.5 55.5t60.5 19.5q28 0 47.5 -16t19.5 -45z" />
    <glyph glyph-name="dotlessj" unicode="&#x237;" horiz-adv-x="265" 
d="M96 495h143l-95 -540q-19 -107 -71 -155.5t-138 -48.5q-64 0 -110 35l67 104q30 -13 53 -12q43 4 56 77z" />
    <glyph glyph-name="circumflex" unicode="&#x2c6;" horiz-adv-x="451" 
d="M310 719h75l124 -140l-1 -5h-140l-40 42l-53 -42h-141l1 5z" />
    <glyph glyph-name="caron" unicode="&#x2c7;" horiz-adv-x="434" 
d="M147 694l1 6h140l38 -43l57 43h145l-1 -6l-180 -140h-75z" />
    <glyph glyph-name="breve" unicode="&#x2d8;" horiz-adv-x="406" 
d="M367 699h115q-10 -70 -61.5 -113t-123.5 -43q-76 0 -115 40.5t-18 115.5h116q-5 -24 8 -34t29 -10q42 0 50 44z" />
    <glyph glyph-name="dotaccent" unicode="&#x2d9;" horiz-adv-x="276" 
d="M169 619q0 43 29 67.5t67 24.5q31 0 51 -17t20 -49q0 -42 -30.5 -66.5t-67.5 -24.5q-30 0 -49.5 17t-19.5 48z" />
    <glyph glyph-name="ring" unicode="&#x2da;" horiz-adv-x="427" 
d="M168 564q0 75 51.5 112.5t119.5 37.5q50 0 84.5 -26.5t34.5 -79.5q0 -70 -51 -109.5t-113 -39.5q-52 0 -89 25.5t-37 79.5zM323 639q-30 0 -48.5 -18.5t-18.5 -41.5q0 -18 12.5 -31t35.5 -13q30 0 48.5 18t18.5 41q0 19 -12.5 32t-35.5 13z" />
    <glyph glyph-name="ogonek" unicode="&#x2db;" horiz-adv-x="390" 
d="M226 -156l60 -60q-48 -57 -128 -60q-50 -2 -88 18.5t-48 67.5q-3 16 1 38t17.5 48t40 44.5t68.5 28.5t102 -1l4 -58q-6 4 -26 2.5t-42 -5.5t-38.5 -18t-14.5 -35q2 -26 37 -26t55 16z" />
    <glyph glyph-name="tilde" unicode="&#x2dc;" horiz-adv-x="418" 
d="M224 644l-76 50q72 113 161 90q10 -3 41 -19t48.5 -12.5t33.5 32.5l81 -44q-73 -120 -155 -90q-12 4 -30 13t-28.5 13t-24.5 5.5t-26.5 -8.5t-24.5 -30z" />
    <glyph glyph-name="hungarumlaut" unicode="&#x2dd;" horiz-adv-x="445" 
d="M434 701h148l-1 -5l-144 -144h-129zM238 702h148l-1 -5l-130 -144h-135z" />
    <glyph glyph-name="_375" unicode="&#x394;" horiz-adv-x="794" 
d="M782 31l-5 -31h-768l6 36l415 664h170zM488 546l-250 -411h355z" />
    <glyph glyph-name="_376" unicode="&#x3a9;" horiz-adv-x="826" 
d="M514 574q-101 0 -168 -65t-84 -150q-14 -69 11.5 -130.5t86.5 -89.5l-25 -139h-270l23 133h96q-77 62 -77 183q0 109 61 202t160 145t211 52q136 0 222.5 -83.5t86.5 -213.5q0 -82 -38.5 -157t-120.5 -128h96l-23 -133h-271l25 139q70 28 117 89.5t57 130.5
q14 84 -30.5 149.5t-145.5 65.5z" />
    <glyph glyph-name="mu" unicode="&#x3bc;" horiz-adv-x="617" 
d="M516 0h-125l-6 51q-40 -70 -121 -74q-36 -2 -64 15t-37 50l-45 -255h-138l125 707h145l-48 -272q-9 -51 16 -80.5t65 -28.5q42 0 80 31t48 89l46 261h146z" />
    <glyph glyph-name="pi" unicode="&#x3c0;" horiz-adv-x="671" 
d="M211 0h-143l65 367h-98l22 126h614l-22 -126h-98l-37 -209q-6 -33 10 -45.5t60 -1.5l-6 -114q-117 -22 -171 15t-36 144l37 211h-132z" />
    <glyph glyph-name="Wgrave" unicode="&#x1e80;" horiz-adv-x="1074" 
d="M1138 700l-377 -699h-128l-81 391l-214 -391h-128l-138 699h175l45 -239l23 -226l239 465h102l82 -465l100 225l125 240h175zM472 903l1 6h182l53 -130l-1 -6h-137z" />
    <glyph glyph-name="wgrave" unicode="&#x1e81;" horiz-adv-x="846" 
d="M400 494h113l39 -315l52 112l105 203h161l-271 -497h-143l-44 247l-131 -247h-144l-94 497h161l33 -203l12 -112zM322 693l1 6h164l48 -123l-1 -6h-123z" />
    <glyph glyph-name="Wacute" unicode="&#x1e82;" horiz-adv-x="1074" 
d="M761 1l377 699h-175l-125 -240l-100 -225l-82 465h-102l-239 -465l-23 226l-45 239h-175l138 -699h128l214 391l81 -391h128zM844 910l-1 -5l-150 -133h-135l1 7l106 131h179z" />
    <glyph glyph-name="wacute" unicode="&#x1e83;" horiz-adv-x="846" 
d="M513 494h-113l-151 -315l-12 112l-33 203h-161l94 -497h144l131 247l44 -247h143l271 497h-161l-105 -203l-52 -112zM666 701l-1 -6l-140 -126h-125l1 6l98 126h167z" />
    <glyph glyph-name="Wdieresis" unicode="&#x1e84;" horiz-adv-x="1074" 
d="M402 827q0 44 29.5 68.5t67.5 24.5q28 0 46.5 -17.5t18.5 -48.5q0 -43 -29.5 -67t-67.5 -24q-29 0 -47 16.5t-18 47.5zM702 829q0 43 30 67t68 24q27 0 45.5 -17.5t18.5 -48.5q0 -37 -27.5 -64t-65.5 -27q-30 0 -49.5 17.5t-19.5 48.5zM761 1l377 699h-175l-125 -240
l-100 -225l-82 465h-102l-239 -465l-23 226l-45 239h-175l138 -699h128l214 391l81 -391h128z" />
    <glyph glyph-name="wdieresis" unicode="&#x1e85;" horiz-adv-x="846" 
d="M513 494h-113l-151 -315l-12 112l-33 203h-161l94 -497h144l131 247l44 -247h143l271 497h-161l-105 -203l-52 -112zM283 621q0 41 27 64t63 23q25 0 42.5 -16t17.5 -45q0 -40 -27 -62.5t-63 -22.5q-26 0 -43 15.5t-17 43.5zM524 623q0 40 27.5 62.5t63.5 22.5
q25 0 42 -16t17 -45q0 -35 -25.5 -60t-60.5 -25q-27 0 -45.5 16.5t-18.5 44.5z" />
    <glyph glyph-name="Ygrave" unicode="&#x1ef2;" horiz-adv-x="705" 
d="M247 700l119 -278l226 278h183l-1 -8l-353 -414l-49 -278h-156l49 278l-195 414l1 8h176zM276 905l1 5h183l54 -129l-1 -6h-138z" />
    <glyph glyph-name="ygrave" unicode="&#x1ef3;" horiz-adv-x="614" 
d="M88 494h144l-44 -252q-9 -53 7.5 -86.5t65.5 -33.5q50 0 90.5 37t49.5 88l44 247h143l-90 -508q-21 -121 -100 -182.5t-183 -61.5q-101 0 -160 49.5t-55 148.5h135q-1 -39 27 -52.5t73 -13.5q41 0 79 30t47 81l13 74q-41 -44 -78 -55.5t-98 -11.5q-88 0 -132 66.5
t-23 182.5zM199 692l1 6h169l49 -132l-1 -7h-126z" />
    <glyph glyph-name="endash" unicode="&#x2013;" horiz-adv-x="596" 
d="M44 223l22 125h481l-22 -125h-481z" />
    <glyph glyph-name="emdash" unicode="&#x2014;" horiz-adv-x="688" 
d="M44 226l22 125h574l-22 -125h-574z" />
    <glyph glyph-name="quoteleft" unicode="&#x2018;" horiz-adv-x="275" 
d="M307 701l-92 -244h-147l128 244h111z" />
    <glyph glyph-name="quoteright" unicode="&#x2019;" horiz-adv-x="271" 
d="M75 458l92 242h147l-127 -242h-112z" />
    <glyph glyph-name="quotesinglbase" unicode="&#x201a;" horiz-adv-x="281" 
d="M-48 -135l92 242h146l-127 -242h-111z" />
    <glyph glyph-name="quotedblleft" unicode="&#x201c;" horiz-adv-x="449" 
d="M480 699l-92 -242h-135l115 242h112zM307 699l-102 -242h-136l126 242h112z" />
    <glyph glyph-name="quotedblright" unicode="&#x201d;" horiz-adv-x="444" 
d="M75 457l92 242h135l-115 -242h-112zM248 457l102 242h136l-126 -242h-112z" />
    <glyph glyph-name="quotedblbase" unicode="&#x201e;" horiz-adv-x="470" 
d="M-48 -135l92 242h146l-127 -242h-111zM141 -135l92 242h146l-127 -242h-111z" />
    <glyph glyph-name="dagger" unicode="&#x2020;" horiz-adv-x="605" 
d="M453 699l-32 -184h189l-23 -129h-189l-88 -497h-159l88 497h-189l23 129h189l32 184h159z" />
    <glyph glyph-name="daggerdbl" unicode="&#x2021;" horiz-adv-x="635" 
d="M466 699l-32 -182h190l-23 -129h-190l-36 -204h190l-22 -127h-190l-32 -180h-154l32 180h-190l22 127h190l36 204h-190l23 129h190l32 182h154z" />
    <glyph glyph-name="bullet" unicode="&#x2022;" horiz-adv-x="421" 
d="M190 180q-53 0 -85.5 31t-32.5 82q0 68 48.5 113t116.5 45q52 0 84.5 -31.5t32.5 -82.5q0 -68 -48.5 -112.5t-115.5 -44.5z" />
    <glyph glyph-name="ellipsis" unicode="&#x2026;" horiz-adv-x="802" 
d="M11 61q0 45 29.5 70t68.5 25q29 0 49 -18t20 -50q0 -44 -30 -69t-68 -25q-29 0 -49 17.5t-20 49.5zM281 61q0 45 30 70t68 25q29 0 49 -18t20 -50q0 -44 -30 -69t-68 -25q-29 0 -49 17.5t-20 49.5zM551 61q0 45 30 70t68 25q29 0 49 -18t20 -50q0 -44 -30 -69t-68 -25
q-29 0 -49 17.5t-20 49.5z" />
    <glyph glyph-name="perthousand" unicode="&#x2030;" horiz-adv-x="1196" 
d="M278 704q69 0 105 -39.5t36 -95.5q0 -72 -54 -129t-143 -57q-69 0 -105 39t-36 96q0 72 54 129t143 57zM635 699h157l-581 -700h-159zM625 314q68 0 104 -39.5t36 -95.5q0 -72 -54 -129t-143 -57q-69 0 -104.5 39.5t-35.5 96.5q0 72 54 128.5t143 56.5zM606 210
q-29 0 -48 -20.5t-19 -45.5q0 -20 12.5 -33.5t34.5 -13.5q31 0 48.5 19.5t17.5 46.5q0 20 -11.5 33.5t-34.5 13.5zM260 602q-31 0 -49.5 -20.5t-18.5 -46.5q0 -20 12.5 -34t35.5 -14q31 0 49 20t18 47q0 20 -12 34t-35 14zM1001 314q68 0 104 -39.5t36 -95.5q0 -72 -54 -129
t-143 -57q-69 0 -104.5 39.5t-35.5 96.5q0 72 54 128.5t143 56.5zM982 210q-29 0 -48 -20.5t-19 -45.5q0 -20 12.5 -33.5t34.5 -13.5q31 0 48.5 19.5t17.5 46.5q0 20 -11.5 33.5t-34.5 13.5z" />
    <glyph glyph-name="guilsinglleft" unicode="&#x2039;" horiz-adv-x="357" 
d="M31 295l178 222h153v1l-178 -223q83 -188 100 -223h-153z" />
    <glyph glyph-name="guilsinglright" unicode="&#x203a;" horiz-adv-x="358" 
d="M228 522l100 -222l-178 -222h-153l177 222l-99 223v-1h153z" />
    <glyph glyph-name="fraction" unicode="&#x2044;" horiz-adv-x="171" 
d="M294 708h121l-518 -713h-121z" />
    <glyph glyph-name="zerosuperior" unicode="&#x2070;" horiz-adv-x="408" 
d="M201 678l-10 -56q-9 -50 33 -66q39 -14 76 13q26 20 32 53l10 56q9 51 -33 67q-39 15 -75 -12q-27 -20 -33 -55zM93 624l10 55q17 97 105 141q77 38 150.5 13t84.5 -98q3 -26 -2 -56l-10 -55q-18 -99 -106 -143q-76 -39 -149 -13.5t-84 99.5q-4 26 1 57z" />
    <glyph glyph-name="foursuperior" unicode="&#x2074;" horiz-adv-x="401" 
d="M286 837h130l-39 -224h45l-15 -85h-45l-11 -61h-100l11 61h-193l11 86zM277 613l22 127l-117 -127h95z" />
    <glyph glyph-name="fivesuperior" unicode="&#x2075;" horiz-adv-x="378" 
d="M419 832l-15 -86h-184l-8 -44h54q135 0 135 -100q0 -53 -29.5 -89.5t-68 -50t-80.5 -13.5q-70 0 -106.5 30t-25.5 94h101q-1 -20 12 -30t34 -10q24 0 41.5 14.5t17.5 37.5q0 17 -13 26t-32 9h-148q7 40 20.5 116t16.5 96h278z" />
    <glyph glyph-name="sixsuperior" unicode="&#x2076;" horiz-adv-x="384" 
d="M302 589q0 16 -14 25t-35 9q-25 0 -43.5 -11t-18.5 -33q0 -15 14 -24t34 -9q25 0 44 11.5t19 31.5zM420 730h-94q1 22 -25 29t-53.5 -3t-31.5 -31l-7 -40q27 15 60.5 18t64 -5.5t51 -33.5t20.5 -61q0 -69 -55 -106t-126 -37q-62 0 -103 33.5t-30 91.5l25 140
q10 56 61 86.5t114 30.5q65 0 101 -27.5t28 -84.5z" />
    <glyph glyph-name="sevensuperior" unicode="&#x2077;" horiz-adv-x="329" 
d="M192 463h-112l182 278h-156l16 92h283l-3 -41z" />
    <glyph glyph-name="eightsuperior" unicode="&#x2078;" horiz-adv-x="394" 
d="M183 567q-4 -14 9.5 -27.5t47.5 -13.5q33 0 50 13t19 28q3 16 -12.5 27.5t-41.5 11.5q-28 0 -48.5 -10.5t-23.5 -28.5zM81 568q3 19 22.5 42t46.5 35q-15 8 -24 26t-9 36q0 58 50 92t124 34q59 0 97.5 -26.5t38.5 -74.5q0 -56 -59 -83q42 -20 42 -71q0 -69 -54.5 -102.5
t-133.5 -31.5q-71 0 -112.5 30t-28.5 94zM267 679q27 0 42 11.5t15 27.5q0 13 -12 23t-34 10q-27 0 -43 -12t-16 -28q0 -13 12.5 -22.5t35.5 -9.5z" />
    <glyph glyph-name="ninesuperior" unicode="&#x2079;" horiz-adv-x="386" 
d="M210 714q0 -16 14 -25t35 -9q25 0 43.5 11t18.5 33q0 15 -14 24t-34 9q-25 0 -44 -11.5t-19 -31.5zM87 573h96q-1 -22 25.5 -29t55 3t32.5 31l7 40q-27 -15 -61 -18t-64.5 5.5t-51 33.5t-20.5 61q0 69 55 106t126 37q62 0 103 -33.5t30 -91.5l-25 -140q-10 -57 -60.5 -88
t-113.5 -31q-68 0 -105.5 27.5t-28.5 86.5z" />
    <glyph glyph-name="zeroinferior" unicode="&#x2080;" horiz-adv-x="407" 
d="M102 128l-9 -56q-8 -50 34 -65q39 -14 75 12q27 19 32 53l9 56q9 51 -33 67q-39 16 -75 -12q-27 -20 -33 -55zM-5 75l10 54q18 98 106 141q77 39 150.5 13.5t83.5 -100.5q3 -25 -2 -54l-10 -54q-18 -99 -106 -144q-76 -39 -149 -13.5t-84 98.5q-5 27 1 59z" />
    <glyph glyph-name="oneinferior" unicode="&#x2081;" horiz-adv-x="283" 
d="M-32 -83l15 83h62l31 176l-54 -11l15 84l159 40l-51 -289h64l-15 -83h-226z" />
    <glyph glyph-name="twoinferior" unicode="&#x2082;" horiz-adv-x="377" 
d="M115 180h-98q11 54 60.5 85.5t108.5 31.5q62 0 99 -26.5t37 -76.5q0 -48 -23.5 -78t-58 -41.5t-69.5 -18.5t-61.5 -18t-29.5 -31h207l-16 -90h-302l17 96q7 41 33.5 66.5t59.5 35t64.5 16t53 17.5t21.5 30q0 20 -23 27t-48 -0.5t-32 -24.5z" />
    <glyph glyph-name="threeinferior" unicode="&#x2083;" horiz-adv-x="382" 
d="M149 72h-58l14 75h54q62 0 62 39q0 29 -50 31q-22 1 -41 -7t-24 -23h-89q10 55 60.5 84t110.5 29q54 0 94 -27t40 -76q0 -63 -62 -88q20 -7 31.5 -26t11.5 -42q0 -37 -17 -64t-45.5 -40.5t-58.5 -19.5t-62 -6q-61 0 -104.5 30t-33.5 87h105q-1 -15 12.5 -21.5t35.5 -6.5
q25 0 44.5 10.5t19.5 30.5q0 31 -50 31z" />
    <glyph glyph-name="fourinferior" unicode="&#x2084;" horiz-adv-x="400" 
d="M188 286h130l-39 -224h45l-15 -85h-45l-11 -61h-100l11 61h-193l11 86zM179 62l22 127l-117 -127h95z" />
    <glyph glyph-name="fiveinferior" unicode="&#x2085;" horiz-adv-x="377" 
d="M322 291l-15 -86h-184l-8 -44h54q135 0 135 -100q0 -53 -29.5 -89.5t-68 -50t-80.5 -13.5q-70 0 -106.5 30t-25.5 94h101q-1 -20 12 -30t34 -10q24 0 41.5 14.5t17.5 37.5q0 17 -13 26t-32 9h-148q7 40 20.5 116t16.5 96h278z" />
    <glyph glyph-name="sixinferior" unicode="&#x2086;" horiz-adv-x="383" 
d="M205 45q0 16 -14 25t-35 9q-25 0 -43.5 -11t-18.5 -33q0 -15 14 -24t34 -9q25 0 44 11.5t19 31.5zM323 186h-94q1 22 -25 29t-53.5 -3t-31.5 -31l-7 -40q27 15 60.5 18t64 -5.5t51 -33.5t20.5 -61q0 -69 -55 -106t-126 -37q-62 0 -103 33.5t-30 91.5l25 140
q10 56 61 86.5t114 30.5q65 0 101 -27.5t28 -84.5z" />
    <glyph glyph-name="seveninferior" unicode="&#x2087;" horiz-adv-x="328" 
d="M95 -83h-112l182 278h-156l16 92h283l-3 -41z" />
    <glyph glyph-name="eightinferior" unicode="&#x2088;" horiz-adv-x="394" 
d="M88 31q-4 -14 9.5 -27.5t47.5 -13.5q33 0 50 13t19 28q3 16 -12.5 27.5t-41.5 11.5q-28 0 -48.5 -10.5t-23.5 -28.5zM-14 32q3 19 22.5 42t46.5 35q-15 8 -24 26t-9 36q0 58 50 92t124 34q59 0 97.5 -26.5t38.5 -74.5q0 -55 -58 -83q41 -21 41 -71q0 -69 -54.5 -102.5
t-133.5 -31.5q-71 0 -112.5 30t-28.5 94zM172 143q27 0 42 11.5t15 27.5q0 13 -12 23t-34 10q-27 0 -43 -12t-16 -28q0 -13 12.5 -22.5t35.5 -9.5z" />
    <glyph glyph-name="nineinferior" unicode="&#x2089;" horiz-adv-x="385" 
d="M114 165q0 -16 14 -25t35 -9q25 0 43.5 11t18.5 33q0 15 -14 24t-34 9q-25 0 -44 -11.5t-19 -31.5zM-9 24h96q-1 -22 25.5 -29t55 3t32.5 31l7 40q-27 -15 -61 -18t-64.5 5.5t-51 33.5t-20.5 61q0 69 55.5 106t125.5 37q62 0 103 -33.5t30 -91.5l-25 -140
q-10 -57 -60.5 -88t-113.5 -31q-68 0 -105.5 27.5t-28.5 86.5z" />
    <glyph glyph-name="Euro" unicode="&#x20ac;" horiz-adv-x="630" 
d="M30 211l19 109h60l4 25q1 4 2 10t2 11l2 10h-60l20 111h83q54 103 153 166t234 63q60 0 108 -17l-66 -131q-32 9 -66 9q-123 0 -198 -90h197l-44 -111h-212q-5 -20 -8 -34q0 -2 -1.5 -10t-1.5 -12h195l-41 -109h-137q26 -49 77 -69.5t93 -20.5q39 0 78 13l21 -135
q-57 -15 -123 -15q-139 0 -218.5 59.5t-93.5 167.5h-78z" />
    <glyph glyph-name="afii61289" unicode="&#x2113;" horiz-adv-x="392" 
d="M189 242l-17 -95q-8 -44 26.5 -61.5t92.5 -4.5l-13 -69q-51 -16 -91.5 -16t-70 16t-41 54.5t-1.5 96.5l-53 -24l-6 46q32 13 67 30l59 333q16 91 56.5 129t128.5 38q135 0 76 -193q-42 -146 -213 -280zM240 548q-6 -31 -22 -119.5t-21 -117.5q130 124 159 220
q8 26 11 43.5t3.5 40.5t-12.5 35.5t-39 12.5q-28 0 -49.5 -34.5t-29.5 -80.5z" />
    <glyph glyph-name="uni2117" unicode="&#x2117;" horiz-adv-x="816" 
d="M482 717q146 0 225.5 -86t79.5 -218q0 -112 -52.5 -208.5t-153 -157t-228.5 -60.5q-145 0 -224 86t-79 218q0 112 52.5 208.5t152.5 157t227 60.5zM161 305q0 -98 54.5 -160t154.5 -62q135 0 219.5 93t84.5 225q0 97 -54.5 158.5t-154.5 61.5q-134 0 -219 -93.5
t-85 -222.5zM377 267h66q92 0 141 70q40 57 22 115q-20 64 -99 71q-9 1 -18 1h-170l-63 -356h103zM406 430h67q28 0 32 -26q5 -28 -19 -42q-11 -7 -26 -7h-68z" />
    <glyph glyph-name="trademark" unicode="&#x2122;" horiz-adv-x="825" 
d="M316 607l-36 -204h-106l36 204h-94l16 92h295l-16 -92h-95zM567 699l60 -92l91 92h105l-52 -297h-105l16 90l18 71q-16 -18 -48.5 -53t-40.5 -44h-19l-54 97l-7 -71l-16 -90h-104l52 297h104z" />
    <glyph glyph-name="Omega" unicode="&#x2126;" horiz-adv-x="838" 
d="M469 574q-101 0 -168 -65t-84 -150q-14 -69 11.5 -130.5t86.5 -89.5l-25 -139h-280l23 133h106q-77 62 -77 183q0 109 61 202t160 145t211 52q136 0 222.5 -83.5t86.5 -213.5q0 -82 -38.5 -157t-120.5 -128h104l-23 -133h-279l25 139q80 32 128.5 103t48.5 148
q0 75 -45.5 129.5t-133.5 54.5z" />
    <glyph glyph-name="estimated" unicode="&#x212e;" horiz-adv-x="627" 
d="M270 -7q-99 0 -160.5 62.5t-61.5 174.5q0 165 95.5 260.5t230.5 95.5q58 0 103 -16.5t78.5 -54t39 -99.5t-15.5 -153h-402l-30 -170q48 -53 132 -53q125 0 206 93l32 -29q-54 -61 -113.5 -86t-133.5 -25zM366 539q-88 0 -148 -46l-33 -183h283l33 186q-47 43 -135 43z
" />
    <glyph glyph-name="onethird" unicode="&#x2153;" horiz-adv-x="815" 
d="M50 327l14 80h62l32 179l-54 -11l15 84l159 40l-52 -292h64l-14 -80h-226zM591 153h-57l14 75h53q32 0 44 5.5t16 27.5q3 17 -10.5 27.5t-34.5 10.5q-49 0 -67 -31h-89q10 55 60.5 83.5t109.5 28.5q54 0 94.5 -26t40.5 -76q0 -28 -17.5 -55t-46.5 -33q23 -7 35.5 -25.5
t12.5 -39.5q0 -65 -60 -99t-130 -34q-60 0 -102 30t-32 87h101q1 -30 51 -30q24 0 44 11.5t20 29.5q0 13 -13 23t-37 10zM599 708h113l-521 -713h-110z" />
    <glyph glyph-name="twothirds" unicode="&#x2154;" horiz-adv-x="892" 
d="M677 708h112l-520 -713h-110zM196 593h-98q11 54 60.5 85.5t108.5 31.5q62 0 99 -26.5t37 -76.5q0 -48 -23.5 -78t-58 -41.5t-69.5 -18.5t-61.5 -18t-29.5 -31h207l-16 -90h-302l17 96q7 41 33.5 66.5t59.5 35t64.5 16t53 17.5t21.5 30q0 20 -23 27t-48 -0.5t-32 -24.5z
M669 153h-57l13 75h53q32 0 44.5 5.5t16.5 27.5q3 17 -10.5 27.5t-34.5 10.5q-50 0 -68 -31h-89q10 55 61 83.5t110 28.5q54 0 94.5 -26t40.5 -76q0 -28 -18 -55t-47 -33q23 -7 35.5 -25.5t12.5 -39.5q0 -45 -32 -76.5t-73.5 -44t-84.5 -12.5q-60 0 -102 30t-32 87h101
q3 -30 52 -30q24 0 44 11.5t20 29.5q0 13 -13 23t-37 10z" />
    <glyph glyph-name="oneeighth" unicode="&#x215b;" horiz-adv-x="821" 
d="M50 327l16 88h62l30 171l-54 -11l15 84l159 40l-50 -284h64l-16 -88h-226zM594 708h111l-521 -713h-108zM527 112q-4 -14 9.5 -27.5t47.5 -13.5q33 0 50 13t19 28q3 16 -12.5 27.5t-41.5 11.5q-28 0 -48.5 -10.5t-23.5 -28.5zM425 113q3 19 22.5 42t46.5 35q-15 8 -24 26
t-9 36q0 58 50 92t124 34q59 0 97.5 -26.5t38.5 -74.5q0 -55 -58 -83q20 -10 30.5 -30t10.5 -41q0 -69 -54.5 -102.5t-133.5 -31.5q-71 0 -112.5 30t-28.5 94zM611 224q27 0 42 11.5t15 27.5q0 13 -12 23t-33 10q-28 0 -44 -12t-16 -28q0 -13 12.5 -22.5t35.5 -9.5z" />
    <glyph glyph-name="threeeighths" unicode="&#x215c;" horiz-adv-x="899" 
d="M665 708h112l-519 -713h-109zM604 111q0 -15 13.5 -26t44.5 -11q33 0 50 13.5t18 28.5q3 15 -12 26.5t-41 11.5q-30 0 -51.5 -11.5t-21.5 -31.5zM505 116q5 21 21 43t43 34q-28 15 -28 59q0 60 49.5 94.5t123.5 34.5q60 0 98.5 -26.5t38.5 -74.5q0 -58 -54 -83
q36 -18 36 -69q0 -69 -54.5 -103t-133.5 -33q-71 0 -112 30t-28 94zM639 258q0 -30 50 -30q49 0 57 34q4 16 -9.5 26.5t-37.5 10.5q-25 0 -42.5 -11.5t-17.5 -29.5zM228 481h-57l14 75h53q32 0 44 5.5t16 27.5q3 17 -10.5 27.5t-34.5 10.5q-49 0 -67 -31h-89
q10 55 60.5 83.5t109.5 28.5q54 0 94.5 -26t40.5 -76q0 -28 -17.5 -55t-46.5 -33q23 -7 35.5 -25.5t12.5 -39.5q0 -65 -60 -99t-130 -34q-60 0 -102 30t-32 87h101q1 -30 51 -30q24 0 44 11.5t20 29.5q0 13 -13 23t-37 10z" />
    <glyph glyph-name="fiveeighths" unicode="&#x215d;" horiz-adv-x="906" 
d="M670 708h112l-520 -713h-109zM611 111q0 -15 13 -26t44 -11q33 0 50.5 13.5t18.5 28.5q2 15 -13 26.5t-41 11.5q-30 0 -51 -11.5t-21 -31.5zM512 116q5 21 21 43t42 34q-27 16 -27 59q0 60 49.5 94.5t122.5 34.5q61 0 99.5 -26.5t38.5 -74.5q0 -58 -54 -83q36 -18 36 -69
q0 -69 -54.5 -103t-133.5 -33q-71 0 -112 30t-28 94zM646 258q0 -30 49 -30q50 0 58 34q4 16 -9.5 26.5t-37.5 10.5q-25 0 -42.5 -11.5t-17.5 -29.5zM394 700l-15 -86h-184l-8 -44h54q134 0 134 -103q0 -41 -16.5 -71.5t-44 -46.5t-56.5 -24t-60 -8q-70 0 -106.5 30
t-25.5 94h101q-1 -20 12 -30t34 -10q24 0 41.5 14.5t17.5 37.5q0 17 -13 26t-32 9h-148q7 40 20.5 116t16.5 96h278z" />
    <glyph glyph-name="seveneighths" unicode="&#x215e;" horiz-adv-x="810" 
d="M561 708h111l-520 -713h-109zM514 111q0 -15 13 -26t44 -11q33 0 50 13t19 29q3 15 -12.5 26.5t-41.5 11.5q-30 0 -51 -11.5t-21 -31.5zM414 116q5 21 21 43t43 34q-28 15 -28 59q0 60 50 94.5t124 34.5q59 0 97.5 -26.5t38.5 -74.5q0 -59 -53 -83q37 -19 37 -69
q0 -69 -55 -103t-134 -33q-71 0 -112.5 30t-28.5 94zM549 259q0 -31 49 -31q50 0 58 34q4 16 -9.5 26.5t-36.5 10.5q-25 0 -43 -11.5t-18 -28.5zM170 329h-102l184 284h-156l15 86h282l-3 -41z" />
    <glyph glyph-name="arrowleft" unicode="&#x2190;" horiz-adv-x="631" 
d="M241 107l-201 243l288 242l62 -71l-129 -110h339l-22 -125h-340l85 -114z" />
    <glyph glyph-name="arrowup" unicode="&#x2191;" horiz-adv-x="548" 
d="M49 392l286 244l199 -245l-84 -75l-91 110l-60 -339h-125l60 340l-132 -105z" />
    <glyph glyph-name="arrowright" unicode="&#x2192;" horiz-adv-x="631" 
d="M410 593l200 -242l-287 -242l-62 71l128 109h-339l22 126h341l-86 114z" />
    <glyph glyph-name="arrowdown" unicode="&#x2193;" horiz-adv-x="547" 
d="M519 314l-285 -244l-199 245l83 75l91 -109l60 339h126l-60 -341l132 106z" />
    <glyph glyph-name="uni2196" unicode="&#x2196;" horiz-adv-x="524" 
d="M43 197l61 344l342 -2l-14 -102l-155 -1l198 -240l-106 -88l-197 240l-34 -155z" />
    <glyph glyph-name="uni2197" unicode="&#x2197;" horiz-adv-x="524" 
d="M142 444l21 95h343q-10 -57 -30.5 -171.5t-30.5 -171.5l-103 -4q4 26 12.5 78t13.5 78l-283 -240l-72 90l282 240z" />
    <glyph glyph-name="uni2198" unicode="&#x2198;" horiz-adv-x="556" 
d="M98 153l13 95l156 6l-198 240l104 90l198 -240q5 26 14.5 78t13.5 78l101 -4q-10 -55 -29 -169.5t-29 -173.5h-344z" />
    <glyph glyph-name="uni2199" unicode="&#x2199;" horiz-adv-x="557" 
d="M429 248l-21 -95h-343q9 51 29.5 166t31.5 177l104 4q-5 -26 -13.5 -78t-13.5 -78l283 240l72 -90l-282 -240z" />
    <glyph glyph-name="partialdiff" unicode="&#x2202;" horiz-adv-x="580" 
d="M536 250q-23 -119 -99.5 -188.5t-199.5 -69.5q-106 0 -161.5 60t-55.5 148q0 94 57 170.5t160 102.5q112 20 160 -20q-25 60 -87.5 95t-130.5 45l43 109q165 -12 256.5 -143t57.5 -309zM259 119q51 0 86.5 33.5t48.5 86.5q13 50 -13.5 84t-79.5 34q-58 0 -96.5 -42.5
t-38.5 -94.5q0 -42 24.5 -71.5t68.5 -29.5z" />
    <glyph glyph-name="Delta" unicode="&#x2206;" horiz-adv-x="827" 
d="M751 31l-5 -31h-768l6 36l415 664h170zM457 546l-250 -411h355z" />
    <glyph glyph-name="product" unicode="&#x220f;" horiz-adv-x="693" 
d="M528 -192h-145l133 756h-241l-133 -756h-149l157 892h535z" />
    <glyph glyph-name="summation" unicode="&#x2211;" horiz-adv-x="605" 
d="M407 368l-197 -224h316l-25 -144h-511l16 92l237 272l-133 261l13 75h495l-24 -136h-289z" />
    <glyph glyph-name="minus" unicode="&#x2212;" horiz-adv-x="526" 
d="M50 213l23 131h396l-23 -131h-396z" />
    <glyph glyph-name="uni2215" unicode="&#x2215;" horiz-adv-x="492" 
d="M455 708h121l-518 -713h-121z" />
    <glyph glyph-name="uni2219" unicode="&#x2219;" horiz-adv-x="277" 
d="M53 301q0 48 32.5 74.5t73.5 26.5q31 0 50.5 -18.5t19.5 -51.5q0 -47 -31.5 -74t-71.5 -27q-31 0 -52 18.5t-21 51.5z" />
    <glyph glyph-name="radical" unicode="&#x221a;" horiz-adv-x="614" 
d="M677 697l-352 -697h-98l-110 307l-77 -29l-20 85l203 85l91 -297l288 569z" />
    <glyph glyph-name="infinity" unicode="&#x221e;" horiz-adv-x="746" 
d="M189 158q-69 3 -105 42t-36 95q0 72 57.5 130.5t148.5 58.5q36 0 72 -25t62 -64q41 37 88 63t81 26q72 0 110 -41t38 -100q0 -72 -54 -127t-144 -58q-80 -3 -145 89q-97 -92 -173 -89zM210 266q39 3 101 54q-2 2 -9.5 10.5t-9.5 10.5t-8.5 9t-10 9.5t-9.5 7t-10.5 6
t-11 3t-12.5 1.5q-30 0 -50.5 -15.5t-26.5 -37.5q-6 -23 9.5 -40t47.5 -18zM524 266q31 1 51 16.5t24 37.5q5 23 -9.5 40t-45.5 17q-39 0 -103 -58q14 -19 39 -37t44 -16z" />
    <glyph glyph-name="integral" unicode="&#x222b;" horiz-adv-x="471" 
d="M538 684l-54 -118q-35 26 -69 26q-29 0 -52 -20t-29 -58l-91 -516q-15 -85 -68 -148t-120 -63q-74 0 -133 29l46 122q34 -21 66 -18q52 6 65 78l91 516q12 68 51 115t86 66.5t98 19.5q59 0 113 -31z" />
    <glyph glyph-name="approxequal" unicode="&#x2248;" horiz-adv-x="586" 
d="M152 320l-78 48q31 52 78.5 82t96.5 23q31 -4 80 -27t72 -27q42 -7 62 40l83 -36q-25 -71 -71.5 -97t-98.5 -12q-24 6 -70.5 24.5t-69.5 23.5q-53 11 -84 -42zM115 110l-78 48q31 52 78.5 82t96.5 23q31 -4 80 -27t72 -27q42 -7 62 40l83 -36q-25 -71 -71.5 -97
t-98.5 -12q-24 6 -70.5 24.5t-69.5 23.5q-53 11 -84 -42z" />
    <glyph glyph-name="notequal" unicode="&#x2260;" horiz-adv-x="590" 
d="M43 128l23 128h166l75 107h-223l23 129h297l68 92l53 -32l-46 -60h70l-23 -129h-142l-76 -107h200l-23 -128h-273l-69 -93l-52 33l45 60h-93z" />
    <glyph glyph-name="lessequal" unicode="&#x2264;" horiz-adv-x="457" 
d="M15 72l20 116h347l-20 -116h-347zM89 438v5l278 220l70 -86l-169 -137l120 -133l-99 -86z" />
    <glyph glyph-name="greaterequal" unicode="&#x2265;" horiz-adv-x="456" 
d="M387 188l-20 -116h-347l20 116h347zM423 443v-5l-278 -217l-70 86l168 133l-121 137l101 86z" />
    <glyph glyph-name="lozenge" unicode="&#x25ca;" horiz-adv-x="605" 
d="M583 351l-270 -343h-120l-152 343l273 345h120zM192 351l85 -212l154 212l-79 213z" />
    <glyph glyph-name="commaaccent" unicode="&#xf6c3;" horiz-adv-x="382" 
d="M169 -286h-76l34 104q-53 8 -44 60q7 38 34.5 57t62.5 19q31 0 50 -21.5t14 -55.5q-6 -29 -75 -163z" />
    <glyph glyph-name="fi" unicode="&#xfb01;" horiz-adv-x="652" 
d="M481 692l-62 -111q-22 11 -41 11q-29 0 -52 -20t-29 -58l-5 -29h122l-22 -125h-122l-63 -360h-144l63 360h-89l22 125h89l5 29q12 68 51 115t86.5 66.5t98.5 19.5q46 0 92 -23zM483 495h144l-87 -495h-144zM494 611q0 45 31 70t70 25q28 0 47 -18t19 -49q0 -44 -30 -69.5
t-68 -25.5q-29 0 -49 18t-20 49z" />
    <glyph glyph-name="fl" unicode="&#xfb02;" horiz-adv-x="655" 
d="M481 693l-62 -111q-19 10 -41 10q-29 0 -52 -20t-29 -58l-5 -29h115l-22 -125h-115l-63 -360h-144l63 360h-89l22 125h89l5 29q12 68 51 115t86.5 66.5t98.5 19.5q49 0 92 -22zM519 700h144l-123 -700h-144z" />
    <glyph glyph-name="CR" horiz-adv-x="322" 
 />
    <glyph glyph-name="g.alt" horiz-adv-x="606" 
d="M-23 -68h134q-6 -54 23 -77t83 -23q57 0 98.5 27.5t41.5 77.5q0 71 -107 71q-106 0 -166.5 55.5t-60.5 150.5q0 137 95 216t221 79q77 0 111 -27l66 70l90 -80l-76 -75q42 -63 26 -142q-26 -121 -137 -173q48 -23 67 -59t19 -70q0 -116 -93.5 -182t-216.5 -66
q-127 0 -182.5 59.5t-35.5 167.5zM316 381q-64 0 -108 -39t-44 -103q0 -45 30 -72.5t80 -27.5q59 0 102.5 36.5t43.5 100.5q0 45 -28.5 75t-75.5 30z" />
    <glyph glyph-name="gcircumflex.alt" horiz-adv-x="605" 
d="M-23 -68h134q-6 -54 23 -77t83 -23q57 0 98.5 27.5t41.5 77.5q0 71 -107 71q-106 0 -166.5 55.5t-60.5 150.5q0 137 95 216t221 79q75 0 112 -29l66 63l87 -73l-74 -73q42 -63 26 -142q-26 -121 -137 -173q48 -23 67 -59t19 -70q0 -116 -93.5 -182t-216.5 -66
q-127 0 -182.5 59.5t-35.5 167.5zM316 381q-64 0 -108 -39t-44 -103q0 -45 30 -72.5t80 -27.5q59 0 102.5 36.5t43.5 100.5q0 45 -28.5 75t-75.5 30zM360 613l-56 -43h-140l1 6l179 140h72l124 -140l-1 -6h-136z" />
    <glyph glyph-name="gbreve.alt" horiz-adv-x="606" 
d="M427 713h116q-13 -72 -64 -109t-123 -37q-74 0 -114.5 38t-21.5 108h117q-9 -47 36 -47t54 47zM-23 -68h134q-6 -54 23 -77t83 -23q57 0 98.5 27.5t41.5 77.5q0 71 -107 71q-106 0 -166.5 55.5t-60.5 150.5q0 137 95 216t221 79q77 0 111 -27l66 70l90 -80l-76 -75
q42 -63 26 -142q-26 -121 -137 -173q48 -23 67 -59t19 -70q0 -116 -93.5 -182t-216.5 -66q-127 0 -182.5 59.5t-35.5 167.5zM316 381q-64 0 -108 -39t-44 -103q0 -45 30 -72.5t80 -27.5q59 0 102.5 36.5t43.5 100.5q0 45 -28.5 75t-75.5 30z" />
    <glyph glyph-name="gdotaccent.alt" horiz-adv-x="606" 
d="M289 635q0 42 30 64.5t70 22.5q30 0 50 -16.5t20 -46.5q0 -41 -30.5 -64.5t-68.5 -23.5q-30 0 -50.5 17t-20.5 47zM-23 -68h134q-6 -54 23 -77t83 -23q57 0 98.5 27.5t41.5 77.5q0 71 -107 71q-106 0 -166.5 55.5t-60.5 150.5q0 137 95 216t221 79q77 0 111 -27l66 70
l90 -80l-76 -75q42 -63 26 -142q-26 -121 -137 -173q48 -23 67 -59t19 -70q0 -116 -93.5 -182t-216.5 -66q-127 0 -182.5 59.5t-35.5 167.5zM316 381q-64 0 -108 -39t-44 -103q0 -45 30 -72.5t80 -27.5q59 0 102.5 36.5t43.5 100.5q0 45 -28.5 75t-75.5 30z" />
    <glyph glyph-name="gcommaaccent.alt" horiz-adv-x="606" 
d="M287 634q0 16 7 35t14 31t24.5 39.5t25.5 40.5h77l-30 -77q45 -6 45 -48q0 -41 -29.5 -64t-66.5 -23q-30 0 -48.5 17.5t-18.5 48.5zM-23 -68h134q-6 -54 23 -77t83 -23q57 0 98.5 27.5t41.5 77.5q0 71 -107 71q-106 0 -166.5 55.5t-60.5 150.5q0 137 95 216t221 79
q77 0 111 -27l66 70l90 -80l-76 -75q42 -63 26 -142q-26 -121 -137 -173q48 -23 67 -59t19 -70q0 -116 -93.5 -182t-216.5 -66q-127 0 -182.5 59.5t-35.5 167.5zM316 381q-64 0 -108 -39t-44 -103q0 -45 30 -72.5t80 -27.5q59 0 102.5 36.5t43.5 100.5q0 45 -28.5 75
t-75.5 30z" />
    <glyph glyph-name="commaaccent.alt" horiz-adv-x="406" 
d="M293 775h76l-33 -104q44 -7 44 -49q0 -40 -29.5 -63t-65.5 -23q-39 0 -59 27.5t-3 66.5q19 46 70 145z" />
    <glyph glyph-name="zero.tf" 
d="M217 401l-18 -101q-16 -89 19 -135.5t105 -46.5t121.5 46.5t67.5 135.5l18 101q15 86 -19.5 132.5t-103.5 46.5q-71 0 -123 -45.5t-67 -133.5zM44 300l18 102q28 156 131 238t239 82q134 0 206.5 -83t45.5 -237l-18 -101q-27 -153 -129.5 -237t-233.5 -84
q-63 0 -115.5 19.5t-90 57.5t-52.5 100.5t-1 142.5z" />
    <glyph glyph-name="one.tf" 
d="M61 0l23 131h180l66 371l-171 -53l25 139l333 112l-100 -569h182l-23 -131h-515z" />
    <glyph glyph-name="two.tf" 
d="M261 492h-150q26 113 115 165t205 52q107 0 176.5 -48t69.5 -139q0 -256 -323 -256q-28 0 -49 -3t-46.5 -11.5t-42.5 -29t-23 -51.5l-5 -27h419l-25 -144h-566q20 114 30 172q12 67 45.5 114.5t82 71.5t98 34t106.5 10q33 0 62.5 7t55 30t25.5 60t-30 57t-83 20
q-52 0 -94.5 -22t-52.5 -62z" />
    <glyph glyph-name="three.tf" 
d="M357 295h-107l23 127h97q130 0 143 69q6 30 -18.5 54.5t-94.5 24.5q-115 0 -140 -68h-155q19 74 72 123t115 68t134 19q99 0 171.5 -43.5t72.5 -133.5q0 -60 -32.5 -107.5t-87.5 -69.5q56 -25 74 -77.5t-3 -113.5q-62 -181 -329 -181q-72 0 -129.5 21.5t-93 74.5
t-26.5 131h157q-3 -46 30 -67t87 -21q22 0 45 3.5t50 13t44 30.5t17 51q0 72 -116 72z" />
    <glyph glyph-name="four.tf" 
d="M492 699h155l-77 -438h80l-24 -135h-80l-22 -127h-153l22 127h-373l15 160zM191 261h226l44 249z" />
    <glyph glyph-name="five.tf" 
d="M674 699l-24 -140h-368l-19 -108h123q48 0 86 -6.5t73.5 -22t55.5 -41.5t30.5 -65t-1.5 -93q-11 -62 -44.5 -108.5t-80 -72.5t-96 -38.5t-100.5 -12.5q-131 0 -199 53.5t-48 171.5h154q-8 -43 28 -65t87 -22q25 0 52 6t56.5 28.5t36.5 59.5q5 28 -5 47.5t-29.5 29
t-39.5 13.5t-40 4h-268q58 330 67 382h513z" />
    <glyph glyph-name="six.tf" 
d="M252 474l-14 -78q38 35 78.5 49.5t96.5 14.5q105 0 172 -51t67 -146q0 -71 -29.5 -125.5t-79 -86t-108.5 -47.5t-124 -16q-57 0 -106 13.5t-87 41t-55.5 75t-6.5 109.5l44 247q21 116 117 178t217 62q126 0 195 -50.5t54 -162.5h-146q-1 41 -37 60.5t-90 19.5
q-57 0 -103 -29.5t-55 -77.5zM335 126q67 0 113 31t46 83q0 41 -32.5 64.5t-89.5 23.5q-71 0 -117 -30.5t-46 -83.5q0 -41 34 -64.5t92 -23.5z" />
    <glyph glyph-name="seven.tf" 
d="M280 0h-175l359 558h-314l25 142h515l-8 -77z" />
    <glyph glyph-name="eight.tf" 
d="M354 300q-63 0 -107.5 -23.5t-52.5 -63.5q-7 -35 21.5 -63.5t106.5 -28.5t116.5 28.5t43.5 63.5q6 40 -27.5 63.5t-100.5 23.5zM32 221q7 37 43 80.5t92 61.5q-44 26 -58.5 72t2.5 98q26 87 112.5 135t201.5 48q119 0 188 -46t69 -133q0 -55 -31.5 -99.5t-85.5 -66.5
q46 -18 65.5 -55.5t19.5 -75.5q0 -85 -52 -145t-130 -86t-172 -25q-62 0 -113.5 13.5t-91 41t-55.5 74.5t-4 108zM262 497q0 -35 29 -57.5t84 -22.5q58 0 95 25t46 62q8 32 -20.5 58.5t-92.5 26.5q-72 0 -106.5 -31t-34.5 -61z" />
    <glyph glyph-name="nine.tf" 
d="M482 228l13 78q-38 -35 -78.5 -49.5t-96.5 -14.5q-105 0 -172 51t-67 146q0 71 29.5 125.5t79.5 86t109 47.5t123 16q57 0 106 -13.5t87 -41t55.5 -75t6.5 -109.5l-43 -247q-22 -122 -120 -181t-223 -59q-127 0 -197.5 51t-55.5 162h146q1 -40 39 -58.5t93 -18.5
q61 0 108.5 26t57.5 78zM398 576q-67 0 -113 -31t-46 -83q0 -41 32.5 -64.5t89.5 -23.5q71 0 117.5 30.5t46.5 83.5q0 41 -34.5 64.5t-92.5 23.5z" />
    <glyph glyph-name="Euro.tf" 
d="M72 211l19 109h60l4 25q1 4 2 10t2 11l2 10h-60l20 111h83q54 103 153 166t234 63q60 0 108 -17l-66 -131q-32 9 -66 9q-123 0 -198 -90h197l-44 -111h-212q-5 -20 -8 -34q0 -2 -1.5 -10t-1.5 -12h195l-41 -109h-137q26 -49 77 -69.5t93 -20.5q39 0 78 13l21 -135
q-57 -15 -123 -15q-139 0 -218.5 59.5t-93.5 167.5h-78z" />
    <glyph glyph-name="cent.tf" 
d="M480 149l71 -102q-57 -51 -148 -70l-14 -76h-132l14 78q-74 22 -117 75.5t-43 134.5q0 110 68 189t182 109l13 77h132l-13 -76q69 -16 114 -69l-98 -89q-29 36 -97 36q-57 0 -106 -45t-49 -108q0 -49 32 -80t77 -31q66 0 114 47z" />
    <glyph glyph-name="sterling.tf" 
d="M312 434q0 -18 2 -44h198l-22 -125h-170q-7 -37 -28.5 -77t-55.5 -47h377l-25 -141h-561l25 142q51 1 76.5 33.5t38.5 89.5h-93l22 125h69q-3 22 -3 50q0 117 81.5 194.5t216.5 77.5q112 0 167 -57.5t34 -162.5h-135q7 45 -18.5 65t-71.5 20q-50 0 -87 -37t-37 -106z" />
    <glyph glyph-name="florin.tf" 
d="M577 356h-143l-64 -361q-12 -70 -50.5 -118t-88 -65.5t-104 -11.5t-99.5 38l67 101q48 -30 84.5 -15t46.5 71l64 361h-136l22 121h134l7 37q19 100 86.5 149.5t148.5 49.5q71 0 130 -42l-67 -101q-29 20 -67 20q-72 0 -87 -76l-7 -37h145z" />
    <glyph glyph-name="yen.tf" 
d="M85 102l19 107h150l10 58h-150l19 107h94l-157 318l1 8h176l63 -142l57 -145l111 144l118 143h179l-1 -8l-279 -318h92l-19 -107h-151l-10 -58h151l-19 -107h-151l-18 -102h-153l18 102h-150z" />
    <glyph glyph-name="dollar.tf" 
d="M693 581l-133 -57q-9 32 -51 55.5t-98 23.5q-58 0 -103.5 -22t-53.5 -64q-5 -28 15.5 -45.5t48 -23.5t71.5 -10q45 -5 80 -12t72.5 -22t62.5 -36t41 -54t16 -76q0 -111 -74 -179.5t-211 -81.5l-16 -95h-137l16 94q-89 9 -153.5 57.5t-82.5 123.5l141 63q13 -47 65.5 -78
t114.5 -31q56 0 92 7t60.5 30t24.5 64q0 73 -149 86q-27 3 -48 5.5t-46 7.5t-42.5 11t-38 15t-32.5 20.5t-25.5 27.5t-16.5 35t-6.5 43.5t4.5 53.5q17 93 94.5 145.5t179.5 60.5l14 83h132l-14 -83q149 -18 186 -142z" />
    <glyph glyph-name="zero.denom" horiz-adv-x="408" 
d="M118 207l-10 -56q-9 -50 33 -65q40 -15 76 12q27 20 32 53l9 56q8 50 -32 67q-38 16 -74 -11q-28 -20 -34 -56zM10 154l10 54q18 98 106 141q77 39 150.5 13.5t83.5 -100.5q3 -25 -2 -54l-10 -54q-18 -99 -106 -144q-76 -39 -149 -13.5t-84 98.5q-5 27 1 59z" />
    <glyph glyph-name="one.denom" horiz-adv-x="282" 
d="M-18 0l15 83h62l31 176l-54 -11l15 84l159 40l-51 -289h64l-15 -83h-226z" />
    <glyph glyph-name="two.denom" horiz-adv-x="377" 
d="M129 263h-98q11 54 60.5 85.5t108.5 31.5q62 0 99 -26.5t37 -76.5q0 -48 -23.5 -78t-58 -41.5t-69.5 -18.5t-61 -16.5t-29 -26.5h207l-17 -96h-302l17 96q7 41 33.5 66.5t59.5 35t64.5 16t53 17.5t21.5 30q0 20 -23 27t-48 -0.5t-32 -24.5z" />
    <glyph glyph-name="three.denom" horiz-adv-x="382" 
d="M162 149h-58l14 75h54q62 0 62 39q0 29 -50 31q-22 1 -41 -7t-24 -23h-89q10 55 60.5 84t110.5 29q54 0 94 -27t40 -76q0 -63 -62 -88q20 -7 31.5 -26t11.5 -42q0 -37 -17 -64t-45.5 -40.5t-58.5 -19.5t-62 -6q-61 0 -104.5 30t-33.5 87h105q-1 -15 12.5 -21.5t35.5 -6.5
q25 0 44.5 10.5t19.5 30.5q0 31 -50 31z" />
    <glyph glyph-name="four.denom" horiz-adv-x="401" 
d="M203 370h130l-39 -224h45l-15 -85h-45l-11 -61h-100l11 61h-193l11 86zM194 146l22 127l-117 -127h95z" />
    <glyph glyph-name="five.denom" horiz-adv-x="376" 
d="M335 370l-15 -86h-184l-8 -44h54q135 0 135 -100q0 -53 -29.5 -89.5t-68 -50t-80.5 -13.5q-70 0 -106.5 30t-25.5 94h101q-1 -20 12 -30t34 -10q24 0 41.5 14.5t17.5 37.5q0 17 -13 26t-32 9h-148q7 40 20 116t17 96h278z" />
    <glyph glyph-name="six.denom" horiz-adv-x="386" 
d="M221 123q0 16 -14 25t-35 9q-25 0 -43.5 -11t-18.5 -33q0 -15 14 -24t34 -9q25 0 44 11.5t19 31.5zM339 264h-94q1 22 -25 29t-53.5 -3t-31.5 -31l-7 -40q27 15 60.5 18t64 -5.5t51 -33.5t20.5 -61q0 -69 -55 -106t-126 -37q-62 0 -103 33.5t-30 91.5l25 140
q10 56 61 86.5t114 30.5q65 0 101 -27.5t28 -84.5z" />
    <glyph glyph-name="seven.denom" horiz-adv-x="328" 
d="M110 0h-112l182 278h-156l16 92h283l-3 -41z" />
    <glyph glyph-name="eight.denom" horiz-adv-x="394" 
d="M102 109q0 -14 14 -25t44 -11q33 0 50 13t19 28q3 16 -12.5 27.5t-41.5 11.5q-31 0 -52 -12t-21 -32zM1 115q4 20 23 42.5t46 34.5q-15 8 -24 26t-9 36q0 58 50 92t124 34q59 0 97.5 -26.5t38.5 -74.5q0 -55 -58 -83q41 -20 41 -71q0 -47 -28 -78t-69 -44t-91 -12
q-71 0 -112.5 30t-28.5 94zM187 226q27 0 42 11.5t15 27.5q0 13 -12 23t-33 10q-27 0 -43.5 -12t-16.5 -28q0 -13 12.5 -22.5t35.5 -9.5z" />
    <glyph glyph-name="nine.denom" horiz-adv-x="386" 
d="M128 246q0 -16 14 -25t35 -9q25 0 43.5 11t18.5 33q0 15 -14 24t-34 9q-25 0 -44 -11.5t-19 -31.5zM5 105h96q-1 -22 25.5 -29t55 3t32.5 31l7 40q-27 -15 -61 -18t-64.5 5.5t-51 33.5t-20.5 61q0 69 55.5 106t125.5 37q62 0 102.5 -33.5t30.5 -91.5l-24 -140
q-10 -57 -61 -88t-114 -31q-68 0 -105.5 27.5t-28.5 86.5z" />
    <glyph glyph-name="zero.num" horiz-adv-x="408" 
d="M178 548l-10 -56q-9 -50 33 -65q39 -15 76 12q26 20 32 53l10 56q9 51 -33 67q-38 15 -75 -11q-27 -20 -33 -56zM70 495l10 54q18 98 106 141q77 39 150.5 13.5t83.5 -100.5q3 -25 -2 -54l-10 -54q-18 -99 -106 -144q-76 -39 -149 -13.5t-84 98.5q-5 27 1 59z" />
    <glyph glyph-name="one.num" horiz-adv-x="284" 
d="M43 340l15 83h62l31 176l-54 -11l15 84l159 40l-51 -289h64l-15 -83h-226z" />
    <glyph glyph-name="two.num" horiz-adv-x="378" 
d="M188 593h-98q11 54 60.5 85.5t108.5 31.5q62 0 99 -26.5t37 -76.5q0 -48 -23.5 -78t-58 -41.5t-69.5 -18.5t-61 -16.5t-29 -26.5h207l-17 -96h-302l17 96q7 41 33.5 66.5t59.5 35t64.5 16t53 17.5t21.5 30q0 20 -23 27t-48 -0.5t-32 -24.5z" />
    <glyph glyph-name="three.num" horiz-adv-x="383" 
d="M222 484h-58l14 75h54q62 0 62 39q0 29 -50 31q-22 1 -41 -7t-24 -23h-89q10 55 60.5 84t110.5 29q54 0 94 -27t40 -76q0 -63 -62 -88q20 -7 31.5 -26t11.5 -42q0 -37 -17 -64t-45.5 -40.5t-58.5 -19.5t-62 -6q-61 0 -104.5 30t-33.5 87h105q-1 -15 12.5 -21.5t35.5 -6.5
q25 0 44.5 10.5t19.5 30.5q0 31 -50 31z" />
    <glyph glyph-name="four.num" horiz-adv-x="401" 
d="M262 704h130l-39 -224h45l-15 -85h-45l-11 -61h-100l11 61h-193l11 86zM253 480l22 127l-117 -127h95z" />
    <glyph glyph-name="five.num" horiz-adv-x="376" 
d="M394 701l-15 -86h-184l-8 -44h54q135 0 135 -100q0 -53 -29.5 -89.5t-68 -50t-80.5 -13.5q-70 0 -106.5 30t-25.5 94h101q-1 -20 12 -30t34 -10q24 0 41.5 14.5t17.5 37.5q0 17 -13 26t-32 9h-148q7 40 20.5 116t16.5 96h278z" />
    <glyph glyph-name="six.num" horiz-adv-x="383" 
d="M278 459q0 16 -14 25t-35 9q-25 0 -43.5 -11t-18.5 -33q0 -15 14 -24t34 -9q25 0 44 11.5t19 31.5zM396 600h-94q1 22 -25 29t-53.5 -3t-31.5 -31l-7 -40q27 15 60.5 18t64 -5.5t51 -33.5t20.5 -61q0 -69 -55 -106t-126 -37q-62 0 -103 33.5t-30 91.5l25 140
q10 56 61 86.5t114 30.5q65 0 101 -27.5t28 -84.5z" />
    <glyph glyph-name="seven.num" horiz-adv-x="329" 
d="M169 332h-112l182 278h-156l16 92h283l-3 -41z" />
    <glyph glyph-name="eight.num" horiz-adv-x="395" 
d="M161 443q0 -14 14 -25t44 -11q33 0 50 13t19 28q3 16 -12.5 27.5t-41.5 11.5q-31 0 -52 -12t-21 -32zM60 449q4 20 23 42.5t46 34.5q-15 8 -24 26t-9 36q0 58 50 92t124 34q59 0 97.5 -26.5t38.5 -74.5q0 -56 -59 -83q42 -20 42 -71q0 -47 -28 -78t-69 -44t-91 -12
q-71 0 -112.5 30t-28.5 94zM246 560q27 0 42 11.5t15 27.5q0 13 -12 23t-34 10q-27 0 -43 -12t-16 -28q0 -13 12.5 -22.5t35.5 -9.5z" />
    <glyph glyph-name="nine.num" horiz-adv-x="386" 
d="M187 581q0 -16 14 -25t35 -9q25 0 43.5 11t18.5 33q0 15 -14 24t-34 9q-25 0 -44 -11.5t-19 -31.5zM64 440h96q-1 -22 25.5 -29t55 3t32.5 31l7 40q-27 -15 -61 -18t-64.5 5.5t-51 33.5t-20.5 61q0 69 55.5 106t125.5 37q62 0 103 -33.5t30 -91.5l-25 -140
q-10 -57 -60.5 -88t-113.5 -31q-68 0 -105.5 27.5t-28.5 86.5z" />
    <glyph glyph-name="parenleft.case" horiz-adv-x="376" 
d="M374 820l55 -99q-91 -66 -150 -165t-77 -205q-21 -116 1 -214t89 -162l-89 -97q-162 122 -162 369q0 187 90.5 332.5t242.5 240.5z" />
    <glyph glyph-name="parenright.case" horiz-adv-x="377" 
d="M98 721l89 99q78 -62 122 -161.5t44 -218.5q0 -175 -82 -320t-245 -242l-55 97q180 129 223 376q19 107 -4.5 206t-91.5 164z" />
    <glyph glyph-name="hyphen.case" horiz-adv-x="506" 
d="M61 274l22 127h375l-22 -127h-375z" />
    <glyph glyph-name="bracketleft.case" horiz-adv-x="377" 
d="M267 -92h-256l156 882h256l-22 -121h-114l-112 -638h114z" />
    <glyph glyph-name="bracketright.case" horiz-adv-x="378" 
d="M230 -94h-256l22 123h114l112 638h-114l22 121h256z" />
    <glyph glyph-name="braceleft.case" horiz-adv-x="371" 
d="M276 12l-20 -111q-114 -21 -163 23t-32 139l26 149q2 17 2 33.5t-14 28.5t-43 12l19 107q42 0 58.5 20.5t22.5 53.5l25 141q37 214 254 173l-20 -113q-39 9 -64 -11t-31 -57l-23 -133q-1 -3 -3.5 -17.5t-3 -17.5t-3 -15t-4.5 -15.5t-6 -13t-8.5 -13t-11 -10.5t-14 -10.5
t-17.5 -8t-22 -7.5q46 -14 54.5 -44.5t-4.5 -69.5q-1 -9 -2 -13l-23 -130q-8 -48 5 -61t66 -9z" />
    <glyph glyph-name="bar.case" horiz-adv-x="297" 
d="M297 750l-148 -839h-137l148 839h137z" />
    <glyph glyph-name="braceright.case" horiz-adv-x="372" 
d="M-24 -99l20 111q52 -4 69.5 9t25.5 61l23 130q1 4 3.5 19.5t3.5 19t4 16t5.5 16.5t7.5 13.5t11 13.5t14 10.5t19 10.5t24 8q-12 4 -21.5 8t-15.5 10.5t-10.5 10.5t-6 14t-2.5 13.5t0.5 16.5t1.5 16t3 19.5t4 19.5l23 133q7 37 -10.5 57t-60.5 11l20 113q118 21 165 -25
t29 -148l-25 -141q-2 -18 -2 -34.5t14 -28t43 -11.5l-19 -107q-29 0 -47 -12.5t-24 -26.5t-10 -35l-26 -149q-17 -95 -81.5 -139t-171.5 -23z" />
    <glyph glyph-name="guilsinglleft.case" horiz-adv-x="399" 
d="M56 338l178 221h153v2l-178 -223q73 -169 100 -223h-153z" />
    <glyph glyph-name="guilsinglright.case" horiz-adv-x="400" 
d="M259 563l100 -222l-178 -223h-153l177 223l-98 223l-1 -1h153z" />
    <glyph glyph-name="guillemotleft.case" horiz-adv-x="597" 
d="M61 356l178 221h153v2l-178 -223q73 -169 100 -223h-153zM258 356l178 221h153v2l-178 -223l100 -223h-153z" />
    <glyph glyph-name="guillemotright.case" horiz-adv-x="596" 
d="M457 577l100 -222l-178 -222h-154l178 222l-99 224q-1 -1 -1 -2h154zM260 577l100 -222l-178 -222h-153l178 222l-99 224q-1 -1 -1 -2h153z" />
    <glyph glyph-name="endash.case" horiz-adv-x="612" 
d="M59 265l22 125h481l-22 -125h-481z" />
    <glyph glyph-name="emdash.case" horiz-adv-x="705" 
d="M59 266l22 125h574l-22 -125h-574z" />
    <glyph glyph-name="bullet.case" horiz-adv-x="421" 
d="M191 183q-54 0 -86.5 31t-32.5 82q0 68 49 113t117 45q52 0 84 -31.5t32 -82.5q0 -68 -48 -112.5t-115 -44.5z" />
    <glyph glyph-name="periodcentered.case" horiz-adv-x="299" 
d="M65 314q0 48 32.5 74t74.5 26q30 0 50.5 -18.5t20.5 -52.5q0 -46 -32 -73t-72 -27q-31 0 -52.5 18.5t-21.5 52.5z" />
    <glyph glyph-name="a.alt" horiz-adv-x="560" 
d="M281 508q123 0 184 -42.5t42 -153.5l-55 -312h-122l-3 49q-53 -59 -166 -59q-74 0 -117 36t-43 106q0 91 70.5 142t162.5 51q30 0 67.5 -8.5t60.5 -23.5l3 19q7 41 -24.5 57t-80.5 16q-77 0 -163 -33l-2 111q103 45 186 45zM220 110q36 0 70.5 17t50.5 56q-35 30 -95 30
q-44 0 -71 -16t-28 -43q-2 -44 73 -44z" />
    <glyph glyph-name="agrave.alt" horiz-adv-x="560" 
d="M198 705l1 7h169l41 -133l-1 -7h-126zM281 508q123 0 184 -42.5t42 -153.5l-55 -312h-122l-3 49q-65 -58 -168 -58q-72 0 -115 35.5t-43 105.5q0 91 70.5 142t162.5 51q30 0 67.5 -8.5t60.5 -23.5l3 19q7 41 -24.5 57t-80.5 16q-77 0 -163 -33l-2 111q103 45 186 45z
M147 153q0 -43 73 -43q36 0 70.5 17t50.5 56q-31 31 -94 29q-100 0 -100 -59z" />
    <glyph glyph-name="aacute.alt" horiz-adv-x="560" 
d="M506 712l-1 -7l-130 -133h-127l1 7l88 133h169zM281 508q-83 0 -186 -45l2 -111q86 33 163 33q49 0 80.5 -16t24.5 -57l-3 -19q-23 15 -60.5 23.5t-67.5 8.5q-92 0 -162.5 -51t-70.5 -142q0 -68 46.5 -103t117.5 -35q100 0 162 55l3 -49h122l55 312q19 111 -42 153.5
t-184 42.5zM147 153q0 59 100 59q63 2 94 -29q-16 -39 -50.5 -56t-70.5 -17q-73 0 -73 43z" />
    <glyph glyph-name="acircumflex.alt" horiz-adv-x="560" 
d="M315 716h76l127 -138l-1 -6h-146l-36 45l-50 -45h-146l1 6zM281 508q-83 0 -186 -45l2 -111q86 33 163 33q49 0 80.5 -16t24.5 -57l-3 -19q-23 15 -60.5 23.5t-67.5 8.5q-92 0 -162.5 -51t-70.5 -142q0 -68 46.5 -103t117.5 -35q100 0 162 55l3 -49h122l55 312
q19 111 -42 153.5t-184 42.5zM147 153q0 59 100 59q63 2 94 -29q-16 -39 -50.5 -56t-70.5 -17q-73 0 -73 43z" />
    <glyph glyph-name="atilde.alt" horiz-adv-x="559" 
d="M230 574l-79 50q33 50 77.5 77t93.5 15q11 -3 31.5 -14t29.5 -13q31 -9 59 26l85 -46q-36 -59 -75 -81t-74 -11q-10 3 -41.5 19t-48.5 15q-25 0 -58 -37zM280 508q123 0 184 -42.5t42 -153.5l-55 -312h-122l-3 49q-62 -55 -162 -55q-71 0 -117.5 35t-46.5 103
q0 91 70.5 142t162.5 51q29 0 67 -8.5t61 -23.5l3 19q7 41 -24.5 57t-80.5 16q-77 0 -163 -33l-2 111q103 45 186 45zM146 153q0 -43 73 -43q36 0 70.5 17t50.5 56q-31 31 -94 29q-100 0 -100 -59z" />
    <glyph glyph-name="adieresis.alt" horiz-adv-x="559" 
d="M150 630q0 43 29.5 68t66.5 25q28 0 46.5 -17t18.5 -48q0 -43 -30 -68t-67 -24q-27 1 -45.5 18t-18.5 46zM384 630q0 44 29.5 68.5t67.5 24.5q26 0 45 -18t19 -48q0 -41 -28.5 -65.5t-64.5 -25.5q-29 -1 -48.5 16t-19.5 48zM280 508q-83 0 -186 -45l2 -111q86 33 163 33
q49 0 80.5 -16t24.5 -57l-3 -19q-23 15 -61 23.5t-67 8.5q-92 0 -162.5 -51t-70.5 -142q0 -68 46.5 -103t117.5 -35q100 0 162 55l3 -49h122l55 312q19 111 -42 153.5t-184 42.5zM146 153q0 59 100 59q63 2 94 -29q-16 -39 -50.5 -56t-70.5 -17q-73 0 -73 43z" />
    <glyph glyph-name="amacron.alt" horiz-adv-x="560" 
d="M160 596l20 114h355l-20 -114h-355zM281 508q123 0 184 -42.5t42 -153.5l-55 -312h-122l-3 49q-62 -55 -162 -55q-71 0 -117.5 35t-46.5 103q0 91 70.5 142t162.5 51q30 0 67.5 -8.5t60.5 -23.5l3 19q7 41 -24.5 57t-80.5 16q-77 0 -163 -33l-2 111q103 45 186 45z
M147 153q0 -43 73 -43q36 0 70.5 17t50.5 56q-31 31 -94 29q-100 0 -100 -59z" />
    <glyph glyph-name="abreve.alt" horiz-adv-x="560" 
d="M394 711h116q-8 -67 -62 -109t-121 -42q-69 0 -113 40t-24 111h117q-4 -24 8.5 -35t26.5 -11q15 0 31.5 11t20.5 35zM281 508q123 0 184 -42.5t42 -153.5l-55 -312h-122l-3 49q-62 -55 -162 -55q-71 0 -117.5 35t-46.5 103q0 91 70.5 142t162.5 51q30 0 67.5 -8.5
t60.5 -23.5l3 19q7 41 -24.5 57t-80.5 16q-77 0 -163 -33l-2 111q103 45 186 45zM147 153q0 -43 73 -43q36 0 70.5 17t50.5 56q-31 31 -94 29q-100 0 -100 -59z" />
    <glyph glyph-name="aring.alt" horiz-adv-x="560" 
d="M209 655q0 63 48 99.5t109 36.5q46 0 79 -26.5t33 -73.5q0 -62 -47.5 -97.5t-105.5 -35.5q-50 0 -83 25.5t-33 71.5zM351 719q-28 0 -45.5 -16t-17.5 -36q0 -37 47 -37q28 0 44.5 15t16.5 34q0 17 -11.5 28.5t-33.5 11.5zM281 508q123 0 184 -42.5t42 -153.5l-55 -312
h-122l-3 49q-62 -55 -162 -55q-71 0 -117.5 35t-46.5 103q0 91 70.5 142t162.5 51q30 0 67.5 -8.5t60.5 -23.5l3 19q7 41 -24.5 57t-80.5 16q-77 0 -163 -33l-2 111q103 45 186 45zM147 153q0 -43 73 -43q36 0 70.5 17t50.5 56q-31 31 -94 29q-100 0 -100 -59z" />
    <glyph glyph-name="aringacute.alt" horiz-adv-x="559" 
d="M218 623q0 -42 32.5 -65t76.5 -23q54 0 98 31t44 87q0 42 -31.5 66t-74.5 24q-56 0 -100.5 -32.5t-44.5 -87.5zM349 678q21 0 32.5 -10.5t11.5 -25.5q0 -17 -16 -30t-42 -13q-43 0 -43 34q0 20 15 32.5t42 12.5zM564 877v-4l-133 -100h-125l1 5l90 99h167zM280 508
q-83 0 -186 -45l2 -111q86 33 163 33q49 0 80.5 -16t24.5 -57l-3 -19q-23 15 -61 23.5t-67 8.5q-92 0 -162.5 -51t-70.5 -142q0 -68 46.5 -103t117.5 -35q100 0 162 55l3 -49h122l55 312q19 111 -42 153.5t-184 42.5zM146 153q0 59 100 59q63 2 94 -29q-16 -39 -50.5 -56
t-70.5 -17q-73 0 -73 43z" />
    <glyph glyph-name="aogonek.alt" horiz-adv-x="559" 
d="M280 508q123 0 184 -42.5t42 -153.5l-64 -364q-32 7 -77.5 -8.5t-40.5 -48.5q3 -10 19 -15t35 -1q17 3 37 13l61 -56q-28 -34 -73 -49t-90 -10q-41 6 -70 28t-31 60q-3 31 24.5 73.5t95.5 63.5l-3 51q-62 -55 -165 -55q-71 0 -117.5 35t-46.5 103q0 91 70.5 142t162.5 51
q29 0 67 -8.5t61 -23.5l3 19q7 41 -24.5 57t-80.5 16q-77 0 -163 -33l-2 111q103 45 186 45zM146 153q0 -43 73 -43q36 0 70.5 17t50.5 56q-31 31 -94 29q-100 0 -100 -59z" />
    <glyph glyph-name="y.alt" horiz-adv-x="573" 
d="M444 494h159l-429 -716h-157l144 237l-123 479h162l68 -311z" />
    <glyph glyph-name="yacute.alt" horiz-adv-x="573" 
d="M525 701l-1 -6l-143 -144h-126l2 7l100 143h168zM603 494h-159l-176 -311l-68 311h-162l123 -479l-144 -237h157z" />
    <glyph glyph-name="ycircumflex.alt" horiz-adv-x="573" 
d="M324 723h83l140 -146l-1 -5h-160l-41 45l-56 -45h-159l1 5zM603 494h-159l-176 -311l-68 311h-162l123 -479l-144 -237h157z" />
    <glyph glyph-name="ydieresis.alt" horiz-adv-x="573" 
d="M135 619q0 43 30 67.5t67 24.5q27 0 46 -17t19 -48q0 -44 -29.5 -69t-66.5 -24q-28 1 -47 18t-19 48zM397 619q0 44 30.5 68.5t68.5 23.5q27 -1 45.5 -18t18.5 -47q0 -43 -28.5 -68t-65.5 -25q-29 0 -49 17.5t-20 48.5zM603 494h-159l-176 -311l-68 311h-162l123 -479
l-144 -237h157z" />
    <glyph glyph-name="ygrave.alt" horiz-adv-x="573" 
d="M181 695l1 6h169l38 -143l-2 -7h-131zM444 494h159l-429 -716h-157l144 237l-123 479h162l68 -311z" />
    </font>
</defs>
</svg>
